<svg width="71" height="71" viewBox="0 0 71 71" fill="none" xmlns="http://www.w3.org/2000/svg">
<path fill-rule="evenodd" clip-rule="evenodd" d="M33.4504 0.96582C20.9354 6.65629 10.5642 14.2173 1.5 24.2593C0.170705 25.732 0.151358 25.7642 0.221115 26.382C0.259988 26.7271 0.395243 27.9318 0.5218 29.0589C1.90879 41.4261 6.22541 54.3502 12.7824 65.7688C13.821 67.5771 13.4671 67.3783 16.8788 68.0697C29.004 70.5265 42.1235 70.5259 54.2583 68.0683C57.7608 67.3588 57.3676 67.5837 58.4736 65.6575C65.3824 53.6253 69.6726 40.1491 70.7887 26.974L70.891 25.7675L70.2296 24.9977C61.7195 15.093 49.5148 6.13107 37.309 0.823997C35.4096 -0.00191014 35.5935 -0.00883268 33.4504 0.96582ZM39.7402 4.81597C50.1091 9.97252 57.7982 15.6683 66.1427 24.3745L68.2473 26.5704L68.1589 27.6624C67.2602 38.765 62.8096 52.7924 56.8722 63.2357C55.6796 65.3334 56.0452 65.0795 53.4953 65.5804C41.6031 67.9169 29.9289 67.9124 17.7443 65.5671L15.3597 65.1083L14.7067 63.9918C8.93867 54.1319 4.70086 41.3785 3.20702 29.3841C2.80676 26.1706 2.48566 26.8134 6.5142 22.7642C14.4847 14.7526 22.9558 8.72807 32.7915 4.0758C35.7793 2.66254 35.309 2.61231 39.7402 4.81597ZM34.1091 15.4445C34.1091 15.9216 34.1408 15.9569 34.5699 15.9569H35.0305L34.9508 17.6771C34.851 19.8279 34.2585 21.8542 33.7065 21.9327C33.3889 21.9777 33.3771 22.0342 33.3771 23.5062V25.0332H34.1822H34.9873V24.0772V23.1214L36.8539 23.1624L38.7203 23.2034L38.6728 24.1182L38.6252 25.0332H39.4413H40.2575V23.579V22.1249L39.8549 22.0786L39.4523 22.0322L39.4076 19.7631C39.3437 16.5166 39.4271 15.9569 39.9753 15.9569C40.3675 15.9569 40.4039 15.9135 40.4039 15.4445V14.9322H37.2565H34.1091V15.4445ZM24.9985 16.3851L24.5203 16.813L24.5636 18.2751C24.6043 19.6509 24.5874 19.7508 24.2768 19.9684C23.8694 20.2537 23.8007 20.1837 23.5089 19.1876C23.2084 18.1615 23.2146 18.0566 23.5828 17.9604C23.8632 17.8871 23.8915 17.1371 23.6245 16.8469C23.4946 16.7058 20.6411 17.6127 20.6411 17.7951C20.6411 18.3393 20.9162 18.7011 21.2778 18.632C21.7103 18.5493 22.4345 20.431 22.0634 20.6733C21.636 20.9523 21.293 20.7017 20.7873 19.7412C19.9907 18.2277 19.3721 17.7854 18.4578 18.0756C17.9688 18.2307 18.0127 19.3239 18.5079 19.3239C18.9438 19.3239 19.2962 19.6596 19.5775 20.3428C19.8507 21.0068 20.3255 21.5198 20.6665 21.5198C20.8136 21.5198 20.9338 21.5856 20.9338 21.6662C20.9338 21.7466 20.8759 21.8127 20.8051 21.8127C20.5001 21.8127 20.309 22.7215 20.4025 23.7277C20.4932 24.7038 20.4797 24.7682 20.1112 25.1097L19.7246 25.4681L20.1109 25.9745C20.5426 26.5406 21.052 26.5104 21.615 25.8856C21.8903 25.5799 21.9539 24.0696 21.741 22.8883C21.6489 22.3775 21.9391 21.9589 22.3855 21.9589C22.991 21.9589 23.4035 24.4331 22.8004 24.4453C22.6472 24.4485 22.6671 25.0622 22.8284 25.3174C23.0994 25.7457 25.9307 24.8009 25.8161 24.3204C25.6815 23.7563 25.6402 23.7156 25.201 23.7156C24.8329 23.7156 24.7813 23.6409 24.5505 22.7747C24.4126 22.2573 24.261 21.733 24.2138 21.6098C24.0958 21.3023 24.8081 21.1261 25.1205 21.3854C25.2472 21.4907 25.607 22.0858 25.9199 22.7083C26.566 23.9934 26.9111 24.3012 27.705 24.3012C28.2959 24.3012 28.3297 24.2602 28.4498 23.3947C28.5217 22.8775 28.5054 22.8525 28.0661 22.8091C27.6701 22.7703 27.5336 22.6334 27.0726 21.8127C26.7169 21.1792 26.3646 20.7622 26.019 20.5655C25.5353 20.2902 25.5145 20.2501 25.7181 19.98C25.8821 19.762 25.9203 19.4194 25.8709 18.6028C25.8102 17.5946 25.8315 17.4914 26.164 17.1833C26.5188 16.8544 26.5197 16.8462 26.2584 16.4039C25.9279 15.8442 25.6077 15.8394 24.9985 16.3851ZM37.7354 18.9945L37.6956 21.8858L37.265 21.9348C37.0282 21.9618 36.558 21.9424 36.2202 21.8916L35.6061 21.7995L35.8841 21.0677C36.167 20.3231 36.4443 18.2637 36.4489 16.872L36.4514 16.1034H37.1132H37.775L37.7354 18.9945ZM48.0606 16.5365C47.8609 16.6217 47.6834 16.8851 47.5929 17.2303C47.1974 18.7382 47.1725 18.6493 48.0361 18.8111C48.5588 18.9093 48.5686 18.9022 48.7668 18.2754C49.1923 16.9307 51.0301 18.039 51.0067 19.6262C50.9918 20.6312 50.9469 20.6417 48.9468 20.1129C48.6875 20.0444 48.6032 20.1206 48.4607 20.5524C48.2351 21.236 48.2902 21.2983 49.31 21.5148C50.5708 21.7823 50.6002 21.8137 50.3075 22.5802C49.6854 24.2089 47.0201 24.798 47.3692 23.2296C47.5472 22.4297 47.5208 22.3551 47.0103 22.2191C46.2946 22.0287 46.1796 22.127 45.9712 23.1095C45.7295 24.2481 45.7941 24.3832 46.8067 24.8566C47.9418 25.3872 49.5326 25.4118 50.4758 24.9132C52.5082 23.8392 53.2895 19.0893 51.699 17.4788C50.943 16.7134 48.8911 16.182 48.0606 16.5365ZM30.018 21.9509C29.6077 22.3615 29.6174 23.1721 30.0377 23.5635C31.0076 24.4672 32.5918 23.1835 31.8078 22.1291C31.4178 21.6046 30.4598 21.5093 30.018 21.9509ZM42.2107 22.1883C41.9077 22.4912 41.8525 22.654 41.9251 23.03C42.1924 24.4143 44.2101 24.3138 44.2101 22.9162C44.2101 21.8744 42.9745 21.4245 42.2107 22.1883ZM7.90491 28.225C8.02561 28.2999 14.3002 31.0437 21.8484 34.3223L35.5724 40.2833L49.4752 34.2396C57.1218 30.9156 63.3634 28.181 63.3453 28.1629C63.3272 28.1448 62.3756 28.2884 61.2305 28.4819C55.6689 29.4221 48.584 30.3323 43.4049 30.7723C42.1113 30.8822 38.893 30.9589 35.5729 30.9589C29.7316 30.9589 28.0641 30.8662 22.2514 30.2191C18.1122 29.7581 10.1538 28.6082 8.07514 28.1709C7.79895 28.1128 7.74925 28.1286 7.90491 28.225ZM25.6427 52.4964C20.2255 59.1484 15.8136 64.6104 15.8383 64.6338C15.8631 64.6574 20.2641 61.6893 25.6183 58.0381C30.9726 54.3867 35.4384 51.3957 35.5422 51.3914C35.6966 51.3852 40.2474 54.4483 54.7136 64.2959C55.0558 64.5289 55.3359 64.6874 55.3359 64.6482C55.3359 64.539 35.725 40.4828 35.6008 40.4397C35.541 40.4187 31.0598 45.8444 25.6427 52.4964Z" fill="#E6342A"/>
</svg>
