<svg width="73" height="68" viewBox="0 0 73 68" fill="none" xmlns="http://www.w3.org/2000/svg">
<path fill-rule="evenodd" clip-rule="evenodd" d="M5.41324 0.248837C4.43773 0.336819 3.42124 0.451933 3.15439 0.504775C2.15715 0.701911 1.14474 1.45336 0.690589 2.33344C0.515794 2.67211 0.451499 2.95163 0.42108 3.50514C0.343128 4.92281 0.9162 6.01452 2.05906 6.6255C2.94235 7.09779 3.46576 7.1453 5.83191 6.96756C6.96733 6.88224 8.12527 6.75645 8.40497 6.68795C9.01733 6.53806 9.6915 6.20632 10.088 5.85991L10.3795 5.60522L12.0645 5.54713C12.9912 5.5151 14.1893 5.46466 14.7268 5.43495L15.7041 5.38086L15.8475 5.81428C15.9264 6.05269 16.4387 7.46867 16.986 8.96098C18.3478 12.6746 18.7666 13.8214 19.4217 15.633C19.7315 16.4892 20.0469 17.3499 20.1226 17.5456C20.1983 17.7413 20.6245 18.9023 21.0696 20.1255C21.5147 21.3487 22.0124 22.7098 22.1755 23.1501C22.3386 23.5905 22.837 24.9516 23.2829 26.1748C23.7288 27.398 24.226 28.7591 24.3877 29.1994C24.8371 30.4232 25.6274 32.5843 27.0558 36.4942C28.3526 40.0441 29.2581 42.5176 30.524 45.9684C30.892 46.9714 31.254 47.9657 31.3283 48.1777C31.4428 48.504 31.4926 48.5552 31.6522 48.5108C32.1556 48.3707 33.3853 48.1928 34.2283 48.1381C34.7443 48.1046 35.1665 48.067 35.1665 48.0544C35.1665 48.0251 33.7056 44.0199 33.4809 43.4331C33.3872 43.1884 32.8649 41.7673 32.3202 40.275C31.7755 38.7827 30.9925 36.6409 30.5802 35.5156C30.1679 34.3902 29.7383 33.2093 29.6253 32.8913C29.5123 32.5732 29.074 31.3723 28.6514 30.2225C28.2287 29.0727 27.6283 27.4313 27.3172 26.5751C26.6383 24.7067 26.1258 23.3079 25.1012 20.5258C24.6777 19.376 24.239 18.175 24.1264 17.857C24.0137 17.539 23.5757 16.338 23.153 15.1882C22.7303 14.0384 22.1303 12.3971 21.8197 11.5408C21.509 10.6846 20.909 9.04326 20.4863 7.89345C20.0636 6.74364 19.6257 5.54268 19.5131 5.22465C19.147 4.19111 17.968 1.01977 17.9424 1.00019C17.9288 0.989697 17.3788 1.01203 16.7204 1.04975C16.0619 1.08747 14.3955 1.16406 13.0173 1.21984L10.5114 1.32134L10.1289 1.00696C9.43742 0.438589 8.33137 0.0461858 7.50741 0.0768771C7.33111 0.0834601 6.38876 0.160855 5.41324 0.248837ZM52.5041 15.8517C52.0651 16.0175 50.5486 16.5781 49.1341 17.0976C47.7196 17.6171 46.3628 18.119 46.1189 18.213C45.875 18.307 44.6778 18.7472 43.4584 19.1914C42.239 19.6356 41.0418 20.0757 40.7979 20.1694C40.554 20.2632 38.818 20.9052 36.9402 21.5963C35.0623 22.2872 33.1467 22.9928 32.6834 23.1642C32.22 23.3356 31.4617 23.6147 30.9984 23.7842C29.7813 24.2297 29.6681 24.2773 29.6681 24.3433C29.6681 24.376 29.9899 25.2819 30.3831 26.3563C30.7763 27.4307 31.3319 28.9503 31.6178 29.7332C31.9037 30.516 32.3654 31.777 32.6439 32.5354C32.9224 33.2938 33.4608 34.7682 33.8403 35.8119C34.2199 36.8555 34.5525 37.7316 34.5795 37.7586C34.6234 37.8027 35.1313 37.6256 37.96 36.5798C39.1825 36.1278 43.7965 34.4285 44.7443 34.0811C45.2077 33.9112 45.7863 33.6957 46.0302 33.6021C46.2741 33.5085 48.8282 32.567 51.7059 31.5099C58.351 29.0689 58.4015 29.0497 58.4015 28.962C58.4015 28.895 57.7003 26.9405 57.3696 26.0858C57.2939 25.8901 56.9787 25.0294 56.6692 24.1732C55.8 21.7682 54.1526 17.2631 53.7335 16.1445C53.6097 15.8143 53.462 15.5455 53.4054 15.5471C53.3486 15.5488 52.9431 15.6859 52.5041 15.8517ZM66.1613 28.6247C66.0638 28.669 63.2503 29.7087 59.9091 30.9352C56.568 32.1618 53.6348 33.2419 53.3909 33.3354C53.147 33.4289 51.5906 34.0047 49.9323 34.6148C48.2739 35.2249 45.5402 36.2306 43.8575 36.8496C42.1747 37.4686 40.4387 38.108 39.9997 38.2704C39.5608 38.4329 38.8225 38.7061 38.3591 38.8776C37.8957 39.049 37.0476 39.36 36.4746 39.5687C35.9015 39.7774 35.4325 39.9969 35.4325 40.0565C35.4325 40.116 35.6941 40.8802 36.0138 41.7545C36.3334 42.6288 36.8876 44.1447 37.2452 45.1233C37.6028 46.1019 38.0835 47.4127 38.3133 48.0362L38.7312 49.1698L39.4606 49.7411C40.8005 50.7906 42.0627 52.3422 42.846 53.9027C43.0134 54.2359 43.1874 54.5086 43.2329 54.5086C43.3034 54.5086 51.9304 51.356 53.2135 50.8614C53.4574 50.7674 56.3906 49.6851 59.7318 48.4564C63.0729 47.2276 66.1658 46.0897 66.6047 45.9275C67.0437 45.7653 68.4604 45.2429 69.753 44.7664C71.0455 44.29 72.128 43.8751 72.1585 43.8445C72.189 43.8139 71.8983 42.9282 71.5126 41.8762C70.6643 39.5624 69.884 37.4282 68.9106 34.7594C68.509 33.6586 67.8721 31.9172 67.4951 30.8897C67.1181 29.8622 66.7697 28.9114 66.7207 28.7769C66.6291 28.5249 66.4742 28.4828 66.1613 28.6247ZM70.1521 46.9603C68.1896 47.6879 67.516 47.9364 64.1659 49.1687C62.2881 49.8594 60.5521 50.5009 60.3082 50.5941C60.0643 50.6874 59.4857 50.9027 59.0223 51.0726C57.5398 51.6163 46.0696 55.8395 44.979 56.2432C44.4009 56.4573 43.9109 56.6493 43.8903 56.6701C43.8696 56.6908 43.9135 57.0836 43.9877 57.543C44.0621 58.0025 44.123 58.6686 44.1232 59.0233C44.1233 59.378 44.1448 59.6683 44.1709 59.6683C44.2164 59.6683 50.5332 57.3491 51.4399 56.9995C51.6838 56.9054 52.881 56.4651 54.1004 56.0209C55.3198 55.5767 56.517 55.1367 56.7609 55.0429C57.0048 54.9491 58.7407 54.3083 60.6186 53.619C62.4965 52.9296 64.2325 52.2889 64.4763 52.1951C64.7202 52.1013 65.9174 51.6597 67.1368 51.2138C71.2356 49.7148 71.7473 49.5247 72.0337 49.3949L72.319 49.2656L72.0956 48.6623C71.9726 48.3305 71.7492 47.7288 71.5989 47.3251C71.4487 46.9214 71.2812 46.5928 71.2266 46.5949C71.1722 46.5969 70.6886 46.7614 70.1521 46.9603ZM32.2843 49.2635C30.2333 49.5332 28.4677 50.3882 26.9778 51.8331C25.7651 53.0093 24.9135 54.4452 24.4568 56.0841C24.2347 56.8813 24.2142 57.0867 24.2143 58.5118C24.2144 60.3099 24.3499 60.969 25.0119 62.3925C25.5249 63.4954 26.0182 64.2047 26.8676 65.0608C28.4135 66.619 30.4311 67.5755 32.5496 67.7549C35.4591 68.0011 38.098 66.9999 40.0966 64.8916C41.3101 63.6114 42.1405 62.0385 42.4994 60.3396C42.6825 59.4728 42.6738 57.5143 42.4828 56.5992C42.1817 55.1572 41.4337 53.6347 40.4463 52.4541C38.5193 50.1504 35.2522 48.8732 32.2843 49.2635ZM34.8807 53.7515C36.9839 54.4179 38.3532 56.2823 38.3578 58.4852C38.3595 59.3486 38.2251 59.9459 37.8592 60.7004C36.6593 63.1747 33.6468 64.1898 31.18 62.9513C29.1431 61.9286 28.0174 59.5411 28.5609 57.3962C28.876 56.1529 29.6134 55.061 30.5854 54.3989C31.854 53.5347 33.4414 53.2954 34.8807 53.7515Z" fill="#D60000"/>
</svg>
