<svg width="75" height="66" viewBox="0 0 75 66" fill="none" xmlns="http://www.w3.org/2000/svg">
<path fill-rule="evenodd" clip-rule="evenodd" d="M10.4901 0.164219C9.94963 0.462821 9.93452 0.580833 9.93033 4.54206C9.92791 6.83882 9.9728 8.47018 10.0483 8.83136C10.4794 10.8924 12.2492 12.6572 14.3161 13.087C14.6969 13.1662 16.7931 13.2085 20.3326 13.2085H25.7647L28.5063 19.615C32.4794 28.8994 32.1874 28.2609 32.5449 28.4453C32.7176 28.5343 33.1543 28.6061 33.5239 28.6061H34.1912V39.1592C34.1912 47.1068 34.2237 49.7835 34.323 50.0007C34.5674 50.5356 35.2629 50.7415 35.8235 50.4449C36.181 50.2557 40.5127 45.9209 40.6868 45.5781C40.7728 45.4088 40.8088 42.867 40.8088 36.972V28.6061H41.4761C41.8457 28.6061 42.2824 28.5343 42.4551 28.4453C42.8131 28.2607 42.5295 28.8809 46.4926 19.615L49.2328 13.2085H54.6661C58.2066 13.2085 60.3031 13.1662 60.6839 13.087C62.7508 12.6572 64.5206 10.8924 64.9517 8.83136C65.0266 8.47304 65.0735 6.82903 65.0735 4.56406C65.0735 0.566974 65.0516 0.406291 64.47 0.142114C64.0222 -0.0613532 10.8588 -0.039578 10.4901 0.164219ZM62.8463 5.37232L62.8125 8.5343L62.5048 9.15922C62.1561 9.86718 61.6218 10.3838 60.888 10.7223L60.386 10.9539H37.5H14.614L13.9873 10.6471C13.2773 10.2994 12.7593 9.76654 12.4198 9.03483C12.2036 8.56895 12.1852 8.31544 12.1538 5.37232L12.1199 2.21033H37.5H62.8801L62.8463 5.37232ZM46.7452 13.3583C46.7256 13.4407 45.4688 16.4096 43.9522 19.9558L41.1949 26.4035H37.5H33.8051L31.0478 19.9558C29.5312 16.4096 28.2744 13.4407 28.2548 13.3583C28.2249 13.2329 29.7242 13.2085 37.5 13.2085C45.2758 13.2085 46.7751 13.2329 46.7452 13.3583ZM38.6029 31.1102V33.6144L37.5 34.7101L36.3971 35.8057V32.2059V28.6061H37.5H38.6029V31.1102ZM22.0024 36.3061L21.2348 37.0774L24.542 40.3722L27.8493 43.6668L28.6765 42.9077L29.5037 42.1487L26.1955 38.8418C24.3761 37.023 22.861 35.5349 22.8286 35.5349C22.7963 35.5349 22.4244 35.882 22.0024 36.3061ZM48.831 38.8087L45.5494 42.0823L46.3517 42.877L47.154 43.6717L50.4593 40.3744L53.7647 37.077L52.9974 36.3059C52.5754 35.8819 52.2037 35.5349 52.1714 35.5349C52.139 35.5349 50.6359 37.0081 48.831 38.8087ZM37.5014 45.7055L36.3971 46.8068V42.9051V39.0033L37.4724 37.9269L38.5478 36.8504L38.5768 40.7274L38.6058 44.6043L37.5014 45.7055ZM0 51.7023V52.8021H14.8897H29.7794V53.6216C29.7794 55.3518 30.2856 56.6259 31.424 57.7611C33.6164 59.9472 36.9692 59.9465 39.1625 57.7594C39.9572 56.9668 40.3724 56.2281 40.6502 55.1118C40.8105 54.4676 40.906 54.3179 41.6153 53.5995L42.4026 52.8021H58.7013H75V51.7023V50.6025H58.3401C44.1971 50.6025 41.6353 50.626 41.3824 50.758C40.9117 51.0037 38.7361 53.2699 38.6784 53.5746C38.65 53.7244 38.5721 54.1426 38.5052 54.5039C37.922 57.6564 33.6207 58.1558 32.2749 55.2274C32.0825 54.8085 32.0392 54.4666 32.0101 53.1321C31.9909 52.255 31.9209 51.3989 31.8545 51.2297C31.5936 50.5655 32.5529 50.6025 15.557 50.6025H0V51.7023ZM0 64.9002V66H37.5H75V64.9002V63.8004H37.5H0V64.9002Z" fill="#D60000"/>
</svg>
