<svg width="68" height="77" viewBox="0 0 68 77" fill="none" xmlns="http://www.w3.org/2000/svg">
<path d="M25.3094 76.55C18.9994 76.55 12.6794 74.15 7.87937 69.34C-1.73063 59.73 -1.73063 44.09 7.87937 34.47C12.5394 29.81 18.7294 27.25 25.3094 27.25C31.8894 27.25 38.0894 29.81 42.7394 34.47C47.3994 39.13 49.9594 45.32 49.9594 51.9C49.9594 58.48 47.3994 64.68 42.7394 69.33C37.9294 74.14 31.6194 76.54 25.3094 76.54V76.55ZM25.3094 30.25C19.5294 30.25 14.0894 32.5 9.9994 36.59C1.5594 45.03 1.5594 58.77 9.9994 67.21C18.4394 75.65 32.1794 75.65 40.6194 67.21C44.7094 63.12 46.9594 57.68 46.9594 51.9C46.9594 46.12 44.7094 40.68 40.6194 36.59C36.5294 32.5 31.0894 30.25 25.3094 30.25Z" fill="#D60000"/>
<path d="M25.3088 69.41C20.6288 69.41 16.2388 67.59 12.9288 64.28C9.61883 60.97 7.79883 56.58 7.79883 51.9C7.79883 47.22 9.61883 42.83 12.9288 39.52C19.7588 32.69 30.8588 32.69 37.6888 39.52C44.5188 46.35 44.5188 57.46 37.6888 64.28C34.3788 67.59 29.9788 69.41 25.3088 69.41ZM25.3088 37.4C21.5888 37.4 17.8788 38.81 15.0488 41.64C12.3088 44.38 10.7988 48.02 10.7988 51.9C10.7988 55.78 12.3088 59.42 15.0488 62.16C17.7888 64.9 21.4288 66.41 25.3088 66.41C29.1888 66.41 32.8288 64.9 35.5688 62.16C41.2288 56.5 41.2288 47.3 35.5688 41.64C32.7388 38.81 29.0288 37.4 25.3088 37.4Z" fill="#D60000"/>
<path d="M25.3104 63.8902C22.1104 63.8902 19.1003 62.6402 16.8303 60.3802C12.1503 55.7102 12.1503 48.1002 16.8303 43.4202C19.0903 41.1502 22.1104 39.9102 25.3104 39.9102C28.5104 39.9102 31.5203 41.1602 33.7903 43.4202C36.0603 45.6802 37.3003 48.7002 37.3003 51.9002C37.3003 55.1002 36.0503 58.1102 33.7903 60.3802C31.5303 62.6502 28.5104 63.8902 25.3104 63.8902ZM25.3104 42.9102C23.0104 42.9102 20.7004 43.7902 18.9504 45.5402C15.4404 49.0502 15.4404 54.7502 18.9504 58.2602C22.4604 61.7702 28.1603 61.7702 31.6703 58.2602C33.3703 56.5602 34.3003 54.3002 34.3003 51.9002C34.3003 49.5002 33.3603 47.2402 31.6703 45.5402C29.9803 43.8402 27.6104 42.9102 25.3104 42.9102Z" fill="#D60000"/>
<path d="M9.98914 36.5901L7.86914 34.4701L39.0391 3.30012C41.0891 1.25012 43.8191 0.120117 46.7191 0.120117C49.6191 0.120117 52.3491 1.25012 54.3991 3.30012C56.4491 5.35012 57.5791 8.08012 57.5791 10.9801C57.5791 13.8801 56.4491 16.6101 54.3991 18.6601C51.3391 21.7201 51.3391 26.7101 54.3991 29.7701C55.8791 31.2501 57.8591 32.0701 59.9591 32.0701C62.0591 32.0701 64.0291 31.2501 65.5191 29.7701L67.6392 31.8901C65.5892 33.9401 62.8591 35.0701 59.9591 35.0701C57.0591 35.0701 54.3291 33.9401 52.2791 31.8901C48.0491 27.6601 48.0491 20.7701 52.2791 16.5301C55.3391 13.4701 55.3391 8.48012 52.2791 5.42012C50.7991 3.94012 48.8191 3.12012 46.7191 3.12012C44.6191 3.12012 42.6491 3.94012 41.1591 5.42012L9.98914 36.5901Z" fill="#D60000"/>
</svg>
