<svg width="88" height="69" viewBox="0 0 88 69" fill="none" xmlns="http://www.w3.org/2000/svg">
<path d="M15.5992 68.9296C15.2192 68.9296 14.8292 68.7796 14.5392 68.4896L1.07922 55.0296C0.489219 54.4396 0.489219 53.4896 1.07922 52.9096L40.7593 13.2296C41.3493 12.6396 42.2993 12.6396 42.8793 13.2296L56.3392 26.6896C56.9292 27.2796 56.9292 28.2296 56.3392 28.8096L16.6592 68.4896C16.3692 68.7796 15.9792 68.9296 15.5992 68.9296ZM4.25927 53.9696L15.5992 65.3096L53.1592 27.7496L41.8193 16.4096L4.25927 53.9696Z" fill="#D60000"/>
<path d="M51.5693 25.5396C51.1893 25.5396 50.7993 25.3896 50.5093 25.0996L44.4693 19.0597C44.1893 18.7796 44.0293 18.3996 44.0293 17.9996C44.0293 17.5996 44.1893 17.2196 44.4693 16.9396L52.5493 8.85965C52.6193 8.78965 52.6993 8.71965 52.7793 8.66965L65.4093 0.319649C66.0093 -0.0703506 66.7893 0.0096499 67.2993 0.50965L69.0593 2.26965C69.5593 2.76965 69.6393 3.55965 69.2493 4.15965L60.8993 16.7896C60.8493 16.8696 60.7793 16.9496 60.7093 17.0196L52.6293 25.0996C52.3393 25.3896 51.9493 25.5396 51.5693 25.5396ZM47.6493 17.9996L51.5693 21.9196L58.4793 15.0096L66.0693 3.52965L66.0393 3.49965L54.5593 11.0897L47.6493 17.9996Z" fill="#D60000"/>
<path d="M37.0373 19.0652L34.916 21.1865L48.3793 34.6498L50.5006 32.5285L37.0373 19.0652Z" fill="#D60000"/>
<path d="M10.7385 45.3689L8.61719 47.4902L22.0805 60.9535L24.2018 58.8322L10.7385 45.3689Z" fill="#D60000"/>
<path d="M77.8994 30.1002C72.3594 30.1002 67.8394 25.5902 67.8394 20.0402C67.8394 18.3102 68.2894 16.6002 69.1594 15.0802C70.9494 5.95018 66.5795 2.95018 66.3895 2.82018C65.7995 2.43018 65.5495 1.67018 65.8095 1.01018C66.0695 0.350178 66.7595 -0.0398218 67.4495 0.0801782C67.6595 0.120178 88.2995 3.91018 87.9495 20.0702C87.9495 25.5802 83.4395 30.0902 77.8895 30.0902L77.8994 30.1002ZM71.1895 4.23018C72.3695 6.70018 73.1794 10.4602 72.0494 15.9302C72.0094 16.1002 71.9494 16.2602 71.8594 16.4002C71.1894 17.5102 70.8394 18.7602 70.8394 20.0402C70.8394 23.9302 74.0094 27.1002 77.8994 27.1002C81.7894 27.1002 84.9594 23.9302 84.9594 20.0402C85.1694 10.6402 76.5795 6.13018 71.1895 4.23018Z" fill="#D60000"/>
</svg>
