<svg width="76" height="73" viewBox="0 0 76 73" fill="none" xmlns="http://www.w3.org/2000/svg">
<path d="M14.4893 72.3897C6.65929 72.3897 0.279297 66.0097 0.279297 58.1797C0.279297 50.3497 6.65929 43.9697 14.4893 43.9697C22.3193 43.9697 28.6993 50.3497 28.6993 58.1797C28.6993 66.0097 22.3293 72.3897 14.4893 72.3897ZM14.4893 46.9697C8.30929 46.9697 3.2793 51.9997 3.2793 58.1797C3.2793 64.3597 8.30929 69.3897 14.4893 69.3897C20.6693 69.3897 25.6993 64.3597 25.6993 58.1797C25.6993 51.9997 20.6693 46.9697 14.4893 46.9697Z" fill="#D60000"/>
<path d="M14.4909 65.4604C10.4809 65.4604 7.21094 62.1904 7.21094 58.1804C7.21094 54.1704 10.4809 50.9004 14.4909 50.9004C18.5009 50.9004 21.7709 54.1704 21.7709 58.1804C21.7709 62.1904 18.5009 65.4604 14.4909 65.4604ZM14.4909 53.9004C12.1309 53.9004 10.2109 55.8204 10.2109 58.1804C10.2109 60.5404 12.1309 62.4604 14.4909 62.4604C16.8509 62.4604 18.7709 60.5404 18.7709 58.1804C18.7709 55.8204 16.8509 53.9004 14.4909 53.9004Z" fill="#D60000"/>
<path d="M44.0102 46.9705H14.4902C13.6602 46.9705 12.9902 46.3005 12.9902 45.4705C12.9902 44.6405 13.6602 43.9705 14.4902 43.9705H43.2202L70.7002 3.56055H44.0102C40.4102 3.56055 37.0002 5.31055 34.8902 8.25055C34.4102 8.92055 33.4702 9.08055 32.8002 8.59055C32.1302 8.11055 31.9702 7.17055 32.4602 6.50055C35.1302 2.78055 39.4502 0.560547 44.0102 0.560547H73.5302C74.0902 0.560547 74.6002 0.870546 74.8602 1.36055C75.1202 1.85055 75.0902 2.45055 74.7702 2.91055L45.2502 46.3205C44.9702 46.7305 44.5102 46.9805 44.0102 46.9805V46.9705Z" fill="#D60000"/>
<path d="M47.241 28.9806C46.951 28.9806 46.661 28.9006 46.401 28.7206C45.721 28.2506 45.541 27.3206 46.001 26.6406L59.671 6.53058C60.141 5.84058 61.071 5.67058 61.751 6.13058C62.431 6.59058 62.611 7.53058 62.151 8.21058L48.481 28.3206C48.191 28.7506 47.721 28.9806 47.241 28.9806Z" fill="#D60000"/>
<path d="M3.1699 53.9001C2.8799 53.9001 2.58988 53.8201 2.32988 53.6401C1.63988 53.1801 1.45989 52.2401 1.92989 51.5601L32.4299 6.53009C32.8999 5.84009 33.8299 5.66008 34.5099 6.13008C35.1999 6.59008 35.3799 7.53008 34.9099 8.21008L4.40989 53.2401C4.11989 53.6701 3.6499 53.9001 3.1699 53.9001Z" fill="#D60000"/>
<path d="M25.9804 65.1302C25.6904 65.1302 25.4004 65.0502 25.1404 64.8702C24.4504 64.4102 24.2704 63.4702 24.7404 62.7902L36.8804 44.8602C37.3504 44.1702 38.2804 43.9902 38.9604 44.4602C39.6504 44.9202 39.8304 45.8602 39.3604 46.5402L27.2204 64.4702C26.9304 64.9002 26.4604 65.1302 25.9804 65.1302Z" fill="#D60000"/>
</svg>
