<svg width="85" height="86" viewBox="0 0 85 86" fill="none" xmlns="http://www.w3.org/2000/svg">
<path d="M42.3797 85.5C41.9997 85.5 41.6097 85.3501 41.3197 85.0601L29.8197 73.5601H13.5597C12.7297 73.5601 12.0597 72.8901 12.0597 72.0601V55.8L0.559687 44.3C-0.0303125 43.71 -0.0303125 42.7601 0.559687 42.18L12.0597 30.68V14.42C12.0597 13.59 12.7297 12.92 13.5597 12.92H29.8197L41.3197 1.42004C41.9097 0.830039 42.8597 0.830039 43.4397 1.42004L54.9397 12.92H71.1996C72.0296 12.92 72.6996 13.59 72.6996 14.42V30.68L84.1996 42.18C84.7896 42.7701 84.7896 43.72 84.1996 44.3L72.6996 55.8V72.0601C72.6996 72.8901 72.0296 73.5601 71.1996 73.5601H54.9397L43.4397 85.0601C43.1497 85.3501 42.7597 85.5 42.3797 85.5ZM15.0597 70.5601H30.4397C30.8397 70.5601 31.2197 70.72 31.4997 71L42.3797 81.88L53.2597 71C53.5397 70.72 53.9197 70.5601 54.3197 70.5601H69.6996V55.18C69.6996 54.78 69.8596 54.4001 70.1396 54.1201L81.0196 43.24L70.1396 32.36C69.8596 32.08 69.6996 31.7 69.6996 31.3V15.92H54.3197C53.9197 15.92 53.5397 15.7601 53.2597 15.4801L42.3797 4.60005L31.4997 15.4801C31.2197 15.7601 30.8397 15.92 30.4397 15.92H15.0597V31.3C15.0597 31.7 14.8997 32.08 14.6197 32.36L3.73968 43.24L14.6197 54.1201C14.8997 54.4001 15.0597 54.78 15.0597 55.18V70.5601Z" fill="#D60000"/>
<path d="M33.4906 42.4304C31.4306 42.4304 29.3605 41.6404 27.7905 40.0704C24.6505 36.9304 24.6505 31.8104 27.7905 28.6704C30.9405 25.5304 36.0506 25.5304 39.1906 28.6704C42.3306 31.8104 42.3306 36.9304 39.1906 40.0704C37.6206 41.6404 35.5506 42.4304 33.4906 42.4304ZM33.4906 29.3104C32.1906 29.3104 30.9005 29.8004 29.9105 30.7904C27.9405 32.7604 27.9405 35.9804 29.9105 37.9504C31.8805 39.9204 35.1006 39.9204 37.0706 37.9504C39.0406 35.9804 39.0406 32.7604 37.0706 30.7904C36.0806 29.8004 34.7906 29.3104 33.4906 29.3104Z" fill="#D60000"/>
<path d="M51.2601 60.1903C49.1101 60.1903 47.0801 59.3503 45.5601 57.8303C42.4201 54.6903 42.4201 49.5703 45.5601 46.4303C47.0801 44.9103 49.1101 44.0703 51.2601 44.0703C53.4101 44.0703 55.44 44.9103 56.96 46.4303C60.1 49.5703 60.1 54.6903 56.96 57.8303C55.44 59.3503 53.4101 60.1903 51.2601 60.1903ZM51.2601 47.0603C49.9101 47.0603 48.6401 47.5903 47.6801 48.5403C45.7101 50.5103 45.7101 53.7303 47.6801 55.7003C48.6401 56.6603 49.9101 57.1803 51.2601 57.1803C52.6101 57.1803 53.88 56.6503 54.84 55.7003C56.81 53.7303 56.81 50.5103 54.84 48.5403C53.88 47.5803 52.6101 47.0603 51.2601 47.0603Z" fill="#D60000"/>
<path d="M29.731 57.3901C29.351 57.3901 28.961 57.2402 28.671 56.9502C28.081 56.3602 28.081 55.4101 28.671 54.8301L53.961 29.5402C54.551 28.9502 55.501 28.9502 56.081 29.5402C56.661 30.1302 56.671 31.0802 56.081 31.6602L30.791 56.9502C30.501 57.2402 30.111 57.3901 29.731 57.3901Z" fill="#D60000"/>
</svg>
