<svg width="78" height="72" viewBox="0 0 78 72" fill="none" xmlns="http://www.w3.org/2000/svg">
<mask id="path-1-inside-1_115_371" fill="white">
<path fill-rule="evenodd" clip-rule="evenodd" d="M38.2487 0.0565527C37.775 0.205875 37.1345 0.665665 36.7401 1.13952C36.5189 1.40524 36.0692 1.97065 35.7408 2.39585C35.4123 2.82105 35.123 3.16986 35.0978 3.1709C35.0726 3.17202 34.8397 3.00896 34.5803 2.8085C32.3368 1.07528 32.2999 1.05587 31.2424 1.05579C30.5232 1.05571 30.4112 1.07632 30.0852 1.2687C29.2949 1.73489 28.7596 2.52392 28.1416 4.13314C27.9816 4.54971 27.799 4.94303 27.7357 5.00711C27.5925 5.15227 27.3233 5.08109 26.3061 4.62889C24.7455 3.93517 23.8598 3.82675 22.9983 4.22382C21.8341 4.76063 21.4735 5.47488 21.2167 7.75362C21.1482 8.36162 21.0719 8.89187 21.0471 8.93206C20.9829 9.03632 20.5389 9.0205 19.5784 8.87981C19.1186 8.81246 18.4124 8.75589 18.009 8.75413C17.3898 8.75142 17.2073 8.78234 16.837 8.95243C16.3134 9.19299 15.7128 9.78661 15.4905 10.2835C15.2703 10.7755 15.2324 11.774 15.3912 12.9027C15.4608 13.3986 15.5179 13.9769 15.5179 14.1879V14.5714L14.3921 14.7106C12.0804 14.9963 11.2392 15.3803 10.7891 16.3554C10.652 16.6524 10.6236 16.8679 10.6256 17.5938C10.6283 18.541 10.6269 18.5356 11.2909 20.1372C11.4701 20.5693 11.6167 20.9909 11.6167 21.0739C11.6167 21.2508 11.4826 21.3255 10.2792 21.819C8.57647 22.5171 7.87807 23.1425 7.60052 24.2176C7.35013 25.1879 7.70673 26.0148 9.21891 27.9706C9.48674 28.3169 9.70585 28.643 9.70585 28.6952C9.70585 28.7474 9.39231 29.003 9.00919 29.2633C7.52719 30.2701 6.52115 31.4848 6.52115 32.2671V32.5739H3.74544H0.969741L0.595777 32.975C-0.0560509 33.6744 -0.155254 34.17 0.211464 34.8965C0.370699 35.2119 0.510268 35.3694 0.723086 35.4738C1.12778 35.6723 2.41639 35.7668 4.74218 35.7684L6.66541 35.7697L6.71828 36.1891C7.27091 40.5737 8.4838 44.4472 10.4125 47.9862C14.8095 56.0547 22.1782 61.832 31.0035 64.13C33.6525 64.8198 34.5898 64.9292 38.3283 64.9851C42.588 65.0487 43.7914 64.9329 46.7678 64.1729C49.373 63.5077 51.364 62.7629 53.6945 61.5815C57.6401 59.5813 60.8341 57.0437 63.8582 53.5061C66.3518 50.5892 68.4426 46.8251 69.7823 42.8403C70.4943 40.7228 70.9091 38.9184 71.2562 36.4288L71.3481 35.7697L73.2696 35.7684C75.5205 35.7669 76.8702 35.6723 77.218 35.4918C77.5587 35.315 77.9203 34.7846 77.982 34.3709C78.0547 33.885 77.9127 33.5253 77.446 33.0128L77.0462 32.5739H74.279H71.5119L71.3856 32.0603C71.1624 31.1527 70.6693 30.5528 69.2604 29.4745C68.7571 29.0893 68.335 28.72 68.3223 28.6537C68.3096 28.5875 68.654 28.0636 69.0876 27.4895C69.5213 26.9155 69.9699 26.2852 70.0845 26.0888C70.4711 25.427 70.492 24.2472 70.1299 23.5348C69.7827 22.8519 69.0984 22.3745 67.6245 21.787C66.987 21.5329 66.2343 21.1685 66.2343 21.114C66.2343 21.0962 66.4276 20.6366 66.6639 20.0929C67.5087 18.1493 67.6249 17.3578 67.1948 16.4753C66.9266 15.9249 66.7847 15.7446 66.388 15.4506C65.8393 15.0439 64.7921 14.7794 63.3456 14.6823C62.8297 14.6476 62.384 14.5956 62.3551 14.5667C62.3264 14.5378 62.3626 14.2004 62.4358 13.8169C62.7837 11.992 62.7761 10.9171 62.4099 10.158C62.1676 9.65582 61.4611 9.03624 60.9606 8.88708C60.3984 8.71954 59.2999 8.73384 58.1531 8.92367C57.6276 9.01059 57.1388 9.0825 57.0669 9.08338C56.9072 9.08545 56.8734 8.95355 56.7598 7.88665C56.5176 5.61102 56.1024 4.74202 55.0082 4.22063C54.6484 4.04918 54.4567 4.0121 53.9334 4.01306C53.2163 4.01426 52.9447 4.09248 51.3892 4.74577C50.1962 5.24679 50.2673 5.26596 49.9173 4.34846C48.9685 1.8612 48.1651 1.00689 46.7753 1.00689C45.8786 1.00689 45.3691 1.26447 43.675 2.57393C43.0059 3.09109 42.8729 3.16467 42.7666 3.07647C42.6981 3.01966 42.3531 2.59566 41.9999 2.13428C41.1612 1.03861 40.5329 0.409604 40.0731 0.205555C39.6532 0.0191623 38.6319 -0.0642471 38.2487 0.0565527ZM39.6852 4.4512C40.7981 5.94682 41.6321 6.59564 42.538 6.6705C43.2894 6.73258 44.3199 6.23899 45.6629 5.17392C46.0516 4.86561 46.4119 4.61291 46.4635 4.61219C46.5468 4.61115 46.7559 5.07941 46.9268 5.64961C47.0097 5.92629 47.5751 7.06054 47.7795 7.36014C48.2838 8.09948 48.8629 8.4483 49.6845 8.50774C50.3771 8.55783 51.1251 8.38518 52.3774 7.88633C53.0038 7.63674 53.388 7.52185 53.4204 7.57442C53.4486 7.6202 53.5155 8.0704 53.5693 8.57485C53.6733 9.55196 53.8838 10.4336 54.1274 10.9128C54.3157 11.2831 54.9585 11.8906 55.4149 12.1294C55.7246 12.2915 55.8705 12.3115 56.6911 12.304C57.2006 12.2994 58.0172 12.2338 58.5056 12.1583C58.9941 12.0828 59.4065 12.0346 59.4222 12.0511C59.4379 12.0676 59.4005 12.3327 59.3392 12.6403C59.1827 13.4253 59.1063 15.3559 59.216 15.7574C59.4407 16.5804 60.1167 17.2157 61.1251 17.5517C61.4023 17.644 62.1336 17.79 62.7504 17.8761C63.3671 17.9622 63.889 18.05 63.9103 18.0714C63.9316 18.0927 63.8761 18.2996 63.7872 18.531C63.6983 18.7625 63.4741 19.3466 63.289 19.829C62.5979 21.6299 62.8214 22.8196 64.0016 23.6233C64.6004 24.0311 65.5991 24.5235 66.2741 24.7439C66.5806 24.8439 66.8452 24.9377 66.862 24.9523C66.9092 24.9932 66.6522 25.3665 66.1525 25.9828C65.105 27.2749 64.7377 28.1216 64.8216 29.0507C64.9049 29.9724 65.5804 30.8367 67.0135 31.8548C67.4155 32.1405 67.745 32.3969 67.7457 32.4248C67.7471 32.4798 62.2615 32.6099 61.9349 32.5627L61.7359 32.5339L61.682 31.0959C61.5376 27.2436 60.2261 23.269 57.9911 19.9107C54.6456 14.8837 49.5997 11.4693 43.5831 10.1611C41.4712 9.70184 36.7025 9.67995 34.5967 10.1197C29.3589 11.2135 24.6293 14.0619 21.3478 18.0989C18.7168 21.3354 17.1844 24.8382 16.4658 29.2583C16.4158 29.5659 16.3522 30.4287 16.3246 31.1757L16.2743 32.5339L16.0752 32.5627C15.686 32.619 10.2659 32.4743 10.3063 32.4087C10.3289 32.372 10.6778 32.0925 11.0816 31.7877C12.5932 30.6465 13.1701 29.812 13.1655 28.7733C13.1615 27.8769 12.7489 27.1199 11.1969 25.1618C11.1526 25.1058 11.1361 25.0401 11.1603 25.0158C11.1846 24.9915 11.7005 24.7663 12.3069 24.5155C14.451 23.6286 15.0402 23.0049 15.0402 21.6225C15.0402 20.8401 14.9016 20.2695 14.436 19.135C14.2428 18.6644 14.0848 18.2277 14.0848 18.1645C14.0848 18.0807 14.2733 18.0236 14.7815 17.9534C16.4652 17.7206 17.1828 17.5124 17.8663 17.0581C18.2841 16.7804 18.6579 16.2563 18.7942 15.7574C18.8983 15.376 18.8283 13.6767 18.6689 12.7202C18.6103 12.3687 18.5731 12.069 18.5862 12.0542C18.5994 12.0395 18.9623 12.0887 19.3928 12.1635C20.3462 12.3292 22.1405 12.3578 22.4845 12.2127C23.5703 11.7551 24.145 10.6885 24.3942 8.66833C24.4605 8.1312 24.5147 7.66366 24.5147 7.62939C24.5147 7.50611 24.7803 7.57282 25.6553 7.91589C28.7603 9.13331 29.8928 8.64029 31.0909 5.54983C31.291 5.03347 31.4849 4.61099 31.5216 4.61099C31.5584 4.61099 31.7614 4.74425 31.9727 4.90716C32.1841 5.07006 32.5899 5.38133 32.8745 5.59904C33.1592 5.81667 33.6608 6.12378 33.9892 6.28157C34.5384 6.54538 34.6439 6.56831 35.3029 6.56783C35.9042 6.56736 36.077 6.5366 36.3777 6.37657C36.8747 6.11212 37.7544 5.19797 38.4056 4.26936C38.7067 3.83985 38.9775 3.51628 39.0071 3.55032C39.0368 3.58443 39.3419 3.98981 39.6852 4.4512ZM41.4443 13.1636C44.2546 13.4328 47.2709 14.5679 49.9378 16.3596C55.0868 19.8192 58.1236 25.2353 58.4804 31.5957L58.5353 32.5749L52.0637 32.5544L45.5921 32.5339L45.414 31.6551C44.8692 28.9672 43.4562 27.243 41.1313 26.4293C39.3101 25.7921 37.6793 25.94 35.8045 26.9124C35.0286 27.3147 33.9611 28.3294 33.5181 29.0854C33.1362 29.7372 32.7466 30.8202 32.5917 31.6601C32.5194 32.0528 32.447 32.4191 32.431 32.474C32.408 32.5529 31.0405 32.5739 25.9387 32.5739H19.4755L19.531 31.5731C19.8066 26.5942 21.7403 22.165 25.1106 18.7922C28.1231 15.7775 31.8465 13.9023 36.2981 13.1577C37.0667 13.0291 37.4838 13.0106 38.8966 13.0426C39.8222 13.0636 40.9687 13.118 41.4443 13.1636ZM40.2627 29.5722C40.8421 29.7656 41.5546 30.4363 41.8681 31.0832C42.0894 31.5398 42.2977 32.4389 42.2041 32.5329C42.1817 32.5554 40.7312 32.5739 38.9809 32.5739H35.7986L35.8386 32.073C35.8646 31.7484 35.9561 31.4187 36.0987 31.1365C36.3602 30.6186 37.1656 29.7902 37.6103 29.5817C38.2182 29.2966 39.4244 29.2922 40.2627 29.5722ZM13.2879 36.3089C13.3412 36.6055 13.5082 37.4162 13.6592 38.1104C15.5882 46.9837 22.1512 54.325 30.7557 57.2345C32.7652 57.914 34.9093 58.3583 37.0725 58.5432C39.3644 58.7392 39.9537 58.5817 40.4282 57.6464C40.7478 57.0164 40.7318 56.7601 40.336 56.171C39.9165 55.5466 39.5771 55.4212 38.0747 55.3351C35.7092 55.1996 34.0753 54.8927 31.9589 54.1863C29.8225 53.4733 28.2486 52.7152 26.5591 51.5854C22.5649 48.9144 19.6342 45.2858 17.8825 40.8429C17.1275 38.9279 16.425 36.1404 16.6338 35.888C16.7197 35.784 19.1141 35.7697 36.2947 35.7697C47.0543 35.7697 58.5969 35.7935 61.9449 35.8226L68.0323 35.8755L67.976 36.4037C67.8495 37.5916 67.3233 39.9026 66.8289 41.4421C64.6802 48.132 60.2361 53.8323 54.3015 57.5109C50.5455 59.839 46.4555 61.232 41.8713 61.7446C40.7102 61.8744 37.4964 61.875 36.2981 61.7456C32.3944 61.3241 29.6813 60.5426 26.1789 58.831C17.7091 54.6917 11.7852 46.7596 10.1867 37.4171C9.99995 36.3258 9.98244 35.8798 10.1238 35.8225C10.1786 35.8004 10.8911 35.7794 11.7072 35.776L13.191 35.7697L13.2879 36.3089Z"/>
</mask>
<path fill-rule="evenodd" clip-rule="evenodd" d="M38.2487 0.0565527C37.775 0.205875 37.1345 0.665665 36.7401 1.13952C36.5189 1.40524 36.0692 1.97065 35.7408 2.39585C35.4123 2.82105 35.123 3.16986 35.0978 3.1709C35.0726 3.17202 34.8397 3.00896 34.5803 2.8085C32.3368 1.07528 32.2999 1.05587 31.2424 1.05579C30.5232 1.05571 30.4112 1.07632 30.0852 1.2687C29.2949 1.73489 28.7596 2.52392 28.1416 4.13314C27.9816 4.54971 27.799 4.94303 27.7357 5.00711C27.5925 5.15227 27.3233 5.08109 26.3061 4.62889C24.7455 3.93517 23.8598 3.82675 22.9983 4.22382C21.8341 4.76063 21.4735 5.47488 21.2167 7.75362C21.1482 8.36162 21.0719 8.89187 21.0471 8.93206C20.9829 9.03632 20.5389 9.0205 19.5784 8.87981C19.1186 8.81246 18.4124 8.75589 18.009 8.75413C17.3898 8.75142 17.2073 8.78234 16.837 8.95243C16.3134 9.19299 15.7128 9.78661 15.4905 10.2835C15.2703 10.7755 15.2324 11.774 15.3912 12.9027C15.4608 13.3986 15.5179 13.9769 15.5179 14.1879V14.5714L14.3921 14.7106C12.0804 14.9963 11.2392 15.3803 10.7891 16.3554C10.652 16.6524 10.6236 16.8679 10.6256 17.5938C10.6283 18.541 10.6269 18.5356 11.2909 20.1372C11.4701 20.5693 11.6167 20.9909 11.6167 21.0739C11.6167 21.2508 11.4826 21.3255 10.2792 21.819C8.57647 22.5171 7.87807 23.1425 7.60052 24.2176C7.35013 25.1879 7.70673 26.0148 9.21891 27.9706C9.48674 28.3169 9.70585 28.643 9.70585 28.6952C9.70585 28.7474 9.39231 29.003 9.00919 29.2633C7.52719 30.2701 6.52115 31.4848 6.52115 32.2671V32.5739H3.74544H0.969741L0.595777 32.975C-0.0560509 33.6744 -0.155254 34.17 0.211464 34.8965C0.370699 35.2119 0.510268 35.3694 0.723086 35.4738C1.12778 35.6723 2.41639 35.7668 4.74218 35.7684L6.66541 35.7697L6.71828 36.1891C7.27091 40.5737 8.4838 44.4472 10.4125 47.9862C14.8095 56.0547 22.1782 61.832 31.0035 64.13C33.6525 64.8198 34.5898 64.9292 38.3283 64.9851C42.588 65.0487 43.7914 64.9329 46.7678 64.1729C49.373 63.5077 51.364 62.7629 53.6945 61.5815C57.6401 59.5813 60.8341 57.0437 63.8582 53.5061C66.3518 50.5892 68.4426 46.8251 69.7823 42.8403C70.4943 40.7228 70.9091 38.9184 71.2562 36.4288L71.3481 35.7697L73.2696 35.7684C75.5205 35.7669 76.8702 35.6723 77.218 35.4918C77.5587 35.315 77.9203 34.7846 77.982 34.3709C78.0547 33.885 77.9127 33.5253 77.446 33.0128L77.0462 32.5739H74.279H71.5119L71.3856 32.0603C71.1624 31.1527 70.6693 30.5528 69.2604 29.4745C68.7571 29.0893 68.335 28.72 68.3223 28.6537C68.3096 28.5875 68.654 28.0636 69.0876 27.4895C69.5213 26.9155 69.9699 26.2852 70.0845 26.0888C70.4711 25.427 70.492 24.2472 70.1299 23.5348C69.7827 22.8519 69.0984 22.3745 67.6245 21.787C66.987 21.5329 66.2343 21.1685 66.2343 21.114C66.2343 21.0962 66.4276 20.6366 66.6639 20.0929C67.5087 18.1493 67.6249 17.3578 67.1948 16.4753C66.9266 15.9249 66.7847 15.7446 66.388 15.4506C65.8393 15.0439 64.7921 14.7794 63.3456 14.6823C62.8297 14.6476 62.384 14.5956 62.3551 14.5667C62.3264 14.5378 62.3626 14.2004 62.4358 13.8169C62.7837 11.992 62.7761 10.9171 62.4099 10.158C62.1676 9.65582 61.4611 9.03624 60.9606 8.88708C60.3984 8.71954 59.2999 8.73384 58.1531 8.92367C57.6276 9.01059 57.1388 9.0825 57.0669 9.08338C56.9072 9.08545 56.8734 8.95355 56.7598 7.88665C56.5176 5.61102 56.1024 4.74202 55.0082 4.22063C54.6484 4.04918 54.4567 4.0121 53.9334 4.01306C53.2163 4.01426 52.9447 4.09248 51.3892 4.74577C50.1962 5.24679 50.2673 5.26596 49.9173 4.34846C48.9685 1.8612 48.1651 1.00689 46.7753 1.00689C45.8786 1.00689 45.3691 1.26447 43.675 2.57393C43.0059 3.09109 42.8729 3.16467 42.7666 3.07647C42.6981 3.01966 42.3531 2.59566 41.9999 2.13428C41.1612 1.03861 40.5329 0.409604 40.0731 0.205555C39.6532 0.0191623 38.6319 -0.0642471 38.2487 0.0565527ZM39.6852 4.4512C40.7981 5.94682 41.6321 6.59564 42.538 6.6705C43.2894 6.73258 44.3199 6.23899 45.6629 5.17392C46.0516 4.86561 46.4119 4.61291 46.4635 4.61219C46.5468 4.61115 46.7559 5.07941 46.9268 5.64961C47.0097 5.92629 47.5751 7.06054 47.7795 7.36014C48.2838 8.09948 48.8629 8.4483 49.6845 8.50774C50.3771 8.55783 51.1251 8.38518 52.3774 7.88633C53.0038 7.63674 53.388 7.52185 53.4204 7.57442C53.4486 7.6202 53.5155 8.0704 53.5693 8.57485C53.6733 9.55196 53.8838 10.4336 54.1274 10.9128C54.3157 11.2831 54.9585 11.8906 55.4149 12.1294C55.7246 12.2915 55.8705 12.3115 56.6911 12.304C57.2006 12.2994 58.0172 12.2338 58.5056 12.1583C58.9941 12.0828 59.4065 12.0346 59.4222 12.0511C59.4379 12.0676 59.4005 12.3327 59.3392 12.6403C59.1827 13.4253 59.1063 15.3559 59.216 15.7574C59.4407 16.5804 60.1167 17.2157 61.1251 17.5517C61.4023 17.644 62.1336 17.79 62.7504 17.8761C63.3671 17.9622 63.889 18.05 63.9103 18.0714C63.9316 18.0927 63.8761 18.2996 63.7872 18.531C63.6983 18.7625 63.4741 19.3466 63.289 19.829C62.5979 21.6299 62.8214 22.8196 64.0016 23.6233C64.6004 24.0311 65.5991 24.5235 66.2741 24.7439C66.5806 24.8439 66.8452 24.9377 66.862 24.9523C66.9092 24.9932 66.6522 25.3665 66.1525 25.9828C65.105 27.2749 64.7377 28.1216 64.8216 29.0507C64.9049 29.9724 65.5804 30.8367 67.0135 31.8548C67.4155 32.1405 67.745 32.3969 67.7457 32.4248C67.7471 32.4798 62.2615 32.6099 61.9349 32.5627L61.7359 32.5339L61.682 31.0959C61.5376 27.2436 60.2261 23.269 57.9911 19.9107C54.6456 14.8837 49.5997 11.4693 43.5831 10.1611C41.4712 9.70184 36.7025 9.67995 34.5967 10.1197C29.3589 11.2135 24.6293 14.0619 21.3478 18.0989C18.7168 21.3354 17.1844 24.8382 16.4658 29.2583C16.4158 29.5659 16.3522 30.4287 16.3246 31.1757L16.2743 32.5339L16.0752 32.5627C15.686 32.619 10.2659 32.4743 10.3063 32.4087C10.3289 32.372 10.6778 32.0925 11.0816 31.7877C12.5932 30.6465 13.1701 29.812 13.1655 28.7733C13.1615 27.8769 12.7489 27.1199 11.1969 25.1618C11.1526 25.1058 11.1361 25.0401 11.1603 25.0158C11.1846 24.9915 11.7005 24.7663 12.3069 24.5155C14.451 23.6286 15.0402 23.0049 15.0402 21.6225C15.0402 20.8401 14.9016 20.2695 14.436 19.135C14.2428 18.6644 14.0848 18.2277 14.0848 18.1645C14.0848 18.0807 14.2733 18.0236 14.7815 17.9534C16.4652 17.7206 17.1828 17.5124 17.8663 17.0581C18.2841 16.7804 18.6579 16.2563 18.7942 15.7574C18.8983 15.376 18.8283 13.6767 18.6689 12.7202C18.6103 12.3687 18.5731 12.069 18.5862 12.0542C18.5994 12.0395 18.9623 12.0887 19.3928 12.1635C20.3462 12.3292 22.1405 12.3578 22.4845 12.2127C23.5703 11.7551 24.145 10.6885 24.3942 8.66833C24.4605 8.1312 24.5147 7.66366 24.5147 7.62939C24.5147 7.50611 24.7803 7.57282 25.6553 7.91589C28.7603 9.13331 29.8928 8.64029 31.0909 5.54983C31.291 5.03347 31.4849 4.61099 31.5216 4.61099C31.5584 4.61099 31.7614 4.74425 31.9727 4.90716C32.1841 5.07006 32.5899 5.38133 32.8745 5.59904C33.1592 5.81667 33.6608 6.12378 33.9892 6.28157C34.5384 6.54538 34.6439 6.56831 35.3029 6.56783C35.9042 6.56736 36.077 6.5366 36.3777 6.37657C36.8747 6.11212 37.7544 5.19797 38.4056 4.26936C38.7067 3.83985 38.9775 3.51628 39.0071 3.55032C39.0368 3.58443 39.3419 3.98981 39.6852 4.4512ZM41.4443 13.1636C44.2546 13.4328 47.2709 14.5679 49.9378 16.3596C55.0868 19.8192 58.1236 25.2353 58.4804 31.5957L58.5353 32.5749L52.0637 32.5544L45.5921 32.5339L45.414 31.6551C44.8692 28.9672 43.4562 27.243 41.1313 26.4293C39.3101 25.7921 37.6793 25.94 35.8045 26.9124C35.0286 27.3147 33.9611 28.3294 33.5181 29.0854C33.1362 29.7372 32.7466 30.8202 32.5917 31.6601C32.5194 32.0528 32.447 32.4191 32.431 32.474C32.408 32.5529 31.0405 32.5739 25.9387 32.5739H19.4755L19.531 31.5731C19.8066 26.5942 21.7403 22.165 25.1106 18.7922C28.1231 15.7775 31.8465 13.9023 36.2981 13.1577C37.0667 13.0291 37.4838 13.0106 38.8966 13.0426C39.8222 13.0636 40.9687 13.118 41.4443 13.1636ZM40.2627 29.5722C40.8421 29.7656 41.5546 30.4363 41.8681 31.0832C42.0894 31.5398 42.2977 32.4389 42.2041 32.5329C42.1817 32.5554 40.7312 32.5739 38.9809 32.5739H35.7986L35.8386 32.073C35.8646 31.7484 35.9561 31.4187 36.0987 31.1365C36.3602 30.6186 37.1656 29.7902 37.6103 29.5817C38.2182 29.2966 39.4244 29.2922 40.2627 29.5722ZM13.2879 36.3089C13.3412 36.6055 13.5082 37.4162 13.6592 38.1104C15.5882 46.9837 22.1512 54.325 30.7557 57.2345C32.7652 57.914 34.9093 58.3583 37.0725 58.5432C39.3644 58.7392 39.9537 58.5817 40.4282 57.6464C40.7478 57.0164 40.7318 56.7601 40.336 56.171C39.9165 55.5466 39.5771 55.4212 38.0747 55.3351C35.7092 55.1996 34.0753 54.8927 31.9589 54.1863C29.8225 53.4733 28.2486 52.7152 26.5591 51.5854C22.5649 48.9144 19.6342 45.2858 17.8825 40.8429C17.1275 38.9279 16.425 36.1404 16.6338 35.888C16.7197 35.784 19.1141 35.7697 36.2947 35.7697C47.0543 35.7697 58.5969 35.7935 61.9449 35.8226L68.0323 35.8755L67.976 36.4037C67.8495 37.5916 67.3233 39.9026 66.8289 41.4421C64.6802 48.132 60.2361 53.8323 54.3015 57.5109C50.5455 59.839 46.4555 61.232 41.8713 61.7446C40.7102 61.8744 37.4964 61.875 36.2981 61.7456C32.3944 61.3241 29.6813 60.5426 26.1789 58.831C17.7091 54.6917 11.7852 46.7596 10.1867 37.4171C9.99995 36.3258 9.98244 35.8798 10.1238 35.8225C10.1786 35.8004 10.8911 35.7794 11.7072 35.776L13.191 35.7697L13.2879 36.3089Z" fill="#D60000" stroke="white" stroke-width="0.6" mask="url(#path-1-inside-1_115_371)"/>
<line x1="77" y1="71" x2="2" y2="71" stroke="#D60000" stroke-width="2"/>
</svg>
