<svg width="66" height="72" viewBox="0 0 66 72" fill="none" xmlns="http://www.w3.org/2000/svg">
<path d="M64.0596 71.3398H2.09961C1.26961 71.3398 0.599609 70.6698 0.599609 69.8398C0.599609 69.0098 1.26961 68.3398 2.09961 68.3398H64.0596C64.8896 68.3398 65.5596 69.0098 65.5596 69.8398C65.5596 70.6698 64.8896 71.3398 64.0596 71.3398Z" fill="#D60000"/>
<path d="M31.3697 61.1797C31.1797 61.1797 30.9897 61.1397 30.8097 61.0697L10.6197 52.8597C10.0497 52.6297 9.67969 52.0797 9.67969 51.4697V26.1297C9.67969 25.2997 10.3497 24.6297 11.1797 24.6297H19.7697V19.4597H11.1797C10.3497 19.4597 9.67969 18.7897 9.67969 17.9597V9.76973C9.67969 9.28973 9.90971 8.83973 10.2997 8.54973L20.3897 1.24973C20.6497 1.06973 20.9497 0.969727 21.2697 0.969727H41.4597C41.7797 0.969727 42.0797 1.06973 42.3397 1.24973L52.4297 8.54973C52.8197 8.82973 53.0497 9.27973 53.0497 9.76973V17.9597C53.0497 18.7897 52.3797 19.4597 51.5497 19.4597H42.9597V24.6297H51.5497C52.3797 24.6297 53.0497 25.2997 53.0497 26.1297V51.4697C53.0497 52.0797 52.6797 52.6297 52.1097 52.8597L31.9197 61.0697C31.7397 61.1397 31.5497 61.1797 31.3597 61.1797H31.3697ZM12.6797 50.4697L31.3697 58.0697L50.0597 50.4697V27.6397H41.4697C40.6397 27.6397 39.9697 26.9697 39.9697 26.1397V17.9697C39.9697 17.1397 40.6397 16.4697 41.4697 16.4697H50.0597V10.5497L40.9797 3.98973H21.7597L12.6797 10.5497V16.4697H21.2697C22.0997 16.4697 22.7697 17.1397 22.7697 17.9697V26.1397C22.7697 26.9697 22.0997 27.6397 21.2697 27.6397H12.6797V50.4697Z" fill="#D60000"/>
<path d="M31.3693 57.3001C24.8393 57.3001 19.5293 51.9901 19.5293 45.4601C19.5293 38.9301 24.8393 33.6201 31.3693 33.6201C37.8993 33.6201 43.2093 38.9301 43.2093 45.4601C43.2093 51.9901 37.8993 57.3001 31.3693 57.3001ZM31.3693 36.6201C26.4893 36.6201 22.5293 40.5901 22.5293 45.4601C22.5293 50.3301 26.4993 54.3001 31.3693 54.3001C36.2393 54.3001 40.2093 50.3301 40.2093 45.4601C40.2093 40.5901 36.2393 36.6201 31.3693 36.6201Z" fill="#D60000"/>
<path d="M31.3703 49.7602C29.0003 49.7602 27.0703 47.8302 27.0703 45.4602C27.0703 43.0902 29.0003 41.1602 31.3703 41.1602C33.7403 41.1602 35.6703 43.0902 35.6703 45.4602C35.6703 47.8302 33.7403 49.7602 31.3703 49.7602ZM31.3703 44.1702C30.6603 44.1702 30.0703 44.7502 30.0703 45.4702C30.0703 46.1902 30.6503 46.7702 31.3703 46.7702C32.0903 46.7702 32.6703 46.1902 32.6703 45.4702C32.6703 44.7502 32.0903 44.1702 31.3703 44.1702Z" fill="#D60000"/>
<path d="M31.3696 65.9399C26.6696 65.9399 22.8496 62.1199 22.8496 57.4199C22.8496 56.5899 23.5196 55.9199 24.3496 55.9199C25.1796 55.9199 25.8496 56.5899 25.8496 57.4199C25.8496 60.4599 28.3196 62.9399 31.3696 62.9399C34.4196 62.9399 36.8896 60.4699 36.8896 57.4199C36.8896 56.5899 37.5596 55.9199 38.3896 55.9199C39.2196 55.9199 39.8896 56.5899 39.8896 57.4199C39.8896 62.1199 36.0696 65.9399 31.3696 65.9399Z" fill="#D60000"/>
</svg>
