<svg width="78" height="69" viewBox="0 0 78 69" fill="none" xmlns="http://www.w3.org/2000/svg">
<path d="M39.0108 68.6799C38.6108 68.6799 38.2308 68.5199 37.9508 68.2399L27.5408 57.8299H7.90079C3.57079 57.8299 0.0507812 54.3099 0.0507812 49.9799V8.47989C0.0507812 4.14989 3.57079 0.629883 7.90079 0.629883H70.1308C74.4608 0.629883 77.9808 4.14989 77.9808 8.47989V49.9799C77.9808 54.3099 74.4608 57.8299 70.1308 57.8299H50.4908L40.0808 68.2399C39.8008 68.5199 39.4208 68.6799 39.0208 68.6799H39.0108ZM7.89081 3.61989C5.21081 3.61989 3.0408 5.79988 3.0408 8.46988V49.9699C3.0408 52.6499 5.22081 54.8199 7.89081 54.8199H28.1508C28.5508 54.8199 28.9308 54.9799 29.2108 55.2599L39.0008 65.0499L48.7908 55.2599C49.0708 54.9799 49.4508 54.8199 49.8508 54.8199H70.1108C72.7908 54.8199 74.9608 52.6399 74.9608 49.9699V8.46988C74.9608 5.78988 72.7808 3.61989 70.1108 3.61989H7.8808H7.89081Z" fill="#D60000"/>
<path d="M54.2591 43.1505H23.5791C22.9891 43.1505 22.4591 42.8105 22.2091 42.2705C21.9691 41.7305 22.0591 41.1105 22.4391 40.6605L26.4091 36.1005C27.2791 35.1005 27.7591 33.8305 27.7591 32.5105V23.6705C27.7591 17.5205 32.7591 12.5205 38.9091 12.5205C45.0591 12.5205 50.0591 17.5205 50.0591 23.6705V32.5105C50.0591 33.8305 50.5391 35.1105 51.4091 36.1005L55.3791 40.6605C55.7691 41.1005 55.8591 41.7305 55.6191 42.2705C55.3791 42.8105 54.8391 43.1505 54.2491 43.1505H54.2591ZM26.8691 40.1505H50.9591L49.1491 38.0805C47.7991 36.5405 47.0591 34.5605 47.0591 32.5105V23.6705C47.0591 19.1805 43.3991 15.5205 38.9091 15.5205C34.4191 15.5205 30.7591 19.1805 30.7591 23.6705V32.5105C30.7591 34.5605 30.0191 36.5305 28.6691 38.0805L26.8591 40.1505H26.8691Z" fill="#D60000"/>
<path d="M38.9091 49.8797C36.2291 49.8797 34.0391 47.6997 34.0391 45.0097V41.6396C34.0391 40.8096 34.7091 40.1396 35.5391 40.1396C36.3691 40.1396 37.0391 40.8096 37.0391 41.6396V45.0097C37.0391 46.0397 37.8791 46.8797 38.9091 46.8797C39.9391 46.8797 40.7791 46.0397 40.7791 45.0097V41.6396C40.7791 40.8096 41.4491 40.1396 42.2791 40.1396C43.1091 40.1396 43.7791 40.8096 43.7791 41.6396V45.0097C43.7791 47.6897 41.5991 49.8797 38.9091 49.8797Z" fill="#D60000"/>
</svg>
