<svg width="78" height="79" viewBox="0 0 78 79" fill="none" xmlns="http://www.w3.org/2000/svg">
<path d="M76.4403 78.0604H2.32031C1.49031 78.0604 0.820312 77.3904 0.820312 76.5604V2.44043C0.820312 1.61043 1.49031 0.94043 2.32031 0.94043H76.4403C77.2703 0.94043 77.9403 1.61043 77.9403 2.44043V76.5604C77.9403 77.3904 77.2703 78.0604 76.4403 78.0604ZM3.82031 75.0604H74.9403V3.94043H3.82031V75.0604Z" fill="#D60000"/>
<path d="M69.5898 10.7701C69.3898 10.7701 69.1999 10.7301 69.0099 10.6601C68.8299 10.5801 68.6698 10.4801 68.5298 10.3301C68.2498 10.0501 68.0898 9.67012 68.0898 9.28012C68.0898 9.18012 68.0898 9.08012 68.1198 8.98012C68.1398 8.89012 68.1699 8.79012 68.1999 8.70012C68.2399 8.61012 68.2898 8.52012 68.3398 8.44012C68.3998 8.36012 68.4598 8.28012 68.5298 8.21011C68.8798 7.87011 69.3999 7.71012 69.8799 7.80012C69.9799 7.82012 70.0699 7.85012 70.1599 7.89012C70.2499 7.93012 70.3399 7.97012 70.4199 8.03012C70.4999 8.08012 70.5798 8.14011 70.6498 8.21011C70.7198 8.28012 70.7798 8.36012 70.8398 8.44012C70.8898 8.52012 70.9398 8.61012 70.9698 8.70012C71.0098 8.79012 71.0398 8.89012 71.0598 8.98012C71.0798 9.08012 71.0898 9.18012 71.0898 9.28012C71.0898 9.67012 70.9298 10.0501 70.6498 10.3301C70.5098 10.4801 70.3399 10.5801 70.1599 10.6601C69.9799 10.7301 69.7898 10.7701 69.5898 10.7701Z" fill="#D60000"/>
<path d="M60.5412 9.27051C60.5412 8.45051 61.2112 7.77051 62.0412 7.77051C62.8612 7.77051 63.5312 8.45051 63.5312 9.27051C63.5312 10.1005 62.8612 10.7805 62.0412 10.7805C61.2112 10.7805 60.5412 10.1005 60.5412 9.27051ZM52.9812 9.27051C52.9812 8.45051 53.6512 7.77051 54.4812 7.77051C55.3112 7.77051 55.9812 8.45051 55.9812 9.27051C55.9812 10.1005 55.3112 10.7805 54.4812 10.7805C53.6512 10.7805 52.9812 10.1005 52.9812 9.27051ZM45.4212 9.27051C45.4212 8.45051 46.1012 7.77051 46.9212 7.77051C47.7512 7.77051 48.4312 8.45051 48.4312 9.27051C48.4312 10.1005 47.7512 10.7805 46.9212 10.7805C46.1012 10.7805 45.4212 10.1005 45.4212 9.27051ZM37.8712 9.27051C37.8712 8.45051 38.5412 7.77051 39.3712 7.77051C40.2012 7.77051 40.8712 8.45051 40.8712 9.27051C40.8712 10.1005 40.2012 10.7805 39.3712 10.7805C38.5412 10.7805 37.8712 10.1005 37.8712 9.27051ZM30.3112 9.27051C30.3112 8.45051 30.9912 7.77051 31.8212 7.77051C32.6412 7.77051 33.3212 8.45051 33.3212 9.27051C33.3212 10.1005 32.6412 10.7805 31.8212 10.7805C30.9912 10.7805 30.3112 10.1005 30.3112 9.27051ZM22.7612 9.27051C22.7612 8.45051 23.4312 7.77051 24.2612 7.77051C25.0912 7.77051 25.7612 8.45051 25.7612 9.27051C25.7612 10.1005 25.0912 10.7805 24.2612 10.7805C23.4312 10.7805 22.7612 10.1005 22.7612 9.27051ZM15.2012 9.27051C15.2012 8.45051 15.8812 7.77051 16.7012 7.77051C17.5312 7.77051 18.2012 8.45051 18.2012 9.27051C18.2012 10.1005 17.5312 10.7805 16.7012 10.7805C15.8812 10.7805 15.2012 10.1005 15.2012 9.27051Z" fill="#D60000"/>
<path d="M9.15039 10.7701C8.75039 10.7701 8.37039 10.6201 8.09039 10.3301C7.80039 10.0501 7.65039 9.67012 7.65039 9.28012C7.65039 9.18012 7.65039 9.08012 7.68039 8.98012C7.70039 8.89012 7.73041 8.79012 7.76041 8.70012C7.80041 8.61012 7.85039 8.52012 7.90039 8.44012C7.96039 8.36012 8.02039 8.28012 8.09039 8.21011C8.44039 7.87011 8.9504 7.71012 9.4404 7.80012C9.5404 7.82012 9.6304 7.85012 9.7204 7.89012C9.8104 7.93012 9.90041 7.97012 9.98041 8.03012C10.0604 8.08012 10.1404 8.14011 10.2104 8.21011C10.2804 8.28012 10.3404 8.36012 10.4004 8.44012C10.4504 8.52012 10.5004 8.61012 10.5304 8.70012C10.5704 8.79012 10.6004 8.89012 10.6204 8.98012C10.6404 9.08012 10.6504 9.18012 10.6504 9.28012C10.6504 9.67012 10.4904 10.0501 10.2104 10.3301C9.93039 10.6101 9.55039 10.7701 9.15039 10.7701Z" fill="#D60000"/>
<path d="M7.65039 62.1601C7.65039 61.3301 8.32039 60.6601 9.15039 60.6601C9.98039 60.6601 10.6504 61.3301 10.6504 62.1601C10.6504 62.9901 9.98039 63.6601 9.15039 63.6601C8.32039 63.6601 7.65039 62.9901 7.65039 62.1601ZM7.65039 54.6001C7.65039 53.7801 8.32039 53.1101 9.15039 53.1101C9.98039 53.1101 10.6504 53.7801 10.6504 54.6001C10.6504 55.4301 9.98039 56.1001 9.15039 56.1001C8.32039 56.1001 7.65039 55.4301 7.65039 54.6001ZM7.65039 47.0501C7.65039 46.2201 8.32039 45.5501 9.15039 45.5501C9.98039 45.5501 10.6504 46.2201 10.6504 47.0501C10.6504 47.8801 9.98039 48.5501 9.15039 48.5501C8.32039 48.5501 7.65039 47.8801 7.65039 47.0501ZM7.65039 39.4901C7.65039 38.6601 8.32039 38.0001 9.15039 38.0001C9.98039 38.0001 10.6504 38.6601 10.6504 39.4901C10.6504 40.3201 9.98039 40.9901 9.15039 40.9901C8.32039 40.9901 7.65039 40.3201 7.65039 39.4901ZM7.65039 31.9401C7.65039 31.1101 8.32039 30.4401 9.15039 30.4401C9.98039 30.4401 10.6504 31.1101 10.6504 31.9401C10.6504 32.7701 9.98039 33.4401 9.15039 33.4401C8.32039 33.4401 7.65039 32.7701 7.65039 31.9401ZM7.65039 24.3801C7.65039 23.5501 8.32039 22.8801 9.15039 22.8801C9.98039 22.8801 10.6504 23.5501 10.6504 24.3801C10.6504 25.2101 9.98039 25.8801 9.15039 25.8801C8.32039 25.8801 7.65039 25.2101 7.65039 24.3801ZM7.65039 16.8301C7.65039 16.0001 8.32039 15.3301 9.15039 15.3301C9.98039 15.3301 10.6504 16.0001 10.6504 16.8301C10.6504 17.6601 9.98039 18.3301 9.15039 18.3301C8.32039 18.3301 7.65039 17.6601 7.65039 16.8301Z" fill="#D60000"/>
<path d="M9.15039 71.2202C8.95039 71.2202 8.7504 71.1902 8.5704 71.1102C8.3904 71.0402 8.23039 70.9302 8.09039 70.7902C7.95039 70.6402 7.84041 70.4803 7.76041 70.3003C7.69041 70.1203 7.65039 69.9202 7.65039 69.7202C7.65039 69.6302 7.65039 69.5302 7.68039 69.4302C7.70039 69.3402 7.73041 69.2402 7.76041 69.1502C7.80041 69.0602 7.85039 68.9702 7.90039 68.8902C7.96039 68.8102 8.02039 68.7302 8.09039 68.6702C8.16039 68.5902 8.23039 68.5303 8.31039 68.4803C8.40039 68.4203 8.4804 68.3802 8.5704 68.3402C8.6604 68.3002 8.76041 68.2702 8.86041 68.2502C9.35041 68.1602 9.86039 68.3202 10.2104 68.6702C10.2804 68.7302 10.3404 68.8102 10.4004 68.8902C10.4504 68.9702 10.5004 69.0602 10.5304 69.1502C10.5704 69.2402 10.6004 69.3402 10.6204 69.4302C10.6404 69.5302 10.6504 69.6302 10.6504 69.7202C10.6504 69.9202 10.6104 70.1203 10.5304 70.3003C10.4604 70.4803 10.3504 70.6402 10.2104 70.7902C10.0704 70.9302 9.9004 71.0402 9.7204 71.1102C9.5404 71.1902 9.35039 71.2202 9.15039 71.2202Z" fill="#D60000"/>
<path d="M60.5312 69.7305C60.5312 68.9005 61.2112 68.2305 62.0312 68.2305C62.8612 68.2305 63.5312 68.9005 63.5312 69.7305C63.5312 70.5505 62.8612 71.2305 62.0312 71.2305C61.2112 71.2305 60.5312 70.5505 60.5312 69.7305ZM52.9812 69.7305C52.9812 68.9005 53.6512 68.2305 54.4812 68.2305C55.3112 68.2305 55.9812 68.9005 55.9812 69.7305C55.9812 70.5505 55.3112 71.2305 54.4812 71.2305C53.6512 71.2305 52.9812 70.5505 52.9812 69.7305ZM45.4212 69.7305C45.4212 68.9005 46.1012 68.2305 46.9212 68.2305C47.7512 68.2305 48.4212 68.9005 48.4212 69.7305C48.4212 70.5505 47.7512 71.2305 46.9212 71.2305C46.1012 71.2305 45.4212 70.5505 45.4212 69.7305ZM37.8712 69.7305C37.8712 68.9005 38.5412 68.2305 39.3712 68.2305C40.2012 68.2305 40.8712 68.9005 40.8712 69.7305C40.8712 70.5505 40.2012 71.2305 39.3712 71.2305C38.5412 71.2305 37.8712 70.5505 37.8712 69.7305ZM30.3112 69.7305C30.3112 68.9005 30.9812 68.2305 31.8112 68.2305C32.6412 68.2305 33.3112 68.9005 33.3112 69.7305C33.3112 70.5505 32.6412 71.2305 31.8112 71.2305C30.9812 71.2305 30.3112 70.5505 30.3112 69.7305ZM22.7612 69.7305C22.7612 68.9005 23.4312 68.2305 24.2612 68.2305C25.0912 68.2305 25.7612 68.9005 25.7612 69.7305C25.7612 70.5505 25.0912 71.2305 24.2612 71.2305C23.4312 71.2305 22.7612 70.5505 22.7612 69.7305ZM15.2012 69.7305C15.2012 68.9005 15.8812 68.2305 16.7012 68.2305C17.5312 68.2305 18.2012 68.9005 18.2012 69.7305C18.2012 70.5505 17.5312 71.2305 16.7012 71.2305C15.8812 71.2305 15.2012 70.5505 15.2012 69.7305Z" fill="#D60000"/>
<path d="M69.5898 71.2202C69.3898 71.2202 69.1999 71.1902 69.0199 71.1102C68.8299 71.0402 68.6698 70.9302 68.5298 70.7902C68.3898 70.6402 68.2799 70.4803 68.1999 70.3003C68.1299 70.1203 68.0898 69.9202 68.0898 69.7202C68.0898 69.6302 68.0898 69.5302 68.1198 69.4302C68.1398 69.3402 68.1699 69.2402 68.1999 69.1502C68.2399 69.0602 68.2898 68.9702 68.3398 68.8902C68.3998 68.8102 68.4598 68.7302 68.5298 68.6702C68.5998 68.5902 68.6799 68.5303 68.7599 68.4803C68.8399 68.4203 68.9299 68.3802 69.0199 68.3402C69.1099 68.3002 69.1999 68.2702 69.2999 68.2502C69.7799 68.1602 70.2998 68.3202 70.6498 68.6702C70.7198 68.7302 70.7798 68.8102 70.8398 68.8902C70.8898 68.9702 70.9398 69.0602 70.9698 69.1502C71.0098 69.2402 71.0398 69.3402 71.0598 69.4302C71.0798 69.5302 71.0898 69.6302 71.0898 69.7202C71.0898 69.9202 71.0499 70.1203 70.9799 70.3003C70.8999 70.4803 70.7898 70.6402 70.6498 70.7902C70.5098 70.9302 70.3399 71.0402 70.1599 71.1102C69.9799 71.1902 69.7898 71.2202 69.5898 71.2202Z" fill="#D60000"/>
<path d="M68.0898 62.1601C68.0898 61.3301 68.7598 60.6601 69.5898 60.6601C70.4198 60.6601 71.0898 61.3301 71.0898 62.1601C71.0898 62.9901 70.4198 63.6601 69.5898 63.6601C68.7598 63.6601 68.0898 62.9901 68.0898 62.1601ZM68.0898 54.6001C68.0898 53.7801 68.7598 53.1001 69.5898 53.1001C70.4198 53.1001 71.0898 53.7801 71.0898 54.6001C71.0898 55.4301 70.4198 56.1101 69.5898 56.1101C68.7598 56.1101 68.0898 55.4301 68.0898 54.6001ZM68.0898 47.0501C68.0898 46.2201 68.7598 45.5501 69.5898 45.5501C70.4198 45.5501 71.0898 46.2201 71.0898 47.0501C71.0898 47.8801 70.4198 48.5501 69.5898 48.5501C68.7598 48.5501 68.0898 47.8801 68.0898 47.0501ZM68.0898 39.4901C68.0898 38.6701 68.7598 37.9901 69.5898 37.9901C70.4198 37.9901 71.0898 38.6701 71.0898 39.4901C71.0898 40.3201 70.4198 40.9901 69.5898 40.9901C68.7598 40.9901 68.0898 40.3201 68.0898 39.4901ZM68.0898 31.9401C68.0898 31.1101 68.7598 30.4401 69.5898 30.4401C70.4198 30.4401 71.0898 31.1101 71.0898 31.9401C71.0898 32.7701 70.4198 33.4401 69.5898 33.4401C68.7598 33.4401 68.0898 32.7701 68.0898 31.9401ZM68.0898 24.3801C68.0898 23.5601 68.7598 22.8801 69.5898 22.8801C70.4198 22.8801 71.0898 23.5601 71.0898 24.3801C71.0898 25.2101 70.4198 25.8801 69.5898 25.8801C68.7598 25.8801 68.0898 25.2101 68.0898 24.3801ZM68.0898 16.8301C68.0898 16.0001 68.7598 15.3301 69.5898 15.3301C70.4198 15.3301 71.0898 16.0001 71.0898 16.8301C71.0898 17.6601 70.4198 18.3301 69.5898 18.3301C68.7598 18.3301 68.0898 17.6601 68.0898 16.8301Z" fill="#D60000"/>
<path d="M63.1991 64.8299H15.5391C14.7091 64.8299 14.0391 64.1599 14.0391 63.3299V15.6699C14.0391 14.8399 14.7091 14.1699 15.5391 14.1699H63.1991C64.0291 14.1699 64.6991 14.8399 64.6991 15.6699V63.3299C64.6991 64.1599 64.0291 64.8299 63.1991 64.8299ZM17.0391 61.8299H61.6991V17.1699H17.0391V61.8299Z" fill="#D60000"/>
<path d="M16.7095 36.3005C16.3295 36.3005 15.9395 36.1505 15.6495 35.8605C15.0595 35.2705 15.0595 34.3205 15.6495 33.7405L34.7795 14.6105C35.3695 14.0205 36.3195 14.0205 36.8995 14.6105C37.4795 15.2005 37.4895 16.1505 36.8995 16.7305L17.7696 35.8605C17.4796 36.1505 17.0895 36.3005 16.7095 36.3005Z" fill="#D60000"/>
<path d="M34.1099 32.7805C33.7299 32.7805 33.3399 32.6305 33.0499 32.3405C32.4599 31.7505 32.4599 30.8005 33.0499 30.2205L48.6599 14.6105C49.2499 14.0205 50.1999 14.0205 50.7799 14.6105C51.3599 15.2005 51.3699 16.1505 50.7799 16.7305L35.1699 32.3405C34.8799 32.6305 34.4899 32.7805 34.1099 32.7805Z" fill="#D60000"/>
<path d="M18.7505 64.6101C18.3705 64.6101 17.9805 64.4601 17.6905 64.1701C17.1005 63.5801 17.1005 62.6301 17.6905 62.0501L55.0305 24.7101C55.6205 24.1201 56.5705 24.1201 57.1505 24.7101C57.7305 25.3001 57.7405 26.2501 57.1505 26.8301L19.8105 64.1701C19.5205 64.4601 19.1305 64.6101 18.7505 64.6101Z" fill="#D60000"/>
<path d="M48.1002 55.3098C47.7202 55.3098 47.3302 55.1598 47.0402 54.8698C46.4502 54.2798 46.4502 53.3298 47.0402 52.7498L62.1501 37.6398C62.7401 37.0498 63.6902 37.0498 64.2702 37.6398C64.8502 38.2298 64.8602 39.1798 64.2702 39.7598L49.1602 54.8698C48.8702 55.1598 48.4802 55.3098 48.1002 55.3098Z" fill="#D60000"/>
</svg>
