<svg width="44" height="85" viewBox="0 0 44 85" fill="none" xmlns="http://www.w3.org/2000/svg">
<path d="M29.0096 84.0798H6.26961C3.27961 84.0798 0.849609 81.6498 0.849609 78.6598V44.8398C0.849609 35.5898 8.37961 28.0498 17.6296 28.0498C26.8796 28.0498 34.4196 35.5798 34.4196 44.8398V78.6598C34.4196 81.6498 31.9896 84.0798 28.9996 84.0798H29.0096ZM17.6396 31.0598C10.0396 31.0598 3.8596 37.2398 3.8596 44.8498V78.6698C3.8596 79.9998 4.9396 81.0898 6.2796 81.0898H29.0196C30.3496 81.0898 31.4396 80.0098 31.4396 78.6698V44.8498C31.4396 37.2498 25.2596 31.0598 17.6496 31.0598H17.6396Z" fill="#D60000"/>
<path d="M26.9499 19.2703H8.13985C7.30985 19.2703 6.63985 18.6003 6.63985 17.7703V16.7003C5.30985 10.9003 8.44986 4.92028 14.0099 2.74028L20.6699 0.13028C20.8399 0.0602795 21.0299 0.0302734 21.2199 0.0302734H41.6399C42.4699 0.0302734 43.1399 0.700273 43.1399 1.53027V11.0303C43.1399 11.4503 42.9599 11.8503 42.6499 12.1403C42.3399 12.4203 41.9199 12.5703 41.4999 12.5203C39.1699 12.3103 32.4999 12.3003 29.7199 14.8403C28.8699 15.6203 28.4499 16.5803 28.4499 17.7703C28.4499 18.6003 27.7799 19.2703 26.9499 19.2703ZM9.61986 16.2703H25.5999C25.8899 14.8603 26.5899 13.6303 27.6999 12.6203C30.9999 9.62029 37.1799 9.37028 40.1399 9.44028V3.02028H21.4999L15.1099 5.53027C10.8899 7.19027 8.51986 11.7603 9.59986 16.1603C9.59986 16.2003 9.61986 16.2303 9.61986 16.2703Z" fill="#D60000"/>
<path d="M41.6393 25.33C41.3993 25.33 41.1493 25.27 40.9193 25.15L35.7793 22.34C35.5793 22.23 35.3993 22.07 35.2693 21.88L29.3393 13.36C28.8693 12.68 29.0293 11.75 29.7093 11.27C30.3893 10.8 31.3293 10.96 31.7993 11.64L37.5293 19.87L42.3593 22.51C43.0893 22.91 43.3493 23.82 42.9593 24.55C42.6893 25.05 42.1693 25.33 41.6393 25.33Z" fill="#D60000"/>
<path d="M36.5 12.5603C35.67 12.5603 35 11.8903 35 11.0603V1.53027C35 0.700273 35.67 0.0302734 36.5 0.0302734C37.33 0.0302734 38 0.700273 38 1.53027V11.0603C38 11.8903 37.33 12.5603 36.5 12.5603Z" fill="#D60000"/>
<path d="M28.9498 32.7098H25.9498V26.2598H9.33984V32.7098H6.33984V24.7598C6.33984 23.9298 7.00984 23.2598 7.83984 23.2598H27.4498C28.2798 23.2598 28.9498 23.9298 28.9498 24.7598V32.7098Z" fill="#D60000"/>
<path d="M15.0098 17.7705H12.0098V23.8305H15.0098V17.7705Z" fill="#D60000"/>
<path d="M23.5391 17.7705H20.5391V23.8305H23.5391V17.7705Z" fill="#D60000"/>
<path d="M27.4503 58.2202C26.6203 58.2202 25.9503 57.5502 25.9503 56.7202C25.9503 55.7502 25.1503 54.9502 24.1703 54.9502C23.1903 54.9502 22.4003 55.7402 22.4003 56.7202C22.4003 57.5502 21.7303 58.2202 20.9003 58.2202C20.0703 58.2202 19.4003 57.5502 19.4003 56.7202C19.4003 55.7502 18.6103 54.9502 17.6303 54.9502C16.6503 54.9502 15.8603 55.7402 15.8603 56.7202C15.8603 57.5502 15.1903 58.2202 14.3603 58.2202C13.5303 58.2202 12.8603 57.5502 12.8603 56.7202C12.8603 55.7502 12.0703 54.9502 11.0903 54.9502C10.1103 54.9502 9.32031 55.7402 9.32031 56.7202C9.32031 57.5502 8.65031 58.2202 7.82031 58.2202C6.99031 58.2202 6.32031 57.5502 6.32031 56.7202C6.32031 50.4902 11.3903 45.4102 17.6303 45.4102C23.8703 45.4102 28.9403 50.4802 28.9403 56.7202C28.9403 57.5502 28.2703 58.2202 27.4403 58.2202H27.4503ZM17.6303 51.9502C18.8903 51.9502 20.0403 52.4402 20.9003 53.2502C21.8203 52.3902 23.1003 51.8902 24.4503 51.9602C22.9503 49.8202 20.4603 48.4102 17.6403 48.4102C14.8203 48.4102 12.3403 49.8102 10.8403 51.9602C12.1703 51.9002 13.4603 52.3902 14.3703 53.2502C15.2203 52.4502 16.3703 51.9502 17.6403 51.9502H17.6303Z" fill="#D60000"/>
<path d="M19.6906 71.2205C17.7306 71.2205 16.1406 69.6305 16.1406 67.6705V60.7305C16.1406 59.9005 16.8106 59.2305 17.6406 59.2305C18.4706 59.2305 19.1406 59.9005 19.1406 60.7305V67.6705C19.1406 67.9705 19.3906 68.2205 19.6906 68.2205C19.9906 68.2205 20.2406 67.9705 20.2406 67.6705V66.4005C20.2406 65.5705 20.9106 64.9005 21.7406 64.9005C22.5706 64.9005 23.2406 65.5705 23.2406 66.4005V67.6705C23.2406 69.6305 21.6506 71.2205 19.6906 71.2205Z" fill="#D60000"/>
</svg>
