<svg width="74" height="75" viewBox="0 0 74 75" fill="none" xmlns="http://www.w3.org/2000/svg">
<path d="M12.5591 74.1806C12.3691 74.1806 12.1691 74.1406 11.9891 74.0706C11.4291 73.8406 11.0591 73.2906 11.0591 72.6806V59.6006L2.62907 51.1706C0.349067 48.8906 0.349067 45.1806 2.62907 42.9106C3.72907 41.8106 5.19907 41.2006 6.75907 41.2006C7.90907 41.2006 9.00908 41.5306 9.94907 42.1506L2.49906 34.7006C0.219063 32.4206 0.219063 28.7206 2.49906 26.4406C3.59906 25.3406 5.06907 24.7306 6.62907 24.7306C8.18907 24.7306 9.65907 25.3406 10.7591 26.4406L11.0591 26.7406V19.5506L4.24906 12.7406C3.14906 11.6406 2.53907 10.1706 2.53907 8.61059C2.53907 7.05059 3.14906 5.58059 4.24906 4.48059C5.34906 3.38059 6.81907 2.77059 8.37907 2.77059C9.93907 2.77059 11.4091 3.38059 12.5091 4.48059L19.3191 11.2906H26.0791L25.9891 11.2006C23.7091 8.92059 23.7091 5.22059 25.9891 2.94059C28.2691 0.660586 31.9691 0.660586 34.2491 2.94059L42.5991 11.2906H43.4491L42.9791 10.8206C41.8791 9.72058 41.2691 8.25059 41.2691 6.69059C41.2691 5.13059 41.8791 3.66058 42.9791 2.56059C44.0791 1.46058 45.5491 0.850586 47.1091 0.850586C48.6691 0.850586 50.1391 1.46058 51.2391 2.56059L59.9691 11.2906H72.4591C73.0691 11.2906 73.6091 11.6606 73.8491 12.2206C74.0891 12.7806 73.9491 13.4306 73.5191 13.8506L68.4691 18.9006L69.3891 19.8206C71.7991 22.2306 71.7991 26.1606 69.3891 28.5706L54.8691 43.0906C53.6991 44.2606 52.1491 44.9006 50.4891 44.9006H42.4591L13.6091 73.7606C13.3191 74.0506 12.9391 74.2006 12.5491 74.2006L12.5591 74.1806ZM6.75907 44.1906C5.99907 44.1906 5.28906 44.4906 4.74906 45.0206C3.63906 46.1306 3.63906 47.9306 4.74906 49.0406L13.6191 57.9106C13.8991 58.1906 14.0591 58.5706 14.0591 58.9706V69.0506L40.7891 42.3206C41.0691 42.0406 41.4491 41.8806 41.8491 41.8806H50.4991C51.3391 41.8806 52.1591 41.5406 52.7491 40.9506L67.2691 26.4306C68.5091 25.1906 68.5091 23.1606 67.2691 21.9206L65.2891 19.9406C65.0091 19.6606 64.8491 19.2806 64.8491 18.8806C64.8491 18.4806 65.0091 18.1006 65.2891 17.8206L68.8391 14.2706H59.3591C58.9591 14.2706 58.5791 14.1106 58.2991 13.8306L49.1291 4.66059C48.0591 3.59059 46.1791 3.59059 45.1091 4.66059C44.5691 5.20059 44.2791 5.91059 44.2791 6.67059C44.2791 7.43059 44.5791 8.14059 45.1091 8.68059L48.1391 11.7106C48.5691 12.1406 48.6991 12.7806 48.4691 13.3406C48.2391 13.9006 47.6891 14.2706 47.0791 14.2706H41.9891C41.5891 14.2706 41.2091 14.1106 40.9291 13.8306L32.1391 5.04059C31.0291 3.93059 29.2291 3.93059 28.1191 5.04059C27.0091 6.15059 27.0091 7.95058 28.1191 9.06059L30.7691 11.7106C31.1991 12.1406 31.3291 12.7806 31.0991 13.3406C30.8691 13.9006 30.3191 14.2706 29.7091 14.2706H18.7091C18.3091 14.2706 17.9291 14.1106 17.6491 13.8306L10.3991 6.58059C9.32909 5.51059 7.44907 5.50059 6.37907 6.58059C5.83907 7.12059 5.54908 7.83059 5.54908 8.59059C5.54908 9.35059 5.84907 10.0606 6.37907 10.6006L13.6291 17.8506C13.9091 18.1306 14.0691 18.5106 14.0691 18.9106V30.3406C14.0691 30.9506 13.6991 31.4906 13.1391 31.7306C12.5791 31.9606 11.9291 31.8306 11.5091 31.4006L8.64909 28.5406C7.57909 27.4706 5.69907 27.4606 4.62907 28.5406C3.55907 29.6206 3.51907 31.4506 4.62907 32.5606L13.6291 41.5606C13.9091 41.8406 14.0691 42.2206 14.0691 42.6206V46.6906C14.0691 47.3006 13.6991 47.8406 13.1391 48.0806C12.5791 48.3106 11.9291 48.1806 11.5091 47.7506L8.77906 45.0206C8.23906 44.4806 7.52908 44.1906 6.76908 44.1906H6.75907Z" fill="#D60000"/>
<path d="M22.6496 72.7402C20.9996 72.7402 19.4396 72.1002 18.2696 70.9302L16.2896 68.9502C16.0096 68.6702 15.8496 68.2902 15.8496 67.8902C15.8496 67.4902 16.0096 67.1102 16.2896 66.8302L40.7996 42.3202C41.2296 41.8902 41.8696 41.7602 42.4296 41.9902C42.9896 42.2202 43.3596 42.7702 43.3596 43.3802V52.0302C43.3596 53.6802 42.7196 55.2402 41.5496 56.4102L27.0296 70.9302C25.8596 72.1002 24.3096 72.7402 22.6496 72.7402ZM19.4696 67.8902L20.3896 68.8102C21.5996 70.0202 23.6996 70.0202 24.8996 68.8102L39.4196 54.2902C40.0096 53.7002 40.3496 52.8702 40.3496 52.0302V47.0002L19.4696 67.8902Z" fill="#D60000"/>
</svg>
