<svg width="78" height="79" viewBox="0 0 78 79" fill="none" xmlns="http://www.w3.org/2000/svg">
<path d="M76.4305 78.0597H2.31055C1.48055 78.0597 0.810547 77.3897 0.810547 76.5597V18.6697C0.810547 8.88969 8.77055 0.929688 18.5505 0.929688H22.3705C23.2005 0.929688 23.8705 1.59969 23.8705 2.42969V60.8797H54.8705V2.43969C54.8705 1.60969 55.5405 0.939687 56.3705 0.939687H60.1905C69.9706 0.939687 77.9305 8.89969 77.9305 18.6797V76.5697C77.9305 77.3997 77.2605 78.0697 76.4305 78.0697V78.0597ZM3.81055 75.0597H74.9305V18.6697C74.9305 10.5397 68.3205 3.92969 60.1905 3.92969H57.8705V62.3797C57.8705 63.2097 57.2006 63.8797 56.3705 63.8797H22.3705C21.5405 63.8797 20.8705 63.2097 20.8705 62.3797V3.93969H18.5505C10.4205 3.93969 3.81055 10.5497 3.81055 18.6797V75.0697V75.0597Z" fill="#D60000"/>
<path d="M22.3691 49.44C22.1791 49.44 21.9791 49.4 21.7991 49.33C21.2391 49.1 20.8691 48.55 20.8691 47.94V33.26C20.8691 32.86 21.0291 32.48 21.3091 32.2L25.0891 28.42C25.6791 27.83 26.6291 27.83 27.2091 28.42L29.9291 31.14L32.6491 28.42C33.2391 27.83 34.1891 27.83 34.7691 28.42L37.4891 31.14L40.2091 28.42C40.7991 27.83 41.7491 27.83 42.3291 28.42L45.0491 31.14L47.7691 28.42C48.3591 27.83 49.3091 27.83 49.8891 28.42L52.6091 31.14L55.3291 28.42C55.7591 27.99 56.4091 27.86 56.9591 28.09C57.5191 28.32 57.8891 28.87 57.8891 29.48V44.16C57.8891 44.56 57.7291 44.94 57.4491 45.22L53.6691 49C53.0791 49.59 52.1291 49.59 51.5491 49L48.8291 46.28L46.1091 49C45.8291 49.28 45.4491 49.44 45.0491 49.44C44.6491 49.44 44.2691 49.28 43.9891 49L41.2691 46.28L38.5491 49C37.9891 49.56 36.9891 49.56 36.4291 49L33.7091 46.28L30.9891 49C30.3991 49.59 29.4491 49.59 28.8691 49L26.1491 46.28L23.4291 49C23.1391 49.29 22.7591 49.44 22.3691 49.44ZM48.8191 43.03C49.4291 43.03 50.0391 43.26 50.5091 43.73L52.5991 45.82L54.8791 43.54V33.1L54.2891 33.69C53.3891 34.59 51.8091 34.59 50.9091 33.69L48.8191 31.6L46.7291 33.69C46.2791 34.14 45.6791 34.39 45.0391 34.39C44.3991 34.39 43.7991 34.14 43.3491 33.69L41.2591 31.6L39.1691 33.69C38.2691 34.6 36.6891 34.59 35.7891 33.69L33.6991 31.6L31.6091 33.69C30.7091 34.59 29.1291 34.59 28.2291 33.69L26.1391 31.6L23.8591 33.88V44.32L24.4491 43.73C25.3791 42.8 26.8991 42.8 27.8291 43.73L29.9191 45.82L32.0091 43.73C32.9391 42.8 34.4591 42.8 35.3891 43.73L37.4791 45.82L39.5691 43.73C40.4991 42.8 42.0191 42.8 42.9491 43.73L45.0391 45.82L47.1291 43.73C47.5991 43.26 48.2091 43.03 48.8191 43.03Z" fill="#D60000"/>
<path d="M32.9399 47.3898C32.7599 47.3898 32.5699 47.3598 32.3999 47.2898C31.6299 46.9898 31.2499 46.1198 31.5499 45.3498L36.7299 32.0798C37.0299 31.3098 37.8999 30.9198 38.6699 31.2298C39.4399 31.5298 39.8199 32.3998 39.5199 33.1698L34.3399 46.4398C34.1099 47.0298 33.5399 47.3998 32.9399 47.3998V47.3898Z" fill="#D60000"/>
<path d="M40.6295 46.2904C40.4395 46.2904 40.2395 46.2504 40.0595 46.1804C39.2895 45.8604 38.9295 44.9904 39.2495 44.2204L44.2895 32.0504C44.6095 31.2904 45.4795 30.9204 46.2495 31.2404C47.0195 31.5604 47.3795 32.4304 47.0595 33.2004L42.0195 45.3704C41.7795 45.9504 41.2195 46.3004 40.6295 46.3004V46.2904Z" fill="#D60000"/>
<path d="M48.1891 46.2897C48.0391 46.2897 47.8891 46.2697 47.7391 46.2197C46.9491 45.9697 46.5091 45.1297 46.7491 44.3397L50.5291 32.1697C50.7791 31.3797 51.6091 30.9397 52.4091 31.1797C53.1991 31.4297 53.6391 32.2697 53.3991 33.0597L49.6191 45.2297C49.4191 45.8697 48.8291 46.2797 48.1891 46.2797V46.2897Z" fill="#D60000"/>
<path d="M25.5182 46.2904C25.3282 46.2904 25.1282 46.2504 24.9482 46.1804C24.1782 45.8604 23.8182 44.9904 24.1382 44.2204L29.1782 32.0504C29.4982 31.2904 30.3782 30.9204 31.1382 31.2404C31.9082 31.5604 32.2682 32.4304 31.9482 33.2004L26.9082 45.3704C26.6682 45.9504 26.1082 46.3004 25.5182 46.3004V46.2904Z" fill="#D60000"/>
</svg>
