<svg width="75" height="68" viewBox="0 0 75 68" fill="none" xmlns="http://www.w3.org/2000/svg">
<path d="M35.1046 1H11.209V13.2133H20.5018V25.1611H11.209V31.2677H16.5192V37.6398H11.209V42.95H16.5192V46.667H11.209V50.3841C13.8641 52.6852 22.3603 57.3404 35.1046 57.5528" stroke="#D60000" stroke-width="2" stroke-linecap="round" stroke-linejoin="round"/>
<path d="M35.1045 1H59.0001V13.2133H49.7073V25.1611H59.0001V31.2677H53.6899V37.6398H59.0001V42.95H53.6899V46.667H59.0001V50.3841C56.345 52.6852 47.8488 57.3404 35.1045 57.5528" stroke="#D60000" stroke-width="2" stroke-linecap="round" stroke-linejoin="round"/>
<path d="M42.8041 6.04468H26.6083V21.3113C26.6083 25.7836 30.2338 29.4092 34.7062 29.4092C39.1786 29.4092 42.8041 25.7836 42.8041 21.3113V6.04468Z" stroke="#D60000" stroke-width="2" stroke-linecap="round" stroke-linejoin="round"/>
<circle cx="34.5735" cy="46.9325" r="10.1513" stroke="#D60000" stroke-width="2"/>
<path d="M30.074 37.6399C27.2802 36.0269 23.7079 36.9841 22.0949 39.7779C20.4819 42.5716 21.4391 46.144 24.2329 47.757" stroke="#D60000" stroke-width="2"/>
<path d="M45.1937 47.7569C47.9875 46.144 48.9447 42.5716 47.3317 39.7778C45.7187 36.984 42.1463 36.0268 39.3526 37.6398" stroke="#D60000" stroke-width="2"/>
<path d="M28.8043 55.4285C28.7647 58.6542 31.3475 61.3013 34.5732 61.3409C37.799 61.3805 40.446 58.7976 40.4856 55.5719" stroke="#D60000" stroke-width="2"/>
<circle cx="34.8392" cy="46.6669" r="3.5136" stroke="#D60000" stroke-width="2"/>
<line x1="75" y1="67" x2="-8.74228e-08" y2="67" stroke="#D60000" stroke-width="2"/>
</svg>
