<svg width="83" height="70" viewBox="0 0 83 70" fill="none" xmlns="http://www.w3.org/2000/svg">
<path d="M76.0009 69.7602H43.2609C42.8609 69.7602 42.4809 69.6002 42.2009 69.3202L37.3209 64.4402C37.0409 64.1602 36.8809 63.7802 36.8809 63.3802V13.9902C36.8809 13.1602 37.5509 12.4902 38.3809 12.4902H80.8809C81.7109 12.4902 82.3809 13.1602 82.3809 13.9902V63.3802C82.3809 63.7802 82.2209 64.1602 81.9409 64.4402L77.0609 69.3202C76.7809 69.6002 76.4009 69.7602 76.0009 69.7602ZM43.8809 66.7602H75.3809L79.3809 62.7602V15.4902H39.8809V62.7602L43.8809 66.7602Z" fill="#D60000"/>
<path d="M69.1104 58.0005H50.1504C49.3204 58.0005 48.6504 57.3305 48.6504 56.5005V25.7705C48.6504 24.9405 49.3204 24.2705 50.1504 24.2705H69.1104C69.9404 24.2705 70.6104 24.9405 70.6104 25.7705V56.5005C70.6104 57.3305 69.9404 58.0005 69.1104 58.0005ZM51.6504 55.0005H67.6104V27.2705H51.6504V55.0005Z" fill="#D60000"/>
<path d="M68.4608 15.5005H38.3908C37.9408 15.5005 37.5208 15.3005 37.2408 14.9605C36.9608 14.6205 36.8408 14.1705 36.9208 13.7305L37.8208 8.86046C38.6608 4.29046 42.6408 0.980469 47.2908 0.980469H57.1708C59.1808 0.980469 61.1208 1.93046 62.3408 3.53046L69.6608 13.0905C70.0108 13.5405 70.0708 14.1505 69.8108 14.6705C69.5608 15.1805 69.0408 15.5105 68.4708 15.5105L68.4608 15.5005ZM40.1908 12.5005H65.4208L59.9508 5.35046C59.2908 4.49046 58.2508 3.97046 57.1608 3.97046H47.2808C44.0808 3.97046 41.3408 6.25047 40.7608 9.40047L40.1908 12.5005Z" fill="#D60000"/>
<path d="M80.8799 14.1897H70.6699C69.8399 14.1897 69.1699 13.5197 69.1699 12.6897V4.21973C69.1699 2.42973 70.6299 0.969727 72.4199 0.969727H79.1299C80.9199 0.969727 82.3799 2.42973 82.3799 4.21973V12.6897C82.3799 13.5197 81.7099 14.1897 80.8799 14.1897ZM72.1699 11.1897H79.3799V4.21973C79.3799 4.07973 79.2699 3.96973 79.1299 3.96973H72.4199C72.2799 3.96973 72.1699 4.07973 72.1699 4.21973V11.1897Z" fill="#D60000"/>
<path d="M53.2393 69.7598H2.46928C1.90928 69.7598 1.38928 69.4498 1.13928 68.9498C0.879281 68.4498 0.929281 67.8497 1.24928 67.3897L10.5493 54.3698C11.8993 52.4898 13.8993 51.2797 16.1893 50.9597C17.9193 50.7297 19.6293 51.0198 21.1293 51.8098L24.1993 46.9097C25.6493 44.5897 28.0493 43.1797 30.7793 43.0297C33.5093 42.8797 36.0493 44.0197 37.7493 46.1597L39.5493 48.4197C40.0693 49.0697 39.9593 50.0097 39.3093 50.5297C38.6593 51.0497 37.7193 50.9398 37.1993 50.2898L35.3993 48.0297C34.3093 46.6597 32.6793 45.9297 30.9393 46.0297C29.1993 46.1297 27.6593 47.0298 26.7293 48.5098L22.8493 54.6998C22.6193 55.0598 22.2493 55.3097 21.8293 55.3797C21.4093 55.4497 20.9693 55.3397 20.6393 55.0697C19.4893 54.1397 18.0393 53.7397 16.5793 53.9397C15.1093 54.1397 13.8293 54.9098 12.9693 56.1198L5.36928 66.7697H53.2393C54.0693 66.7697 54.7393 67.4397 54.7393 68.2697C54.7393 69.0997 54.0693 69.7697 53.2393 69.7697V69.7598Z" fill="#D60000"/>
<path d="M30.1409 62.6204C29.6409 62.6204 29.1509 62.3704 28.8709 61.9104C28.8509 61.8804 26.9609 58.9404 24.1209 58.9404C21.2809 58.9404 19.3909 61.8804 19.3709 61.9104C18.9309 62.6104 18.0109 62.8304 17.3009 62.3904C16.6009 61.9504 16.3809 61.0304 16.8209 60.3204C16.9309 60.1404 19.6009 55.9404 24.1109 55.9404C28.6209 55.9404 31.2909 60.1404 31.4009 60.3204C31.8409 61.0204 31.6209 61.9504 30.9209 62.3904C30.6709 62.5404 30.4009 62.6204 30.1309 62.6204H30.1409Z" fill="#D60000"/>
</svg>
