<svg width="57" height="40" viewBox="0 0 57 40" fill="none" xmlns="http://www.w3.org/2000/svg">
<path d="M56.3417 31.9641C56.3417 31.9641 53.9221 31.2736 50.6118 30.3232C48.5677 27.5909 45.2476 23.6309 40.3251 19.0523C30.9291 10.3133 16.6155 11.0978 16.6155 11.0978C16.6155 11.0978 15.3984 9.38023 14.4732 8.88772C13.7861 8.5239 12.0954 8.55855 11.2709 8.59815C10.9715 8.613 10.682 8.71942 10.4439 8.90257L10.1814 9.10551C10.1814 9.10551 11.1138 9.32826 11.4059 9.72177C11.6979 10.1153 11.4059 10.7043 11.6488 11.6869C11.8917 12.6694 12.331 12.8154 12.331 13.4045C12.331 13.9935 11.1629 14.3375 9.41084 15.5651C7.65875 16.7927 8.87589 19.6908 8.87589 19.6908C8.87589 19.6908 19.8301 37.5154 20.4141 37.2679C20.9982 37.0204 20.5614 35.9413 20.5614 35.9413C20.5614 35.9413 13.7444 24.6976 13.2095 22.292C12.6745 19.8864 14.6205 18.8048 14.6205 18.8048C14.6205 18.8048 40.3251 37.9064 40.9091 37.9064C41.4931 37.9064 41.395 37.3174 41.395 37.3174L27.3734 26.0737C27.3734 26.0737 30.7819 25.9747 32.9732 26.3682C35.1645 26.7617 41.2011 28.7244 48.9407 31.4245C49.4904 31.6176 50.0008 31.7834 50.472 31.9294C51.3333 32.7981 51.9124 33.402 52.0572 33.5852C52.7884 34.5182 53.2743 34.2732 53.2743 34.2732C53.2743 34.2732 52.9013 33.5926 52.0793 32.3799C56.5797 33.4886 56.3417 31.9665 56.3417 31.9665V31.9641ZM32.6321 25.0417C29.2236 23.9131 25.5722 21.8985 23.43 20.2625C21.2877 18.6266 22.9441 17.4807 24.9391 16.4982C26.9341 15.5156 32.3401 16.7927 35.7952 18.7578C38.0699 20.0497 44.0746 25.6579 48.126 29.6104C42.0796 27.868 34.583 25.6901 32.6321 25.0441V25.0417Z" fill="#D60000"/>
<path d="M30.3155 31.1966L30.2345 31.2783L30.8529 32.4613C28.2837 34.7754 24.993 36.2901 21.3661 36.6291C21.3784 37.1687 21.1821 37.6538 20.6643 37.8715C20.5809 37.9062 20.4925 37.9235 20.4017 37.9235C20.0999 37.9235 19.9134 37.9235 18.922 36.5598L18.8877 36.6737C15.0252 36.4559 11.5162 34.9016 8.80705 32.4613L9.42543 31.2783L8.64755 30.4938L7.47458 31.1174C5.05749 28.3851 3.51644 24.8459 3.29804 20.9504L4.56671 20.5544V19.4456L3.29804 19.0496C3.51399 15.1541 5.05504 11.6149 7.47458 8.88256L8.64755 9.50625L8.72362 9.42953L8.70399 9.42458L8.81441 9.34043L9.42789 8.72169L8.8095 7.53867C11.5186 5.10085 15.0277 3.54659 18.8901 3.32632L19.2828 4.60587H20.3821L20.7747 3.32632C24.6372 3.54412 28.1462 5.09838 30.8553 7.53867L30.237 8.72169L31.0148 9.50625L32.1878 8.88256C33.697 10.5878 34.865 12.6098 35.584 14.8348C36.2588 15.2085 36.9263 15.6144 37.5839 16.0549C36.9288 13.0355 35.5325 10.2958 33.6013 8.03613C33.6283 8.01386 33.6577 7.99158 33.6847 7.96931L34.9043 6.92241L32.7964 4.79644L31.7584 6.02648C31.7363 6.05371 31.7142 6.08341 31.6921 6.11063C28.8284 3.62084 25.1844 2.0146 21.1796 1.71761C21.1845 1.68296 21.1894 1.64584 21.1919 1.61119L21.3195 0H18.3405L18.4681 1.61119C18.4705 1.64584 18.4754 1.68296 18.4803 1.71761C14.4756 2.0146 10.834 3.61836 7.96782 6.11063C7.94573 6.08341 7.92365 6.05371 7.90156 6.02648L6.86356 4.79644L4.75566 6.92241L5.97525 7.96931C6.00224 7.99158 6.03169 8.01386 6.05868 8.03613C3.59006 10.9244 1.99748 14.5997 1.70301 18.6388C1.66865 18.6338 1.63184 18.6314 1.59749 18.6264L0 18.4977V21.5023L1.59749 21.3736C1.63184 21.3711 1.66865 21.3662 1.70301 21.3612C1.99748 25.4003 3.5876 29.0731 6.05868 31.9639C6.03169 31.9861 6.00224 32.0084 5.97525 32.0307L4.75566 33.0776L6.86356 35.2036L7.90156 33.9735C7.92365 33.9463 7.94573 33.9166 7.96782 33.8894C10.8315 36.3792 14.4756 37.9854 18.4803 38.2824C18.4754 38.317 18.4705 38.3542 18.4681 38.3888L18.3405 40H21.3195L21.1919 38.3888C21.1894 38.3542 21.1845 38.317 21.1796 38.2824C25.1844 37.9854 28.826 36.3816 31.6921 33.8894C31.7142 33.9166 31.7363 33.9463 31.7584 33.9735L32.7964 35.2036L34.0626 33.9265C32.951 33.1197 31.6995 32.2089 30.3155 31.1966V31.1966Z" fill="#D60000"/>
<path d="M33.1743 29.8874L34.4405 30.9021C35.1301 29.9641 35.7313 28.9568 36.2343 27.8951C35.6478 27.7193 35.1227 27.5684 34.6565 27.4421C34.2319 28.3034 33.7338 29.1201 33.1743 29.8874V29.8874Z" fill="#D60000"/>
<path d="M35.0933 20.5542L36.3619 20.9502C36.2785 22.4476 35.9988 23.8905 35.5497 25.2566C36.0282 25.4002 36.5484 25.5536 37.1006 25.717C37.5521 24.331 37.8441 22.8708 37.9521 21.3611C37.9864 21.366 38.0232 21.3685 38.0576 21.3734L38.2343 21.3883C37.0736 20.4206 36.1116 19.688 35.4761 19.3267L35.0933 19.4455V20.5542V20.5542Z" fill="#D60000"/>
</svg>
