<svg width="197" height="41" viewBox="0 0 197 41" fill="none" xmlns="http://www.w3.org/2000/svg">
<path d="M0.00351117 18.101V0.484131H12.5769V4.7608H4.84105V18.0975H0L0.00351117 18.101Z" fill="#D60000"/>
<path d="M14.5721 18.0763C14.1048 18.2109 13.5568 18.2783 12.9244 18.2783C12.2921 18.2783 11.593 18.2109 10.8271 18.0763L11.0274 14.3772C11.3752 14.4268 11.6351 14.4516 11.8002 14.4516C12.0181 14.4516 12.1902 14.4232 12.3237 14.363C12.4572 14.3028 12.6118 14.1398 12.7839 13.874C12.9596 13.6047 13.0966 13.2185 13.1949 12.7154C13.2933 12.2123 13.3811 11.4859 13.4584 10.5399C13.5322 9.59382 13.5708 8.44582 13.5708 7.10648V4.48804H25.2238V18.1011H20.4846V8.28637H17.9903V8.63715C17.9903 10.2493 17.9025 11.6347 17.7269 12.8004C17.5512 13.9662 17.3228 14.898 17.0418 15.5925C16.7572 16.287 16.3919 16.8433 15.9457 17.2543C15.4995 17.6653 15.0393 17.9381 14.5721 18.0728V18.0763Z" fill="#D60000"/>
<path d="M31.6387 18.4021C30.3072 18.4021 29.2182 18.03 28.3715 17.2824C27.5249 16.5348 27.0998 15.4931 27.0998 14.1502C27.0998 12.8073 27.5741 11.716 28.5226 10.979C29.4711 10.242 30.7604 9.87355 32.3905 9.87355C33.5709 9.87355 34.653 10.0507 35.6331 10.4015V10.1747C35.6331 8.6972 34.7338 7.96021 32.9386 7.96021C31.723 7.96021 30.4864 8.21178 29.2217 8.71492L28.2486 5.34177C29.9454 4.63667 31.7652 4.28589 33.7114 4.28589C36.0406 4.28589 37.7515 4.83863 38.8511 5.94766C39.8172 6.90433 40.2985 8.34642 40.2985 10.2739V18.1009H35.6085V16.6907C34.5932 17.8316 33.2723 18.4021 31.6422 18.4021H31.6387ZM33.3355 15.4081C34.0347 15.4081 34.6003 15.2026 35.0324 14.7915C35.4645 14.3805 35.6823 13.8384 35.6823 13.1687V12.5381C35.1342 12.3042 34.5195 12.1873 33.8344 12.1873C33.1493 12.1873 32.6189 12.3432 32.2395 12.6514C31.8565 12.9632 31.6668 13.3849 31.6668 13.9235C31.6668 14.377 31.8214 14.7384 32.127 15.0041C32.4362 15.2734 32.8367 15.4081 33.3355 15.4081Z" fill="#D60000"/>
<path d="M49.2251 18.427C47.2121 18.427 45.5329 17.736 44.1838 16.3506C42.8348 14.9652 42.1638 13.2857 42.1638 11.3051C42.1638 9.32442 42.8453 7.66974 44.2084 6.28434C45.5715 4.89894 47.3035 4.20801 49.3973 4.20801C51.9759 4.20801 53.8975 5.22491 55.1623 7.25164L51.9934 9.56536C51.3611 8.67601 50.546 8.23311 49.5483 8.23311C48.6981 8.23311 48.0271 8.5272 47.5283 9.11537C47.0294 9.70355 46.78 10.4334 46.78 11.3051C46.78 12.1767 47.0294 12.9314 47.5283 13.5196C48.0271 14.1078 48.6771 14.4019 49.4745 14.4019C50.005 14.4019 50.4582 14.2849 50.8341 14.0511C51.21 13.8172 51.6035 13.4558 52.018 12.9704L55.236 15.3089C53.8378 17.3888 51.8354 18.4305 49.2216 18.4305L49.2251 18.427Z" fill="#D60000"/>
<path d="M62.9225 18.427C60.9095 18.427 59.2302 17.736 57.8812 16.3506C56.5322 14.9652 55.8612 13.2857 55.8612 11.3051C55.8612 9.32442 56.5427 7.66974 57.9058 6.28434C59.2689 4.89894 61.0008 4.20801 63.0946 4.20801C65.6733 4.20801 67.5949 5.22491 68.8596 7.25164L65.6908 9.56536C65.0585 8.67601 64.2434 8.23311 63.2457 8.23311C62.3955 8.23311 61.7245 8.5272 61.2257 9.11537C60.7268 9.70355 60.4774 10.4334 60.4774 11.3051C60.4774 12.1767 60.7268 12.9314 61.2257 13.5196C61.7245 14.1078 62.3745 14.4019 63.1719 14.4019C63.7024 14.4019 64.1556 14.2849 64.5315 14.0511C64.9074 13.8172 65.3009 13.4558 65.7154 12.9704L68.9334 15.3089C67.5352 17.3888 65.5327 18.4305 62.919 18.4305L62.9225 18.427Z" fill="#D60000"/>
<path d="M70.8838 18.101V0.484131H75.7248V7.63081L81.7393 0.484131H87.4762L80.8645 8.05954L87.701 18.101H81.8868L77.4954 11.5602L75.7248 13.548V18.101H70.8838V18.101Z" fill="#D60000"/>
<path d="M95.7071 18.427C93.5781 18.427 91.8075 17.7361 90.3918 16.3507C88.976 14.9653 88.2698 13.2858 88.2698 11.3051C88.2698 9.32444 88.9795 7.66621 90.4023 6.27373C91.8251 4.88124 93.6098 4.18677 95.7527 4.18677C97.8957 4.18677 99.6523 4.8777 101.068 6.2631C102.48 7.6485 103.19 9.32798 103.19 11.3086C103.19 13.2893 102.48 14.9475 101.058 16.34C99.6347 17.7325 97.8501 18.427 95.7071 18.427ZM95.7563 14.3771C96.6029 14.3771 97.288 14.083 97.8009 13.4948C98.3173 12.9066 98.5738 12.1767 98.5738 11.3051C98.5738 10.4335 98.2997 9.74608 97.7517 9.14019C97.2037 8.5343 96.5221 8.23313 95.7071 8.23313C94.892 8.23313 94.1754 8.52722 93.6624 9.11539C93.146 9.70357 92.8896 10.4335 92.8896 11.3051C92.8896 12.1767 93.1636 12.8641 93.7116 13.47C94.2597 14.0724 94.9412 14.3771 95.7563 14.3771Z" fill="#D60000"/>
<path d="M105.189 18.1011V4.48804H110.006L113.126 9.19344L116.27 4.48804H121.086V18.1011H116.347V11.3831L113.052 16.0141L109.858 11.4859V18.1046H105.193L105.189 18.1011Z" fill="#D60000"/>
<path d="M123.626 18.1011V4.48804H136.8V18.1011H132.061V8.33952H128.369V18.1011H123.63H123.626Z" fill="#D60000"/>
<path d="M142.062 18.0763C141.595 18.2109 141.047 18.2783 140.415 18.2783C139.782 18.2783 139.083 18.2109 138.317 18.0763L138.518 14.3772C138.865 14.4268 139.125 14.4516 139.291 14.4516C139.508 14.4516 139.681 14.4232 139.814 14.363C139.948 14.3028 140.102 14.1398 140.274 13.874C140.45 13.6047 140.587 13.2185 140.685 12.7154C140.784 12.2123 140.871 11.4859 140.949 10.5399C141.023 9.59382 141.061 8.44582 141.061 7.10648V4.48804H152.714V18.1011H147.975V8.28637H145.481V8.63715C145.481 10.2493 145.393 11.6347 145.217 12.8004C145.042 13.9662 144.813 14.898 144.532 15.5925C144.248 16.287 143.882 16.8433 143.436 17.2543C142.99 17.6653 142.53 17.9381 142.062 18.0728V18.0763Z" fill="#D60000"/>
<path d="M161.947 18.4271C159.818 18.4271 158.079 17.7716 156.733 16.4642C155.388 15.1567 154.713 13.4347 154.713 11.3052C154.713 9.29268 155.353 7.60256 156.635 6.23487C157.914 4.86719 159.544 4.18335 161.525 4.18335C163.738 4.18335 165.425 4.88845 166.591 6.29865C167.754 7.70886 168.337 9.48755 168.337 11.6347C168.337 12.0706 168.33 12.4001 168.312 12.6162H159.28C159.663 14.1079 160.636 14.8555 162.2 14.8555C163.264 14.8555 164.262 14.3949 165.193 13.4701L167.813 15.6598C166.366 17.5059 164.413 18.4271 161.95 18.4271H161.947ZM159.203 10.1749H163.893C163.809 9.42023 163.559 8.82143 163.145 8.37498C162.73 7.93208 162.196 7.70886 161.55 7.70886C160.903 7.70886 160.422 7.93208 160.014 8.37498C159.607 8.81788 159.336 9.42023 159.203 10.1749V10.1749Z" fill="#D60000"/>
<path d="M170.354 18.1011V4.48804H175.093V9.54422L178.76 4.48804H184.125L179.509 10.0757L184.248 18.1011H179.034L176.466 13.7465L175.093 15.4083V18.1011H170.354V18.1011Z" fill="#D60000"/>
<path d="M188.316 18.1011V8.33952H184.374V4.48804H197V8.33952H193.058V18.1011H188.319H188.316Z" fill="#D60000"/>
<path d="M0.77594 40.4056V27.1504H11.1396V40.4056H9.65706V28.511H2.25847V40.4056H0.77594V40.4056Z" fill="#212121"/>
<path d="M18.8614 40.6322C17.4983 40.6322 16.3495 40.1574 15.4151 39.2008C14.4806 38.2477 14.0168 37.0182 14.0168 35.5158C14.0168 34.0135 14.4595 32.8797 15.3483 31.8876C16.2371 30.8955 17.3438 30.3994 18.6717 30.3994C19.9997 30.3994 21.1625 30.8919 21.9775 31.8769C22.7926 32.862 23.1966 34.0985 23.1966 35.5902C23.1966 35.778 23.1895 35.9516 23.179 36.1005H15.4818C15.5802 37.0996 15.9526 37.8898 16.599 38.478C17.2419 39.0661 18.0112 39.3602 18.9001 39.3602C20.0629 39.3602 21.0852 38.8996 21.96 37.9784L22.8628 38.7933C21.7738 40.0193 20.4423 40.6287 18.8649 40.6287L18.8614 40.6322ZM15.4818 34.9312H21.7351C21.6473 33.9852 21.3381 33.1986 20.8041 32.575C20.2737 31.9513 19.55 31.636 18.6366 31.636C17.811 31.636 17.1013 31.9443 16.5147 32.5643C15.9245 33.1844 15.5802 33.971 15.4818 34.9312Z" fill="#212121"/>
<path d="M25.7332 40.4054V30.6155H27.1806V34.839H32.7769V30.6155H34.2243V40.4054H32.7769V36.1252H27.1806V40.4054H25.7332Z" fill="#212121"/>
<path d="M40.5303 40.6324C39.0408 40.6324 37.7023 40.1469 36.5114 39.1725L37.2421 38.0919C38.2293 38.9387 39.3148 39.3603 40.4917 39.3603C41.1557 39.3603 41.7213 39.2044 42.192 38.8962C42.6628 38.5879 42.8946 38.1592 42.8946 37.6171C42.8946 37.1139 42.6803 36.7171 42.2553 36.4336C41.8302 36.1502 41.2294 36.0085 40.4531 36.0085H39.1567V34.8144H40.4706C41.11 34.8144 41.6264 34.6585 42.0304 34.3502C42.4309 34.042 42.6312 33.6345 42.6312 33.1278C42.6312 32.6849 42.4344 32.3306 42.041 32.0684C41.6475 31.8062 41.1416 31.6716 40.5303 31.6716C39.378 31.6716 38.3944 32.0011 37.5828 32.6566L36.8697 31.6326C37.9201 30.8105 39.1743 30.4031 40.6252 30.4031C41.7002 30.4031 42.5574 30.6476 43.1897 31.133C43.8221 31.6184 44.1383 32.2456 44.1383 33.018C44.1383 34.0916 43.6183 34.8427 42.5785 35.2715C43.78 35.7002 44.3807 36.501 44.3807 37.6773C44.3807 38.4993 44.0294 39.1974 43.3303 39.7714C42.6276 40.3454 41.6967 40.6324 40.5338 40.6324H40.5303Z" fill="#212121"/>
<path d="M49.9563 40.6143C48.9656 40.6143 48.1154 40.3415 47.4023 39.7994C46.6891 39.2573 46.3308 38.499 46.3308 37.5282C46.3308 36.5042 46.7067 35.7176 47.4585 35.1613C48.2103 34.605 49.2186 34.3287 50.4833 34.3287C51.4845 34.3287 52.4752 34.4669 53.4518 34.7468V34.442C53.4518 33.5846 53.2024 32.9255 52.7 32.472C52.1977 32.0185 51.4915 31.7917 50.5781 31.7917C49.6647 31.7917 48.6424 32.0256 47.6306 32.4933L47.1985 31.2992C48.4 30.7429 49.5769 30.4666 50.7292 30.4666C52.1063 30.4666 53.1497 30.828 53.8664 31.5472C54.5409 32.2275 54.8817 33.1877 54.8817 34.4243V40.4088H53.4553V38.949C52.5911 40.0616 51.4283 40.6143 49.9633 40.6143H49.9563ZM50.2373 39.4415C51.1402 39.4415 51.9026 39.1935 52.5279 38.7045C53.1532 38.212 53.4659 37.5813 53.4659 36.8125V35.9019C52.5138 35.6255 51.5688 35.4838 50.6308 35.4838C49.742 35.4838 49.0464 35.6645 48.5475 36.0223C48.0452 36.3802 47.7957 36.8727 47.7957 37.4892C47.7957 38.1057 48.0311 38.5557 48.4984 38.9101C48.9691 39.2644 49.5453 39.4415 50.2338 39.4415H50.2373Z" fill="#212121"/>
</svg>
