<svg display="none" xmlns="http://www.w3.org/2000/svg">

	<symbol id="basket" viewBox="0 0 42 34">
		<path
			d="M41.9087 7.66528L37.0239 23.5131C36.6587 24.6418 35.7 25.3942 34.5587 25.3942H15.7043C14.6087 25.3942 13.5587 24.6888 13.1935 23.6542L5.98043 3.7621H1.82609C0.821739 3.7621 0 2.91563 0 1.88105C0 0.846473 0.821739 0 1.82609 0H7.2587C8.03478 0 8.71957 0.517289 8.99348 1.26971L16.4348 21.6321H33.7826L37.663 8.93499H16.1609C15.1565 8.93499 14.3348 8.08852 14.3348 7.05394C14.3348 6.01936 15.1565 5.17289 16.1609 5.17289H40.1739C40.7674 5.17289 41.3152 5.50207 41.6348 5.97234C42 6.4426 42.0913 7.10097 41.9087 7.66528ZM16.6174 27.8866C15.8413 27.8866 15.0652 28.2158 14.5174 28.7801C13.9696 29.3444 13.65 30.1438 13.65 30.9433C13.65 31.7427 13.9696 32.5422 14.5174 33.1065C15.0652 33.6708 15.8413 34 16.6174 34C17.3935 34 18.1696 33.6708 18.7174 33.1065C19.2652 32.5422 19.5848 31.7427 19.5848 30.9433C19.5848 30.1438 19.2652 29.3444 18.7174 28.7801C18.1696 28.2158 17.3935 27.8866 16.6174 27.8866ZM33.0065 27.8866C32.2304 27.8866 31.4543 28.2158 30.9065 28.7801C30.3587 29.3444 30.0391 30.1438 30.0391 30.9433C30.0391 31.7427 30.3587 32.5422 30.9065 33.1065C31.4543 33.6708 32.2304 34 33.0065 34C33.7826 34 34.5587 33.6708 35.1065 33.1065C35.6544 32.5422 35.9739 31.7427 35.9739 30.9433C35.9739 30.1438 35.6544 29.3444 35.1065 28.7801C34.5587 28.2158 33.7826 27.8866 33.0065 27.8866Z" />
	</symbol>

	<symbol id="search" viewBox="0 0 20 20">
		<path
			d="M19.7663 18.5889L14.7962 13.6188C16.1506 11.9623 16.8165 9.84866 16.6562 7.71497C16.4959 5.58128 15.5216 3.59083 13.9349 2.15534C12.3482 0.719841 10.2704 -0.0508742 8.13136 0.00260835C5.99233 0.0560909 3.95568 0.929679 2.44268 2.44268C0.929679 3.95568 0.0560909 5.99233 0.00260835 8.13136C-0.0508742 10.2704 0.719841 12.3482 2.15534 13.9349C3.59083 15.5216 5.58128 16.4959 7.71497 16.6562C9.84866 16.8165 11.9623 16.1506 13.6188 14.7962L18.5889 19.7663C18.7459 19.9179 18.9563 20.0019 19.1746 20C19.3929 19.9981 19.6017 19.9105 19.7561 19.7561C19.9105 19.6017 19.9981 19.3929 20 19.1746C20.0019 18.9563 19.9179 18.7459 19.7663 18.5889ZM8.35314 15.0143C7.03568 15.0143 5.74781 14.6237 4.65238 13.8917C3.55695 13.1598 2.70317 12.1194 2.199 10.9023C1.69483 9.6851 1.56292 8.34575 1.81994 7.05361C2.07697 5.76146 2.71138 4.57455 3.64297 3.64297C4.57455 2.71138 5.76146 2.07697 7.05361 1.81994C8.34575 1.56292 9.6851 1.69483 10.9023 2.199C12.1194 2.70317 13.1598 3.55695 13.8917 4.65238C14.6237 5.74781 15.0143 7.03568 15.0143 8.35314C15.0124 10.1192 14.3099 11.8123 13.0611 13.0611C11.8123 14.3099 10.1192 15.0124 8.35314 15.0143Z" />
	</symbol>
	<symbol id="prev2" viewBox="0 0 14 22">
		<path d="M11.7617 20L1.99982 11L11.7617 2.00003" stroke-width="3" stroke-linecap="round" stroke-linejoin="round" />
	</symbol>

	<symbol id="prev" viewBox="0 0 24 24">
		<path d="M14.7778 5.51848L8.2963 12L14.7778 18.4814" />
	</symbol>

	<symbol id="next" viewBox="0 0 24 24">
		<path d="M9.22225 18.4815L15.7037 12L9.22225 5.51855" />
	</symbol>

	<symbol id="next2" viewBox="0 0 14 22">
		<path d="M2.23779 2L11.9997 11L2.23779 20" stroke-width="3" stroke-linecap="round" stroke-linejoin="round" />
	</symbol>


	<symbol id="play" viewBox="0 0 14 16">
		<path d="M14 8L0.499999 15.7942L0.5 0.205771L14 8Z" />
	</symbol>

	<symbol id="close" viewBox="0 0 16 16">
		<path fill-rule="evenodd" clip-rule="evenodd"
			d="M2.13139 0.7183C1.93612 0.523038 1.61954 0.523038 1.42428 0.7183C1.22902 0.913562 1.22902 1.23014 1.42428 1.42541L7.43449 7.43562L0.717323 14.1528C0.522061 14.3481 0.522061 14.6646 0.717323 14.8599C0.912585 15.0552 1.22917 15.0552 1.42443 14.8599L8.1416 8.14273L14.8593 14.8604C15.0546 15.0557 15.3712 15.0557 15.5664 14.8604C15.7617 14.6652 15.7617 14.3486 15.5664 14.1533L8.84871 7.43562L14.8595 1.42487C15.0547 1.22961 15.0547 0.913027 14.8595 0.717766C14.6642 0.522504 14.3476 0.522504 14.1524 0.717766L8.1416 6.72852L2.13139 0.7183Z" />
		<path fill-rule="evenodd" clip-rule="evenodd"
			d="M2.13139 0.7183C1.93612 0.523038 1.61954 0.523038 1.42428 0.7183C1.22902 0.913562 1.22902 1.23014 1.42428 1.42541L7.43449 7.43562L0.717323 14.1528C0.522061 14.3481 0.522061 14.6646 0.717323 14.8599C0.912585 15.0552 1.22917 15.0552 1.42443 14.8599L8.1416 8.14273L14.8593 14.8604C15.0546 15.0557 15.3712 15.0557 15.5664 14.8604C15.7617 14.6652 15.7617 14.3486 15.5664 14.1533L8.84871 7.43562L14.8595 1.42487C15.0547 1.22961 15.0547 0.913027 14.8595 0.717766C14.6642 0.522504 14.3476 0.522504 14.1524 0.717766L8.1416 6.72852L2.13139 0.7183Z"
			fill-opacity="0.2" />
	</symbol>

	<symbol id="file" viewBox="0 0 14 15">
		<path fill-rule="evenodd" clip-rule="evenodd"
			d="M9.67999 0.00378169C9.65459 0.00834152 9.57148 0.0211281 9.49529 0.0322046C8.94363 0.112401 8.3838 0.370391 7.91606 0.759952C7.83478 0.827627 6.24229 2.45467 4.37719 4.37559C1.76321 7.06778 0.956394 7.90951 0.856561 8.04864C0.125147 9.06783 -0.147552 10.2706 0.0759226 11.4918C0.179745 12.0592 0.386024 12.5789 0.700929 13.0664C1.11997 13.7151 1.67771 14.2224 2.33795 14.5553C2.92109 14.8494 3.42858 14.9777 4.0839 14.9968C4.46491 15.008 4.68159 14.9912 5.0215 14.9242C5.70136 14.7902 6.37565 14.4601 6.90941 14C7.18869 13.7593 13.8718 6.84868 13.9357 6.73452C13.9774 6.6601 13.9914 6.60772 13.998 6.50062C14.0097 6.31452 13.9708 6.19796 13.8531 6.0655C13.7338 5.93117 13.6142 5.87702 13.436 5.87666C13.1821 5.87613 13.4656 5.60182 9.69573 9.49558C7.82293 11.4299 6.23247 13.0615 6.16135 13.1213C4.94616 14.1437 3.18174 14.0633 2.06389 12.9348C1.62259 12.4892 1.34387 11.9773 1.21376 11.3735C1.00325 10.3965 1.23779 9.40253 1.85938 8.63762C1.92307 8.55924 3.47395 6.9551 5.3058 5.07284C8.88092 1.3993 8.72872 1.548 9.09765 1.36823C9.80243 1.02482 10.6743 1.11583 11.2962 1.59769C11.884 2.05321 12.1959 2.724 12.1219 3.37347C12.083 3.71363 11.9499 4.05672 11.7344 4.37196C11.657 4.48512 10.9509 5.22438 8.98814 7.24714C7.53499 8.7447 6.28588 10.0203 6.21233 10.0817C5.97103 10.2833 5.7292 10.3727 5.42253 10.3738C5.11945 10.3748 4.89132 10.2947 4.70988 10.1237C4.42089 9.85136 4.38118 9.46621 4.59391 8.9986L4.67603 8.81811L6.98152 6.4527C9.47445 3.89498 9.37789 4.00204 9.39804 3.77363C9.41745 3.55341 9.29992 3.32656 9.10951 3.21667C9.02915 3.17027 8.98236 3.1576 8.86598 3.15067C8.73406 3.14282 8.71154 3.1471 8.5986 3.20145C8.48238 3.25741 8.34241 3.39722 6.17596 5.62148C4.65735 7.18062 3.83645 8.03697 3.75821 8.14363C3.46296 8.54613 3.32637 8.98536 3.3262 9.53284C3.32613 9.79933 3.35804 10.0239 3.42448 10.2241C3.6665 10.9533 4.25036 11.4141 5.07549 11.5271C5.27669 11.5547 5.72458 11.5392 5.90277 11.4985C6.23716 11.4221 6.57519 11.266 6.84246 11.0644C6.94508 10.9869 7.81232 10.1092 9.58502 8.28869C11.0109 6.82435 12.2645 5.52791 12.3709 5.40774C12.8168 4.90377 13.1096 4.31737 13.2197 3.70731C13.2722 3.41688 13.2678 2.88356 13.2108 2.60767C12.9477 1.33542 11.9489 0.333362 10.6694 0.0578346C10.4868 0.0185061 10.3814 0.00853154 10.0863 0.00266077C9.88825 -0.00129107 9.70539 -0.00077813 9.67999 0.00378169Z" />
	</symbol>

	<symbol id="print" viewBox="0 0 20 20">
		<path d="M4.60156 7.3V1H15.4016V7.3" stroke-linecap="round" stroke-linejoin="round" />
		<path
			d="M4.6 15.3998H2.8C2.32261 15.3998 1.86477 15.2102 1.52721 14.8726C1.18964 14.535 1 14.0772 1 13.5998V9.0998C1 8.62242 1.18964 8.16458 1.52721 7.82701C1.86477 7.48945 2.32261 7.2998 2.8 7.2998H17.2C17.6774 7.2998 18.1352 7.48945 18.4728 7.82701C18.8104 8.16458 19 8.62242 19 9.0998V13.5998C19 14.0772 18.8104 14.535 18.4728 14.8726C18.1352 15.2102 17.6774 15.3998 17.2 15.3998H15.4"
			stroke-linecap="round" stroke-linejoin="round" />
		<path d="M15.4016 11.7998H4.60156V18.9998H15.4016V11.7998Z" stroke-linecap="round" stroke-linejoin="round" />
	</symbol>

	<symbol id="question" viewBox="0 0 5 7">
		<path
			d="M1.85962 4.72544C1.85962 4.46886 1.90929 4.23105 2.00862 4.01202C2.10796 3.79299 2.22937 3.60525 2.37285 3.4488C2.51633 3.2861 2.65981 3.13278 2.8033 2.98884C2.94678 2.83866 3.06819 2.67907 3.16753 2.51011C3.26686 2.33488 3.31653 2.1534 3.31653 1.96567C3.31653 1.70283 3.23651 1.50257 3.07647 1.36489C2.91643 1.22096 2.70121 1.149 2.4308 1.149C2.17142 1.149 1.94792 1.2241 1.76029 1.37428C1.57265 1.52448 1.43745 1.73725 1.35467 2.01259L0.535156 1.48693C0.689677 1.04261 0.938015 0.701551 1.28017 0.463748C1.62784 0.219686 2.01966 0.0976562 2.45563 0.0976562C2.94678 0.0976562 3.37172 0.257234 3.73042 0.576391C4.08913 0.895552 4.26849 1.33674 4.26849 1.89996C4.26849 2.16279 4.21882 2.40998 4.11949 2.64153C4.02015 2.86681 3.89874 3.06081 3.75526 3.22352C3.61177 3.38622 3.46829 3.5458 3.32481 3.70225C3.18133 3.85245 3.05992 4.01515 2.96058 4.19037C2.86125 4.3656 2.81158 4.54395 2.81158 4.72544H1.85962ZM2.77847 6.6967C2.65705 6.83437 2.51081 6.90321 2.33974 6.90321C2.16866 6.90321 2.02242 6.83437 1.90101 6.6967C1.7796 6.55902 1.71889 6.39319 1.71889 6.19919C1.71889 6.00519 1.77684 5.83935 1.89273 5.70168C2.01414 5.564 2.16314 5.49516 2.33974 5.49516C2.51081 5.49516 2.65705 5.564 2.77847 5.70168C2.89988 5.83935 2.96058 6.00519 2.96058 6.19919C2.96058 6.39319 2.89988 6.55902 2.77847 6.6967Z"/>
	</symbol>


</svg>