<svg display="none" xmlns="http://www.w3.org/2000/svg">

	<symbol id="basket" viewBox="0 0 42 34">
		<path
			d="M41.9087 7.66528L37.0239 23.5131C36.6587 24.6418 35.7 25.3942 34.5587 25.3942H15.7043C14.6087 25.3942 13.5587 24.6888 13.1935 23.6542L5.98043 3.7621H1.82609C0.821739 3.7621 0 2.91563 0 1.88105C0 0.846473 0.821739 0 1.82609 0H7.2587C8.03478 0 8.71957 0.517289 8.99348 1.26971L16.4348 21.6321H33.7826L37.663 8.93499H16.1609C15.1565 8.93499 14.3348 8.08852 14.3348 7.05394C14.3348 6.01936 15.1565 5.17289 16.1609 5.17289H40.1739C40.7674 5.17289 41.3152 5.50207 41.6348 5.97234C42 6.4426 42.0913 7.10097 41.9087 7.66528ZM16.6174 27.8866C15.8413 27.8866 15.0652 28.2158 14.5174 28.7801C13.9696 29.3444 13.65 30.1438 13.65 30.9433C13.65 31.7427 13.9696 32.5422 14.5174 33.1065C15.0652 33.6708 15.8413 34 16.6174 34C17.3935 34 18.1696 33.6708 18.7174 33.1065C19.2652 32.5422 19.5848 31.7427 19.5848 30.9433C19.5848 30.1438 19.2652 29.3444 18.7174 28.7801C18.1696 28.2158 17.3935 27.8866 16.6174 27.8866ZM33.0065 27.8866C32.2304 27.8866 31.4543 28.2158 30.9065 28.7801C30.3587 29.3444 30.0391 30.1438 30.0391 30.9433C30.0391 31.7427 30.3587 32.5422 30.9065 33.1065C31.4543 33.6708 32.2304 34 33.0065 34C33.7826 34 34.5587 33.6708 35.1065 33.1065C35.6544 32.5422 35.9739 31.7427 35.9739 30.9433C35.9739 30.1438 35.6544 29.3444 35.1065 28.7801C34.5587 28.2158 33.7826 27.8866 33.0065 27.8866Z" />
	</symbol>


	<symbol id="search" viewBox="0 0 20 20">
		<path
			d="M19.7663 18.5889L14.7962 13.6188C16.1506 11.9623 16.8165 9.84866 16.6562 7.71497C16.4959 5.58128 15.5216 3.59083 13.9349 2.15534C12.3482 0.719841 10.2704 -0.0508742 8.13136 0.00260835C5.99233 0.0560909 3.95568 0.929679 2.44268 2.44268C0.929679 3.95568 0.0560909 5.99233 0.00260835 8.13136C-0.0508742 10.2704 0.719841 12.3482 2.15534 13.9349C3.59083 15.5216 5.58128 16.4959 7.71497 16.6562C9.84866 16.8165 11.9623 16.1506 13.6188 14.7962L18.5889 19.7663C18.7459 19.9179 18.9563 20.0019 19.1746 20C19.3929 19.9981 19.6017 19.9105 19.7561 19.7561C19.9105 19.6017 19.9981 19.3929 20 19.1746C20.0019 18.9563 19.9179 18.7459 19.7663 18.5889ZM8.35314 15.0143C7.03568 15.0143 5.74781 14.6237 4.65238 13.8917C3.55695 13.1598 2.70317 12.1194 2.199 10.9023C1.69483 9.6851 1.56292 8.34575 1.81994 7.05361C2.07697 5.76146 2.71138 4.57455 3.64297 3.64297C4.57455 2.71138 5.76146 2.07697 7.05361 1.81994C8.34575 1.56292 9.6851 1.69483 10.9023 2.199C12.1194 2.70317 13.1598 3.55695 13.8917 4.65238C14.6237 5.74781 15.0143 7.03568 15.0143 8.35314C15.0124 10.1192 14.3099 11.8123 13.0611 13.0611C11.8123 14.3099 10.1192 15.0124 8.35314 15.0143Z" />
	</symbol>
	<symbol id="prev2" viewBox="0 0 14 22">
		<path d="M11.7617 20L1.99982 11L11.7617 2.00003" stroke-width="3" stroke-linecap="round" stroke-linejoin="round" />
	</symbol>

	<symbol id="prev" viewBox="0 0 24 24">
		<path d="M14.7778 5.51848L8.2963 12L14.7778 18.4814" />
	</symbol>

	<symbol id="next" viewBox="0 0 24 24">
		<path d="M9.22225 18.4815L15.7037 12L9.22225 5.51855" />
	</symbol>

	<symbol id="next2" viewBox="0 0 14 22">
		<path d="M2.23779 2L11.9997 11L2.23779 20" stroke-width="3" stroke-linecap="round" stroke-linejoin="round" />
	</symbol>


	<symbol id="play" viewBox="0 0 14 16">
		<path d="M14 8L0.499999 15.7942L0.5 0.205771L14 8Z" />
	</symbol>

	<symbol id="close" viewBox="0 0 16 16">
		<path fill-rule="evenodd" clip-rule="evenodd"
			d="M2.13139 0.7183C1.93612 0.523038 1.61954 0.523038 1.42428 0.7183C1.22902 0.913562 1.22902 1.23014 1.42428 1.42541L7.43449 7.43562L0.717323 14.1528C0.522061 14.3481 0.522061 14.6646 0.717323 14.8599C0.912585 15.0552 1.22917 15.0552 1.42443 14.8599L8.1416 8.14273L14.8593 14.8604C15.0546 15.0557 15.3712 15.0557 15.5664 14.8604C15.7617 14.6652 15.7617 14.3486 15.5664 14.1533L8.84871 7.43562L14.8595 1.42487C15.0547 1.22961 15.0547 0.913027 14.8595 0.717766C14.6642 0.522504 14.3476 0.522504 14.1524 0.717766L8.1416 6.72852L2.13139 0.7183Z"/>
		<path fill-rule="evenodd" clip-rule="evenodd"
			d="M2.13139 0.7183C1.93612 0.523038 1.61954 0.523038 1.42428 0.7183C1.22902 0.913562 1.22902 1.23014 1.42428 1.42541L7.43449 7.43562L0.717323 14.1528C0.522061 14.3481 0.522061 14.6646 0.717323 14.8599C0.912585 15.0552 1.22917 15.0552 1.42443 14.8599L8.1416 8.14273L14.8593 14.8604C15.0546 15.0557 15.3712 15.0557 15.5664 14.8604C15.7617 14.6652 15.7617 14.3486 15.5664 14.1533L8.84871 7.43562L14.8595 1.42487C15.0547 1.22961 15.0547 0.913027 14.8595 0.717766C14.6642 0.522504 14.3476 0.522504 14.1524 0.717766L8.1416 6.72852L2.13139 0.7183Z"
	 fill-opacity="0.2" />
	</symbol>


</svg>