<svg width="19" height="21" viewBox="0 0 19 21" fill="none" xmlns="http://www.w3.org/2000/svg">
<path d="M14.7059 0.498443C11.2574 -0.166148 7.67626 -0.166148 4.22775 0.498443C2.70244 0.830738 0.779232 2.69159 0.447644 4.15369C-0.149215 7.01143 -0.149215 9.93563 0.447644 12.7934C0.84555 14.2555 2.76876 16.1163 4.22775 16.4486C4.29406 16.4486 4.36038 16.5151 4.36038 16.5815L4.36038 20.7685C4.36038 20.9678 4.62566 21.1007 4.75829 20.9014L6.74782 18.8411C6.74782 18.8411 8.33944 17.1797 8.60471 16.9138C8.60471 16.9138 8.67103 16.8474 8.73735 16.8474C10.7269 16.9138 12.7827 16.7145 14.7723 16.3822C16.2976 16.0499 18.2208 14.189 18.5524 12.7269C19.1492 9.86917 19.1492 6.94497 18.5524 4.08723C18.1544 2.69159 16.2312 0.830738 14.7059 0.498443ZM14.7723 12.9927C14.4407 13.6573 14.0428 14.189 13.3796 14.5213C13.1806 14.5878 12.9817 14.6542 12.7827 14.7207C12.5175 14.6542 12.3185 14.5878 12.1195 14.5213C9.99738 13.6573 8.00785 12.4611 6.41623 10.7331C5.5541 9.73625 4.82461 8.60645 4.22775 7.41018C3.96248 6.81205 3.69721 6.28038 3.49825 5.68225C3.2993 5.15058 3.63089 4.61891 3.96248 4.22015C4.29406 3.8214 4.69197 3.55556 5.1562 3.35618C5.48778 3.1568 5.81937 3.28972 6.08464 3.55556C6.61518 4.22015 7.14572 4.88474 7.54363 5.61579C7.8089 6.081 7.74258 6.61268 7.27836 6.94497C7.14572 7.01143 7.0794 7.07789 6.94677 7.21081C6.88045 7.27727 6.74782 7.34372 6.6815 7.47664C6.54886 7.67602 6.54886 7.8754 6.61518 8.07478C7.14572 9.60333 8.14049 10.7996 9.66579 11.4642C9.93106 11.5971 10.13 11.6636 10.4616 11.6636C10.9258 11.5971 11.1248 11.0654 11.4564 10.7996C11.788 10.5338 12.1859 10.5338 12.5838 10.7331C12.9154 10.9325 13.2469 11.1983 13.6448 11.4642C13.9764 11.73 14.308 11.9294 14.6396 12.1952C14.8386 12.3282 14.9049 12.6605 14.7723 12.9927ZM11.9869 8.00832C11.8543 8.00832 11.9206 8.00832 11.9869 8.00832C11.7216 8.00832 11.6553 7.8754 11.589 7.67602C11.589 7.5431 11.589 7.34373 11.5227 7.21081C11.4564 6.94497 11.3237 6.67914 11.0585 6.47976C10.9258 6.4133 10.7932 6.34684 10.6606 6.28038C10.4616 6.21392 10.329 6.21392 10.13 6.21392C9.93106 6.14746 9.86475 6.01454 9.86475 5.81517C9.86475 5.68225 10.0637 5.54933 10.1963 5.54933C11.2574 5.61579 12.0532 6.21392 12.1859 7.47664C12.1859 7.5431 12.1859 7.67602 12.1859 7.74248C12.1859 7.8754 12.1195 8.00832 11.9869 8.00832ZM11.3237 5.08412C10.9921 4.9512 10.6606 4.81828 10.2627 4.75182C10.13 4.75182 9.93106 4.68536 9.79843 4.68536C9.59948 4.68536 9.46684 4.55244 9.53316 4.35307C9.53316 4.15369 9.66579 4.02077 9.86475 4.08723C10.5279 4.15369 11.1248 4.28661 11.7216 4.55245C12.9154 5.15058 13.5785 6.14746 13.7775 7.47664C13.7775 7.5431 13.7775 7.60956 13.7775 7.67602C13.7775 7.80894 13.7775 7.94186 13.7775 8.14123C13.7775 8.20769 13.7775 8.27415 13.7775 8.34061C13.7112 8.60645 13.2469 8.67291 13.1806 8.34061C13.1806 8.27415 13.1143 8.14123 13.1143 8.07478C13.1143 7.47664 12.9817 6.87851 12.7164 6.34684C12.3185 5.74871 11.8543 5.34995 11.3237 5.08412ZM14.9049 9.07166C14.7059 9.07166 14.5733 8.87228 14.5733 8.67291C14.5733 8.27415 14.507 7.8754 14.4407 7.47664C14.1754 5.34995 12.4511 3.62202 10.3953 3.28972C10.0637 3.22326 9.73211 3.22326 9.46684 3.15681C9.26789 3.15681 9.00262 3.15681 8.9363 2.89097C8.86998 2.69159 9.06893 2.49221 9.26789 2.49221C9.3342 2.49221 9.40053 2.49221 9.40053 2.49221C12.1195 2.55867 9.53316 2.49221 9.40053 2.49221C12.1859 2.55867 14.507 4.41953 14.9712 7.21081C15.0375 7.67602 15.1038 8.14124 15.1038 8.67291C15.2365 8.87228 15.1038 9.07166 14.9049 9.07166Z" fill="#D60000"/>
</svg>
