<svg width="60" height="58" viewBox="0 0 60 58" fill="none" xmlns="http://www.w3.org/2000/svg">
<mask id="path-1-inside-1_270_5575" fill="white">
<path fill-rule="evenodd" clip-rule="evenodd" d="M22.0316 0.0611337C20.1642 0.217556 18.4692 0.502742 16.7303 0.953034C11.4613 2.31742 6.93228 5.04805 3.92701 8.67231C1.82536 11.2068 0.570452 13.9577 0.111659 17.036C-0.0226209 17.937 -0.0393522 20.2992 0.0808927 21.3752C0.507082 25.1876 1.9081 28.8069 4.05192 31.6339C4.58389 32.3354 5.97749 33.7983 6.64858 34.3597C7.284 34.8912 8.34727 35.6401 9.00813 36.0214L9.49842 36.3042L9.48721 36.7986C9.4508 38.4064 8.55509 40.8474 6.86486 43.9448C6.57712 44.4721 6.31163 45.0208 6.27485 45.1641C6.11833 45.7743 6.42065 46.4605 6.97818 46.7605C7.51726 47.0505 8.23591 46.9645 9.77421 46.4259C11.7097 45.7481 13.9249 44.5482 16.3626 42.8572C17.9259 41.7726 19.6291 40.4083 20.5276 39.5211L20.954 39.0998L21.4162 39.1777C22.0549 39.2854 26.6956 39.2796 27.7619 39.1699C30.4764 38.8905 32.6005 38.4384 34.7934 37.6734C38.3061 36.4478 41.2045 34.6499 43.5343 32.2514C46.423 29.2774 48.0304 25.974 48.6076 21.8254C48.7629 20.7091 48.7645 18.055 48.6106 17.0337C48.1725 14.1282 47.0952 11.5862 45.2848 9.18686C44.6807 8.38635 42.8242 6.47514 42.0111 5.81684C37.8943 2.48374 32.7477 0.532522 26.815 0.0556023C25.8612 -0.021065 22.9731 -0.0177204 22.0316 0.0611337ZM27.5474 4.07118C31.7926 4.56347 35.4904 5.88946 38.564 8.02147C42.0051 10.4085 44.2288 13.6646 44.8403 17.2118C45.0124 18.21 45.0254 20.0053 44.8683 21.0834C44.5554 23.2319 43.8309 25.1976 42.6955 26.9783C39.8888 31.3804 34.7986 34.3348 28.5843 35.1685C26.6223 35.4317 23.8041 35.4895 22.2767 35.2979C21.9902 35.262 21.2195 35.1904 20.5642 35.1389C19.5785 35.0615 19.3561 35.0599 19.2772 35.13C19.2247 35.1765 18.7543 35.5875 18.2318 36.0432C17.7093 36.499 16.9586 37.1821 16.5635 37.5612C15.8957 38.2021 14.8504 39.1102 13.967 39.8169C13.5234 40.1718 11.9657 41.2881 11.9459 41.2654C11.9383 41.2566 12.0244 40.96 12.1373 40.6063C12.7854 38.5757 13.0514 37.2994 13.1726 35.6398C13.2248 34.9246 13.2676 34.2379 13.2676 34.114V33.8885L12.1184 33.2783C10.0312 32.1701 9.27613 31.6237 8.02343 30.3154C7.54925 29.8201 6.96721 29.14 6.73003 28.8039C5.00811 26.3642 4.00436 23.4793 3.76485 20.2817C3.53423 17.2032 4.31116 14.5132 6.17974 11.9204C6.67414 11.2344 7.88259 9.93996 8.6404 9.28468C11.622 6.70668 15.6478 4.94713 20.1889 4.23738C20.8839 4.12874 21.4324 4.06777 22.767 3.95078C23.4379 3.89199 26.7135 3.97451 27.5474 4.07118ZM13.7643 17.3243C12.7635 17.6192 12.0814 18.4077 11.9078 19.4703C11.7211 20.6129 12.2968 21.7575 13.312 22.2622C13.7012 22.4556 13.7694 22.4686 14.4028 22.4686C15.0405 22.4686 15.101 22.4569 15.4808 22.2606C15.9738 22.0058 16.4593 21.4867 16.685 20.9734C16.9154 20.4494 16.9528 19.5423 16.7656 19.0208C16.3864 17.9644 15.5644 17.316 14.5239 17.2529C14.2539 17.2365 13.9724 17.2629 13.7643 17.3243ZM24.3605 17.3297C22.827 17.7603 22.0583 19.5525 22.7629 21.0545C22.9921 21.5432 23.497 22.0589 23.9773 22.2952C24.2932 22.4506 24.3999 22.4686 25.004 22.4686C25.631 22.4686 25.7062 22.4546 26.0797 22.2689C27.0777 21.7725 27.6817 20.5857 27.4968 19.4842C27.2315 17.9036 25.8056 16.924 24.3605 17.3297ZM34.9646 17.3297C34.2818 17.5223 33.6884 18.049 33.3561 18.7573C33.2 19.0901 33.1582 19.2695 33.1367 19.6988C33.079 20.8511 33.6002 21.7819 34.588 22.291C34.9035 22.4536 34.9918 22.4686 35.6373 22.4686C36.2928 22.4686 36.3678 22.4554 36.7098 22.2795C38.2406 21.4928 38.6179 19.4185 37.47 18.1004C36.8375 17.3741 35.8664 17.0754 34.9646 17.3297ZM53.0428 22.8421C53.0428 23.3164 52.7784 24.6079 52.3853 26.0533C52.2628 26.5039 52.1744 26.8813 52.189 26.892C53.7065 28.0165 54.8187 29.2691 55.4002 30.5083C55.9037 31.5816 56.1253 32.5214 56.2353 34.0499C56.4198 36.6157 55.9027 38.8473 54.6934 40.7028C53.6266 42.3399 52.1088 43.5885 49.5212 44.9578C48.7783 45.3509 48.1608 45.6812 48.149 45.6917C48.0802 45.7534 48.4443 51.0039 48.5642 51.6769C48.5917 51.8317 48.6024 51.9585 48.5879 51.9585C48.5292 51.9585 47.541 51.1386 46.9263 50.5798C45.7391 49.5006 44.6754 48.2892 43.8146 47.0361L43.6875 46.8511L42.5582 47.0377C41.5295 47.2077 41.257 47.2266 39.4984 47.2501C38.351 47.2654 37.2132 47.2459 36.6937 47.2019C32.9239 46.8827 29.9963 45.8167 27.285 43.7759L26.6854 43.3246L24.0863 43.35C22.6567 43.3639 21.4678 43.3955 21.4442 43.4203C21.3344 43.5355 22.9947 45.3051 24.0541 46.202C27.1251 48.8021 30.8686 50.3965 35.3067 50.9946C37.1705 51.2457 40.5844 51.3132 41.8299 51.1234L42.2309 51.0623L43.1172 51.9767C44.5385 53.443 45.9655 54.6505 47.6593 55.8201C50.0045 57.4396 52.4336 58.3331 53.2715 57.8845C53.7416 57.6328 54.0219 57.0436 53.9087 56.5455C53.878 56.4104 53.7262 56.0191 53.5713 55.6759C52.8237 54.0192 51.9974 50.7571 51.9047 49.0963C51.887 48.7779 51.861 48.4396 51.847 48.3445C51.8236 48.1852 51.8639 48.1474 52.3556 47.8676C54.8468 46.4495 56.9055 44.5168 58.1276 42.4489C59.0298 40.9224 59.6006 39.2503 59.8876 37.2939C60.0388 36.2631 60.0371 33.7212 59.8846 32.6341C59.3134 28.5647 57.4497 25.5885 53.9553 23.1653C53.5302 22.8706 53.151 22.6294 53.1126 22.6294C53.0742 22.6294 53.0428 22.7251 53.0428 22.8421Z"/>
</mask>
<path fill-rule="evenodd" clip-rule="evenodd" d="M22.0316 0.0611337C20.1642 0.217556 18.4692 0.502742 16.7303 0.953034C11.4613 2.31742 6.93228 5.04805 3.92701 8.67231C1.82536 11.2068 0.570452 13.9577 0.111659 17.036C-0.0226209 17.937 -0.0393522 20.2992 0.0808927 21.3752C0.507082 25.1876 1.9081 28.8069 4.05192 31.6339C4.58389 32.3354 5.97749 33.7983 6.64858 34.3597C7.284 34.8912 8.34727 35.6401 9.00813 36.0214L9.49842 36.3042L9.48721 36.7986C9.4508 38.4064 8.55509 40.8474 6.86486 43.9448C6.57712 44.4721 6.31163 45.0208 6.27485 45.1641C6.11833 45.7743 6.42065 46.4605 6.97818 46.7605C7.51726 47.0505 8.23591 46.9645 9.77421 46.4259C11.7097 45.7481 13.9249 44.5482 16.3626 42.8572C17.9259 41.7726 19.6291 40.4083 20.5276 39.5211L20.954 39.0998L21.4162 39.1777C22.0549 39.2854 26.6956 39.2796 27.7619 39.1699C30.4764 38.8905 32.6005 38.4384 34.7934 37.6734C38.3061 36.4478 41.2045 34.6499 43.5343 32.2514C46.423 29.2774 48.0304 25.974 48.6076 21.8254C48.7629 20.7091 48.7645 18.055 48.6106 17.0337C48.1725 14.1282 47.0952 11.5862 45.2848 9.18686C44.6807 8.38635 42.8242 6.47514 42.0111 5.81684C37.8943 2.48374 32.7477 0.532522 26.815 0.0556023C25.8612 -0.021065 22.9731 -0.0177204 22.0316 0.0611337ZM27.5474 4.07118C31.7926 4.56347 35.4904 5.88946 38.564 8.02147C42.0051 10.4085 44.2288 13.6646 44.8403 17.2118C45.0124 18.21 45.0254 20.0053 44.8683 21.0834C44.5554 23.2319 43.8309 25.1976 42.6955 26.9783C39.8888 31.3804 34.7986 34.3348 28.5843 35.1685C26.6223 35.4317 23.8041 35.4895 22.2767 35.2979C21.9902 35.262 21.2195 35.1904 20.5642 35.1389C19.5785 35.0615 19.3561 35.0599 19.2772 35.13C19.2247 35.1765 18.7543 35.5875 18.2318 36.0432C17.7093 36.499 16.9586 37.1821 16.5635 37.5612C15.8957 38.2021 14.8504 39.1102 13.967 39.8169C13.5234 40.1718 11.9657 41.2881 11.9459 41.2654C11.9383 41.2566 12.0244 40.96 12.1373 40.6063C12.7854 38.5757 13.0514 37.2994 13.1726 35.6398C13.2248 34.9246 13.2676 34.2379 13.2676 34.114V33.8885L12.1184 33.2783C10.0312 32.1701 9.27613 31.6237 8.02343 30.3154C7.54925 29.8201 6.96721 29.14 6.73003 28.8039C5.00811 26.3642 4.00436 23.4793 3.76485 20.2817C3.53423 17.2032 4.31116 14.5132 6.17974 11.9204C6.67414 11.2344 7.88259 9.93996 8.6404 9.28468C11.622 6.70668 15.6478 4.94713 20.1889 4.23738C20.8839 4.12874 21.4324 4.06777 22.767 3.95078C23.4379 3.89199 26.7135 3.97451 27.5474 4.07118ZM13.7643 17.3243C12.7635 17.6192 12.0814 18.4077 11.9078 19.4703C11.7211 20.6129 12.2968 21.7575 13.312 22.2622C13.7012 22.4556 13.7694 22.4686 14.4028 22.4686C15.0405 22.4686 15.101 22.4569 15.4808 22.2606C15.9738 22.0058 16.4593 21.4867 16.685 20.9734C16.9154 20.4494 16.9528 19.5423 16.7656 19.0208C16.3864 17.9644 15.5644 17.316 14.5239 17.2529C14.2539 17.2365 13.9724 17.2629 13.7643 17.3243ZM24.3605 17.3297C22.827 17.7603 22.0583 19.5525 22.7629 21.0545C22.9921 21.5432 23.497 22.0589 23.9773 22.2952C24.2932 22.4506 24.3999 22.4686 25.004 22.4686C25.631 22.4686 25.7062 22.4546 26.0797 22.2689C27.0777 21.7725 27.6817 20.5857 27.4968 19.4842C27.2315 17.9036 25.8056 16.924 24.3605 17.3297ZM34.9646 17.3297C34.2818 17.5223 33.6884 18.049 33.3561 18.7573C33.2 19.0901 33.1582 19.2695 33.1367 19.6988C33.079 20.8511 33.6002 21.7819 34.588 22.291C34.9035 22.4536 34.9918 22.4686 35.6373 22.4686C36.2928 22.4686 36.3678 22.4554 36.7098 22.2795C38.2406 21.4928 38.6179 19.4185 37.47 18.1004C36.8375 17.3741 35.8664 17.0754 34.9646 17.3297ZM53.0428 22.8421C53.0428 23.3164 52.7784 24.6079 52.3853 26.0533C52.2628 26.5039 52.1744 26.8813 52.189 26.892C53.7065 28.0165 54.8187 29.2691 55.4002 30.5083C55.9037 31.5816 56.1253 32.5214 56.2353 34.0499C56.4198 36.6157 55.9027 38.8473 54.6934 40.7028C53.6266 42.3399 52.1088 43.5885 49.5212 44.9578C48.7783 45.3509 48.1608 45.6812 48.149 45.6917C48.0802 45.7534 48.4443 51.0039 48.5642 51.6769C48.5917 51.8317 48.6024 51.9585 48.5879 51.9585C48.5292 51.9585 47.541 51.1386 46.9263 50.5798C45.7391 49.5006 44.6754 48.2892 43.8146 47.0361L43.6875 46.8511L42.5582 47.0377C41.5295 47.2077 41.257 47.2266 39.4984 47.2501C38.351 47.2654 37.2132 47.2459 36.6937 47.2019C32.9239 46.8827 29.9963 45.8167 27.285 43.7759L26.6854 43.3246L24.0863 43.35C22.6567 43.3639 21.4678 43.3955 21.4442 43.4203C21.3344 43.5355 22.9947 45.3051 24.0541 46.202C27.1251 48.8021 30.8686 50.3965 35.3067 50.9946C37.1705 51.2457 40.5844 51.3132 41.8299 51.1234L42.2309 51.0623L43.1172 51.9767C44.5385 53.443 45.9655 54.6505 47.6593 55.8201C50.0045 57.4396 52.4336 58.3331 53.2715 57.8845C53.7416 57.6328 54.0219 57.0436 53.9087 56.5455C53.878 56.4104 53.7262 56.0191 53.5713 55.6759C52.8237 54.0192 51.9974 50.7571 51.9047 49.0963C51.887 48.7779 51.861 48.4396 51.847 48.3445C51.8236 48.1852 51.8639 48.1474 52.3556 47.8676C54.8468 46.4495 56.9055 44.5168 58.1276 42.4489C59.0298 40.9224 59.6006 39.2503 59.8876 37.2939C60.0388 36.2631 60.0371 33.7212 59.8846 32.6341C59.3134 28.5647 57.4497 25.5885 53.9553 23.1653C53.5302 22.8706 53.151 22.6294 53.1126 22.6294C53.0742 22.6294 53.0428 22.7251 53.0428 22.8421Z" fill="white" stroke="#D60000" stroke-width="1.6" mask="url(#path-1-inside-1_270_5575)"/>
</svg>
