<svg width="64" height="53" viewBox="0 0 64 53" fill="none" xmlns="http://www.w3.org/2000/svg">
<path fill-rule="evenodd" clip-rule="evenodd" d="M2.29579 0.0568901C1.92487 0.154985 1.48665 0.619616 1.39094 1.01641C1.25461 1.58162 1.49921 2.15658 2.00084 2.44981L2.29217 2.6201L20.6962 2.65116L39.1002 2.68222L39.3606 2.85362C39.5038 2.94787 39.6986 3.14151 39.7934 3.2839L39.9657 3.5429L39.997 16.283L40.0282 29.0231L40.1649 29.2416C40.5799 29.9051 41.2518 30.0989 41.9379 29.7531C42.1924 29.6248 42.3236 29.5061 42.4645 29.2765L42.6522 28.9708L42.6689 19.787L42.6855 10.6031L48.0731 10.6045C53.1775 10.6058 53.4739 10.6119 53.7107 10.7205C53.8481 10.7836 54.0214 10.9018 54.0958 10.9832C54.2372 11.1379 60.6428 21.7258 60.9004 22.2305C60.9817 22.3898 61.1052 22.7247 61.1749 22.9747C61.2964 23.4107 61.3016 23.601 61.3016 27.6085V31.7877L31.9843 31.7882C12.3781 31.7885 2.53708 31.8096 2.2748 31.8519C1.226 32.0211 0.371878 32.7907 0.108101 33.8043C-0.0360336 34.3582 -0.0360336 42.5119 0.108101 43.0658C0.372315 44.0811 1.22088 44.8481 2.2663 45.0168C2.5139 45.0567 4.20121 45.0816 6.68117 45.0819L10.6953 45.0824V45.447C10.6953 46.6736 11.2456 48.3035 12.077 49.5389C12.5028 50.1717 13.5968 51.2524 14.2253 51.661C16.3147 53.0197 18.8414 53.3631 21.1735 52.6053C23.5479 51.8338 25.454 49.942 26.2499 47.5674C26.4344 47.017 26.5755 46.2883 26.662 45.4396L26.6984 45.0824H33.3351H39.9718L40.0461 45.8123C40.4057 49.3415 42.9323 52.1207 46.4487 52.8554C47.3305 53.0396 48.6397 53.0388 49.5393 52.8534C53.0453 52.1314 55.5823 49.3413 55.9419 45.8123L56.0162 45.0824L58.6746 45.0819C60.2152 45.0816 61.5013 45.0542 61.7336 45.0168C62.779 44.8481 63.6275 44.0811 63.8918 43.0658C64.0333 42.5221 64.0373 23.8612 63.8962 22.9956C63.786 22.3202 63.5559 21.5977 63.2747 21.0448C62.9314 20.3695 56.3719 9.53918 56.1627 9.30224C55.6949 8.77244 55.0082 8.33539 54.2416 8.07962C53.9197 7.97227 53.5459 7.96382 48.296 7.94618L42.6939 7.92735L42.6692 5.61544C42.6455 3.41169 42.6377 3.28309 42.5016 2.8686C42.2728 2.17125 42.0008 1.72426 41.4964 1.21639C40.9849 0.70131 40.4782 0.388636 39.7783 0.156103L39.341 0.0108558L20.9415 0.00135072C8.2797 -0.00523451 2.46529 0.0120981 2.29579 0.0568901ZM7.71766 7.99085C6.68261 8.23816 6.34504 9.54521 7.13338 10.2534C7.26639 10.3728 7.48262 10.5003 7.61389 10.5365C7.98138 10.638 26.7456 10.6285 27.0882 10.5267C27.4442 10.421 27.8315 10.0216 27.9352 9.65343C28.1076 9.04119 27.837 8.40447 27.2841 8.12156L26.9739 7.96283L17.4445 7.95326C12.2033 7.94798 7.82625 7.96494 7.71766 7.99085ZM46.0497 13.2617C45.8064 13.3881 45.6643 13.5177 45.5271 13.7383L45.3387 14.0413V18.5208V23.0003L45.4984 23.3087C45.6117 23.5278 45.746 23.6713 45.962 23.8041L46.266 23.991L51.2756 24.0076L56.285 24.0243L56.6213 23.8496C57.2623 23.5166 57.5268 22.7465 57.2074 22.1434C57.1398 22.0156 55.8642 20.022 54.3729 17.7131C52.6747 15.0839 51.5891 13.4617 51.4677 13.3723C51.1017 13.1025 50.9574 13.0881 48.6166 13.0881H46.3839L46.0497 13.2617ZM51.7537 18.558L53.5455 21.3507H50.7697H47.994V18.5551V15.7595L48.978 15.7624L49.962 15.7653L51.7537 18.558ZM13.0217 15.944C12.4968 16.0692 12.0073 16.6646 12.0073 17.1778C12.0073 17.7505 12.4126 18.3278 12.9205 18.4787C13.293 18.5894 26.7158 18.5894 27.0882 18.4787C27.4442 18.373 27.8315 17.9736 27.9352 17.6054C28.1076 16.9932 27.837 16.3565 27.2841 16.0735L26.9739 15.9148L20.0998 15.9051C16.319 15.8998 13.1338 15.9173 13.0217 15.944ZM18.2899 23.9124C17.9188 24.0111 17.4807 24.476 17.385 24.8723C17.2405 25.4716 17.5209 26.0692 18.0756 26.3441L18.4045 26.5071H22.6178C25.7705 26.5071 26.8958 26.4878 27.0882 26.4307C27.4442 26.3249 27.8315 25.9255 27.9352 25.5574C28.1076 24.9451 27.837 24.3085 27.2841 24.0255L26.974 23.8668L22.7551 23.8568C19.9613 23.8502 18.4529 23.869 18.2899 23.9124ZM61.3016 38.435V42.411H58.3964C56.272 42.411 55.4912 42.3921 55.4912 42.3406C55.4912 42.3018 55.3687 42.0129 55.2189 41.6984C53.6772 38.4621 50.2279 36.6548 46.6837 37.2263C44.1513 37.6347 41.8922 39.341 40.7728 41.6907C40.621 42.0094 40.4968 42.3018 40.4968 42.3406C40.4968 42.3927 38.6389 42.411 33.3576 42.411H26.2184L25.9392 41.8053C25.5186 40.8932 25.0077 40.1641 24.2918 39.4543C22.7384 37.9144 20.8389 37.1304 18.6611 37.1304C16.5286 37.1304 14.5852 37.9287 13.0655 39.429C12.3801 40.1057 11.7492 41.0058 11.3808 41.8325L11.1369 42.38L6.91758 42.3959L2.69827 42.4119V38.4355V34.459H31.9999H61.3016V38.435ZM19.9954 39.9312C21.9746 40.4328 23.5216 42.0765 23.9049 44.0852C24.1396 45.3156 23.9283 46.5684 23.2965 47.6916C22.9381 48.329 21.9574 49.3042 21.3164 49.6606C19.2572 50.8057 16.7799 50.5209 15.0579 48.9411C14.3022 48.2478 13.7702 47.3643 13.5011 46.3559C13.3098 45.6392 13.3081 44.4974 13.4973 43.7879C14.0683 41.6466 15.7987 40.104 17.9695 39.801C18.4966 39.7274 19.4271 39.7872 19.9954 39.9312ZM49.173 39.897C50.1362 40.1225 50.9199 40.5442 51.6304 41.2193C52.8215 42.3508 53.3555 43.6632 53.2877 45.2922C53.2498 46.2039 53.1486 46.6005 52.7466 47.4121C52.2388 48.4371 51.4953 49.2001 50.4838 49.734C47.8253 51.1373 44.5697 50.0936 43.2415 47.4121C42.8394 46.6005 42.7382 46.2039 42.7003 45.2922C42.6326 43.6666 43.1745 42.3306 44.3476 41.2306C45.4306 40.2152 46.79 39.7034 48.2127 39.7754C48.5219 39.791 48.9541 39.8458 49.173 39.897Z" fill="white"/>
</svg>
