<svg width="61" height="61" viewBox="0 0 61 61" fill="none" xmlns="http://www.w3.org/2000/svg">
<path fill-rule="evenodd" clip-rule="evenodd" d="M13.5766 19.6778C13.565 19.679 13.5534 19.6777 13.5424 19.6741H13.544C12.6324 19.3943 11.6743 19.2991 10.7255 19.3938C9.77969 19.4851 8.85981 19.7554 8.01482 20.1903C7.48505 20.4583 6.98089 20.7695 6.60318 21.2425C6.38924 21.511 6.19398 21.8116 6.21852 22.1591C6.23965 22.347 6.19 22.536 6.07928 22.6892C5.39924 23.6655 4.71636 24.639 4.03064 25.6099C3.71923 26.0514 3.40569 26.4916 3.09216 26.9318C2.49204 27.7745 1.89198 28.617 1.30712 29.468C0.804032 30.2015 0.3799 30.9809 0.0982122 31.8351C-0.21762 32.7928 0.258796 33.7025 1.09052 34.0169C2.21275 34.4368 3.2575 35.0402 4.18215 35.8026C4.88744 36.3872 5.46362 37.0742 5.84561 37.9198C6.24626 38.8231 6.33376 39.7878 6.40631 40.7562C6.4179 40.9114 6.4283 41.0668 6.43871 41.2223C6.47098 41.7042 6.50327 42.1865 6.57063 42.6636C6.82031 44.4301 7.83609 45.6061 9.4686 46.2532C9.85112 46.4064 10.0976 46.6285 10.239 46.9936C10.3062 47.159 10.362 47.3288 10.406 47.5018C10.7394 48.8893 10.6738 50.288 10.5025 51.6866C10.4518 52.1014 10.4385 52.4992 10.7053 52.8488C10.8319 53.0121 10.9706 53.1655 11.1203 53.3079C11.3787 53.5584 11.6362 53.8097 11.8937 54.0611C12.6759 54.8246 13.4582 55.5881 14.2637 56.3263C14.7508 56.772 15.3088 57.1463 15.8605 57.5136C16.2947 57.8024 16.7888 57.9396 17.3223 57.8275C17.3807 57.8152 17.4396 57.8004 17.4987 57.7856C17.6662 57.7437 17.835 57.7014 17.9982 57.7148C18.4875 57.7492 18.9735 57.8206 19.452 57.9284C20.4257 58.1618 21.397 58.4058 22.3683 58.6499C23.0542 58.8222 23.7401 58.9946 24.4269 59.1631C24.6288 59.2127 24.8303 59.2642 25.0319 59.3157C25.9688 59.555 26.9064 59.7945 27.8797 59.8385C28.6132 59.8732 29.2108 59.6602 29.5783 58.9464C30.0279 58.0716 30.5045 57.2125 31.0081 56.369C31.4464 55.6215 32.0052 54.9518 32.662 54.3868C32.7809 54.2833 32.8882 54.2555 33.0354 54.3132C33.1981 54.377 33.3622 54.437 33.5263 54.4971C33.7976 54.5965 34.0691 54.6959 34.335 54.8123C36.4294 55.7321 38.4486 56.8019 40.4678 57.8718C40.8183 58.0574 41.1688 58.2431 41.5197 58.428C42.9703 59.1925 44.423 59.9538 45.8869 60.6926C46.7144 61.1101 47.5594 61.0999 48.397 60.6729C49.2646 60.2371 50.0805 59.705 50.8292 59.0868C51.9343 58.1657 53.0237 57.2274 54.0975 56.2718C54.4752 55.936 54.6422 55.4679 54.488 54.965C54.3664 54.5811 54.2055 54.2107 54.0078 53.8599C53.7247 53.3488 53.4256 52.8466 53.1264 52.3444C52.9978 52.1284 52.8692 51.9124 52.7418 51.6957C52.6543 51.5462 52.6165 51.3898 52.6842 51.2201C52.7315 51.1022 52.7755 50.9826 52.8196 50.8631C52.9107 50.6156 53.0019 50.3682 53.1217 50.1353C53.6984 49.0137 54.2778 47.8926 54.8924 46.7913C55.3187 46.0277 55.7572 45.2712 56.1957 44.5147C56.6062 43.8066 57.0166 43.0986 57.4169 42.3849C58.0944 41.1763 58.7565 39.9586 59.3855 38.7243C59.6115 38.2817 59.7448 37.7857 59.8749 37.3019L59.8753 37.3006C60.015 36.7833 59.6592 36.1485 59.1038 35.8816C58.573 35.6295 58.0963 35.2765 57.7002 34.8422C56.9629 34.0276 56.4657 33.0709 56.0922 32.0443C55.5022 30.4193 55.2359 28.7334 55.1634 27.0134C55.167 26.975 55.1797 26.938 55.2004 26.9054C55.2211 26.8728 55.2492 26.8456 55.2824 26.826C55.5721 26.6977 55.8638 26.5739 56.1556 26.4501C56.4613 26.3204 56.7671 26.1906 57.0707 26.0557C57.8021 25.7295 58.533 25.4006 59.2527 25.0499C59.6411 24.8609 59.871 24.5278 59.9777 24.1007C60.0611 23.7686 60.1515 23.4381 60.2418 23.1077C60.3646 22.6585 60.4874 22.2094 60.5928 21.7561C60.8617 20.596 61.0666 19.428 60.9801 18.2247C60.9197 17.2486 60.5221 16.324 59.8555 15.6088C59.5573 15.2815 59.1877 15.0543 58.8167 14.8263C58.7297 14.7728 58.6427 14.7193 58.5565 14.6645C57.8725 14.2283 57.1283 14.0735 56.3366 14.0772C55.3277 14.0826 54.3418 14.2625 53.3623 14.483C52.0246 14.783 50.688 15.0876 49.3525 15.3969C49.2117 15.4295 49.1509 15.3857 49.0794 15.2789C48.7879 14.8424 48.4946 14.407 48.2013 13.9715C47.7822 13.3493 47.3631 12.7271 46.9491 12.1015C46.6434 11.6392 46.231 11.415 45.6783 11.4208C45.2205 11.4247 44.7625 11.4234 44.3046 11.4221C44.0757 11.4215 43.8468 11.4208 43.6179 11.4208H43.6146C43.158 11.4208 43.1472 11.4208 43.094 10.9825C42.9437 9.76492 42.6037 8.57839 42.0862 7.46611C40.8197 4.73229 38.8436 2.66844 36.1473 1.32262C33.8042 0.154028 31.3261 -0.229271 28.7317 0.129473C27.4888 0.299268 26.2791 0.658057 25.1444 1.19343C23.2624 2.07292 21.6251 3.40163 20.3765 5.06274C18.999 6.88155 18.1796 8.92671 17.8974 11.1859C17.8712 11.3925 17.8131 11.4299 17.6242 11.4267C17.5601 11.4259 17.496 11.425 17.4319 11.4241C16.719 11.4137 16.0032 11.4034 15.3008 11.5772C14.2968 11.8266 13.5344 12.3839 13.1668 13.3688C13.002 13.8082 12.915 14.287 12.8579 14.7568C12.7805 15.3191 12.8735 15.8917 13.1247 16.4005C13.5584 17.2851 13.7857 18.2348 13.7227 19.2331C13.7088 19.3616 13.6842 19.4888 13.6491 19.6132C13.6466 19.6245 13.6418 19.6352 13.6349 19.6445C13.6281 19.6539 13.6193 19.6617 13.6093 19.6674C13.5992 19.6731 13.5881 19.6767 13.5766 19.6778ZM51.6887 54.9982C51.6859 55.0178 51.6762 55.0357 51.6615 55.0488C51.5517 55.1464 51.443 55.2438 51.3347 55.3407C51.0748 55.5734 50.8177 55.8036 50.5556 56.0289C49.7521 56.7155 48.9348 57.3854 48.0374 57.9508C47.9254 58.0213 47.8102 58.0869 47.6949 58.1526C47.3033 58.3763 46.9368 58.4062 46.5074 58.1734C44.781 57.2402 43.0396 56.3284 41.2961 55.4252C39.765 54.6324 38.2301 53.8439 36.683 53.0843C35.6725 52.5883 34.6466 52.118 33.5556 51.8174C32.981 51.6594 32.392 51.5222 31.8302 51.8351C31.4765 52.0315 31.1414 52.2597 30.8289 52.5168C29.9128 53.2759 29.2791 54.2651 28.6783 55.2719C28.3284 55.8551 28.0153 56.4588 27.703 57.061L27.6972 57.0721C27.6177 57.2242 27.5244 57.2563 27.383 57.2242C27.1706 57.1768 26.958 57.1301 26.7454 57.0834C26.1754 56.9582 25.6054 56.8329 25.0388 56.6941C24.342 56.5233 23.6462 56.3481 22.9505 56.1729C21.989 55.9308 21.0275 55.6887 20.0634 55.4583C19.5809 55.3431 19.0878 55.2728 18.5953 55.2025C18.4963 55.1884 18.3974 55.1743 18.2986 55.1598C18.0074 55.1114 17.7085 55.1485 17.438 55.2666C17.3584 55.308 17.2679 55.3239 17.179 55.312C17.09 55.3002 17.0069 55.2612 16.9408 55.2004C16.7796 55.0685 16.614 54.9413 16.4485 54.8142C16.1544 54.5883 15.8604 54.3624 15.591 54.1103C14.8706 53.437 14.1726 52.7397 13.4748 52.0426C13.3664 51.9344 13.2581 51.8262 13.1498 51.7181C13.1153 51.6779 13.0892 51.6311 13.0732 51.5806C13.0571 51.53 13.0514 51.4768 13.0564 51.424C13.194 50.4335 13.2189 49.4306 13.1305 48.4345C13.0655 47.6497 12.9251 46.8826 12.636 46.1491C12.2743 45.2309 11.72 44.4733 10.7922 44.0495C10.6428 43.9791 10.4875 43.9219 10.3281 43.8786C9.59291 43.6891 9.21626 43.1894 9.12343 42.4655C9.05034 41.8927 9.00072 41.3162 8.96018 40.7396C8.86628 39.3831 8.69609 38.0485 8.12418 36.7892C7.50106 35.4198 6.52849 34.3548 5.29663 33.53C4.77808 33.1839 4.23341 32.8748 3.68852 32.5657C3.4469 32.4286 3.20523 32.2915 2.96577 32.1511C2.92847 32.1292 2.88932 32.1096 2.83664 32.0833L2.82493 32.0774C2.81471 32.0724 2.80564 32.0653 2.79828 32.0566C2.79091 32.0479 2.78541 32.0378 2.78211 32.0269C2.77881 32.016 2.77778 32.0045 2.77909 31.9932C2.7804 31.9819 2.78402 31.9709 2.78972 31.9611C2.84543 31.8635 2.89929 31.7659 2.95277 31.6691C3.09646 31.4088 3.23737 31.1536 3.40378 30.9163C3.98761 30.0823 4.57776 29.2528 5.16785 28.4234C5.62168 27.7855 6.07548 27.1477 6.52635 26.5078C7.13276 25.6508 7.72726 24.786 8.30984 23.9133C8.3168 23.9029 8.3259 23.8887 8.33717 23.8711C8.59098 23.4741 9.9466 21.3541 12.8302 21.9798C12.9312 22.0035 13.029 22.0393 13.1215 22.0865C13.8769 22.4554 14.5513 22.2408 15.1765 21.7726C15.8658 21.2617 16.1283 20.516 16.2392 19.705C16.411 18.4542 16.0797 17.2819 15.6481 16.1283C15.6235 16.0629 15.5961 15.9981 15.5686 15.9331C15.5287 15.8389 15.4887 15.7445 15.4571 15.6478C15.3056 15.17 15.4011 14.7024 15.5452 14.2433C15.5617 14.1899 15.6647 14.1376 15.7324 14.1306C16.2814 14.0746 16.8339 14.0245 17.3954 13.9736C17.5296 13.9614 17.6644 13.9492 17.7997 13.9368C17.8206 13.9349 17.8414 13.9408 17.8581 13.9535C17.8748 13.9661 17.8861 13.9846 17.8899 14.0052C17.9045 14.0916 17.9189 14.1734 17.9328 14.2523C17.9559 14.3834 17.9776 14.5065 17.9966 14.6298C18.1897 15.8672 18.5653 17.0529 19.0134 18.2161C19.9359 20.6094 21.1677 22.8462 22.4919 25.035C24.2887 28.0053 26.2637 30.8539 28.3657 33.6154C28.7491 34.119 29.1387 34.6173 29.5346 35.1102C30.0025 35.6932 30.9068 35.7402 31.4163 35.1743C31.7493 34.8051 32.0535 34.4097 32.3578 34.0143C32.4557 33.8871 32.5535 33.7599 32.6524 33.6336C34.0974 31.7829 35.4668 29.8789 36.7603 27.9215C38.3064 25.5827 39.7714 23.1959 40.9899 20.6665C41.7822 19.0223 42.4581 17.3326 42.8636 15.5464C42.9428 15.1956 43.0058 14.8431 43.0704 14.4809C43.0963 14.336 43.1225 14.1895 43.15 14.0409C43.1536 14.0217 43.1638 14.0043 43.1788 13.9918C43.1938 13.9792 43.2127 13.9722 43.2322 13.9721H43.5902C43.7413 13.9721 43.8925 13.9729 44.0437 13.9737C44.346 13.9754 44.6483 13.9771 44.9506 13.9721C45.0088 13.9666 45.0674 13.9782 45.1191 14.0055C45.1709 14.0328 45.2135 14.0746 45.2419 14.1258C45.5004 14.5152 45.763 14.9023 46.0257 15.2894C46.4903 15.9744 46.9552 16.6596 47.3983 17.3588C47.8198 18.0245 48.3821 18.2375 49.1124 18.0741C50.1181 17.8489 51.1237 17.6155 52.1293 17.3821C52.5108 17.2936 52.8923 17.205 53.2737 17.117C53.31 17.1086 53.3462 17.1003 53.3825 17.092C54.2713 16.8875 55.1607 16.683 56.0757 16.6445L56.0937 16.6437C56.3852 16.6311 56.6973 16.6176 56.9634 16.7091C57.3591 16.8542 57.7362 17.0456 58.087 17.2792C58.3414 17.4443 58.3749 17.7375 58.4072 18.0194C58.4103 18.0467 58.4134 18.0739 58.4167 18.1008C58.5252 18.9958 58.3401 19.8604 58.1554 20.7228C58.1413 20.7889 58.1271 20.855 58.1131 20.9211C58.0352 21.2899 57.9417 21.6549 57.8481 22.0202C57.7788 22.2907 57.7094 22.5614 57.6463 22.8339C57.6058 23.0176 57.5055 23.1142 57.339 23.1825C57.1791 23.2483 57.0191 23.3137 56.8591 23.3792C56.1851 23.655 55.5108 23.931 54.846 24.2278C54.3309 24.4556 53.8298 24.7137 53.3452 25.0008C52.7973 25.327 52.561 25.8464 52.5807 26.4817C52.6218 27.8195 52.7456 29.1482 53.0123 30.462C53.341 32.0705 53.8531 33.6096 54.7195 35.0157C55.3197 35.99 56.0693 36.8276 57.0066 37.4917C57.0297 37.5082 57.0518 37.526 57.0728 37.5451C57.0871 37.5574 57.0968 37.5741 57.1005 37.5926C57.1042 37.611 57.1015 37.6302 57.0931 37.647C56.9969 37.8311 56.9026 38.016 56.8083 38.2008C56.6148 38.58 56.4215 38.959 56.2128 39.3297C55.665 40.3014 55.1138 41.2712 54.5626 42.2409C53.5623 44.0007 52.5621 45.7604 51.5825 47.5312C51.2564 48.1248 50.9809 48.7444 50.7053 49.3641C50.5559 49.7003 50.4064 50.0365 50.2488 50.3686C49.8849 51.1362 49.9772 51.8991 50.3304 52.6182C50.5694 53.1042 50.8504 53.5696 51.1314 54.035C51.2519 54.2347 51.3725 54.4343 51.4897 54.6356C51.5368 54.7166 51.5863 54.7961 51.6382 54.8796C51.651 54.9001 51.6639 54.9209 51.677 54.942C51.6874 54.9588 51.6915 54.9787 51.6887 54.9982ZM30.5363 32.0972C30.5286 32.1001 30.5192 32.1037 30.5077 32.1089C30.419 31.9972 30.3295 31.8855 30.2398 31.7736C30.0538 31.5414 29.8668 31.3081 29.684 31.0711C28.2766 29.2529 26.9685 27.3647 25.7361 25.4231C24.5442 23.5445 23.442 21.6162 22.4817 19.609C21.7711 18.1206 21.1309 16.6034 20.7041 15.0019C20.4555 14.0719 20.3083 13.1297 20.3653 12.1655C20.4587 10.5998 20.8663 9.12316 21.6372 7.75118C22.2476 6.65514 23.0565 5.6823 24.0225 4.8823C25.2767 3.83752 26.7657 3.113 28.3614 2.77094C29.3386 2.55718 30.3423 2.49167 31.3389 2.57662C33.3304 2.74425 35.1294 3.4297 36.7171 4.65381C37.9675 5.61262 38.9755 6.85183 39.6599 8.27168C40.1778 9.34838 40.5028 10.5077 40.6202 11.6968C40.7626 13.0517 40.5524 14.3591 40.163 15.6473C39.4897 17.8734 38.4851 19.9549 37.3808 21.992C36.4055 23.7916 35.3199 25.5234 34.1739 27.2184C33.0415 28.8936 31.8372 30.5154 30.5611 32.0838C30.5567 32.0895 30.5489 32.0925 30.5363 32.0972ZM30.4906 7.61766C27.7106 7.62086 25.4219 9.92868 25.4288 12.7121C25.4363 15.5068 27.7186 17.7773 30.5093 17.7847C33.2504 17.7927 35.6101 15.557 35.5978 12.6828C35.585 9.8534 33.2814 7.61392 30.4906 7.61766ZM31.492 15.049C31.1827 15.1763 30.8511 15.2404 30.5168 15.2378C29.1409 15.2362 27.9763 14.2096 27.9763 12.6988C27.9763 11.188 29.1761 10.1684 30.5098 10.1684C30.8425 10.1656 31.1724 10.2289 31.4805 10.3544C31.7886 10.48 32.0688 10.6654 32.3048 10.8999C32.5409 11.1345 32.7282 11.4135 32.8559 11.7209C32.9836 12.0283 33.0491 12.3579 33.0488 12.6908C33.0532 13.0254 32.9908 13.3574 32.8653 13.6676C32.7398 13.9777 32.5536 14.2597 32.3178 14.4969C32.082 14.7341 31.8012 14.9218 31.492 15.049Z" fill="white"/>
</svg>
