<svg width="51" height="64" viewBox="0 0 51 64" fill="none" xmlns="http://www.w3.org/2000/svg">
<path fill-rule="evenodd" clip-rule="evenodd" d="M12.9821 3.76283C2.87474 6.85763 0.669542 7.54924 0.518027 7.67185C0.284154 7.86109 0.112128 8.11705 0.0424977 8.3793C-0.0381771 8.68315 0.0064728 35.3045 0.0891987 36.2388C0.44503 40.2561 1.09395 43.1609 2.28299 46.0588C5.22451 53.2279 10.8539 58.4025 19.5823 61.9608C21.6904 62.8202 25.1169 64 25.5047 64C25.7669 64 28.4647 63.102 30.232 62.4265C36.6287 59.9814 41.3709 56.8113 44.7444 52.7251C48.2146 48.5217 50.2388 43.3357 50.8196 37.1606C50.994 35.3057 51.0114 33.6982 50.9953 20.9581L50.9792 8.34426L50.864 8.12585C50.7361 7.88349 50.434 7.59121 50.2299 7.51254C50.1568 7.48438 44.6065 5.78191 37.8958 3.72928C29.933 1.29366 25.6195 -0.00181151 25.4784 1.90122e-06C25.35 0.00165531 20.2699 1.53132 12.9821 3.76283ZM36.9637 6.0776C43.226 7.99219 48.3911 9.57023 48.4417 9.58436C48.529 9.60874 48.5337 10.2102 48.5326 21.2711C48.5321 27.6846 48.5089 33.6771 48.4813 34.5877C48.3637 38.4632 47.8418 41.3977 46.7602 44.2658C44.5632 50.0917 40.3139 54.6095 33.7964 58.0486C31.6655 59.1731 28.385 60.5194 25.9829 61.2551L25.494 61.4049L24.8522 61.204C23.239 60.6993 20.7183 59.7383 19.1353 59.0245C13.8506 56.6413 9.83555 53.5028 7.12184 49.6335C4.59757 46.0342 3.12223 41.8109 2.6476 36.8255C2.49293 35.2005 2.46621 32.9321 2.46506 21.3213C2.46411 12.0467 2.47736 9.64885 2.52964 9.61599C2.63293 9.55119 25.4662 2.56774 25.5251 2.58294C25.554 2.59046 30.7014 4.16301 36.9637 6.0776ZM24.9296 5.5228C24.0403 5.97221 24.0505 7.29994 24.9466 7.74348C25.0334 7.78642 29.3354 9.11346 34.5067 10.6924L43.909 13.5633L43.892 24.7144C43.8733 36.9368 43.8914 36.2053 43.5586 38.2389C42.53 44.5249 39.0728 49.2221 32.8044 52.8499C30.5496 54.1548 26.0485 56.053 25.2089 56.053C24.6502 56.053 24.1463 56.4686 24.0283 57.0268C23.8905 57.6781 24.2241 58.2476 24.8917 58.5009C25.3915 58.6906 25.6738 58.6581 26.7425 58.2877C30.7741 56.8904 33.745 55.4707 36.3589 53.6922C41.7456 50.0272 44.961 44.9755 46.0082 38.5322C46.4233 35.9785 46.4381 35.4153 46.4196 22.9301L46.4038 12.3415L46.2721 12.082C46.0048 11.5554 46.7254 11.8045 35.7528 8.44618C28.0915 6.10139 25.6843 5.38413 25.4759 5.38413C25.2884 5.38413 25.1187 5.42722 24.9296 5.5228ZM5.83525 12.0316C5.4983 12.2019 5.27915 12.4894 5.19759 12.8684C5.15409 13.0705 5.14384 16.1241 5.15935 24.2649C5.18197 36.1258 5.17487 35.7816 5.43667 37.7589C6.0829 42.6401 7.91828 46.598 11.0351 49.8317C12.0554 50.8902 13.4152 52.081 13.8757 52.3192C14.2999 52.5388 14.7938 52.4984 15.1829 52.2126C15.7211 51.8172 15.8251 50.8904 15.3856 50.4067C15.322 50.3366 14.974 50.0384 14.6124 49.744C13.7606 49.0504 12.1875 47.4472 11.592 46.6659C9.47051 43.8822 8.33559 40.9227 7.81836 36.8255C7.70482 35.9259 7.70366 35.8277 7.674 24.3716L7.64413 12.8245L7.53111 12.6104C7.1798 11.9453 6.47923 11.7062 5.83525 12.0316ZM35.8856 24.543C35.7006 24.5901 34.8323 25.4507 28.6938 31.6705L21.7124 38.7445L18.5437 35.5359C15.1631 32.1129 15.2764 32.2125 14.7702 32.2125C14.3033 32.2125 13.8095 32.5432 13.6418 32.9684C13.5224 33.2709 13.5285 33.698 13.6562 33.9824C13.7328 34.1528 14.7063 35.1687 17.4334 37.9236C21.3478 41.8779 21.2152 41.759 21.7123 41.759C22.221 41.759 21.7881 42.1711 29.8036 34.0571C35.0045 28.7921 37.3202 26.4133 37.3887 26.265C37.535 25.9483 37.5209 25.523 37.3527 25.1806C37.0794 24.6244 36.5198 24.3812 35.8856 24.543Z" fill="white"/>
</svg>
